<?xml version="1.0" encoding="UTF-8" standalone="no"?>
<!-- Created with Inkscape (http://www.inkscape.org/) -->

<svg
   version="1.1"
   id="svg2"
   width="1122.52"
   height="793.70667"
   viewBox="0 0 1122.52 793.70667"
   sodipodi:docname="final logo-02.eps"
   xmlns:inkscape="http://www.inkscape.org/namespaces/inkscape"
   xmlns:sodipodi="http://sodipodi.sourceforge.net/DTD/sodipodi-0.dtd"
   xmlns="http://www.w3.org/2000/svg"
   xmlns:svg="http://www.w3.org/2000/svg">
  <defs
     id="defs6" />
  <sodipodi:namedview
     id="namedview4"
     pagecolor="#ffffff"
     bordercolor="#000000"
     borderopacity="0.25"
     inkscape:showpageshadow="2"
     inkscape:pageopacity="0.0"
     inkscape:pagecheckerboard="0"
     inkscape:deskcolor="#d1d1d1" />
  <g
     id="g8"
     inkscape:groupmode="layer"
     inkscape:label="ink_ext_XXXXXX"
     transform="matrix(1.3333333,0,0,-1.3333333,0,793.70667)">
    <g
       id="g10"
       transform="scale(0.1)">
      <path
         d="m 3978.41,2976.38 c 0,-49.6 -3.61,-98.25 -10.52,-145.97 -1.41,-11.3 -3.3,-22.44 -5.17,-33.59 -24.02,-134.82 -74.56,-260.39 -146.13,-371.35 -10.05,-15.54 -20.4,-30.77 -31.39,-45.84 -184.9,-255.21 -485.31,-421.11 -824.65,-421.11 -350.95,0 -660.47,177.68 -843.49,448.11 -10.98,16.17 -21.5,32.65 -31.39,49.6 -61.53,103.12 -105.16,218.01 -127.13,340.59 -1.88,11.15 -3.77,22.29 -5.18,33.59 -6.9,47.72 -10.51,96.37 -10.51,145.97 0,562.06 455.64,1017.86 1017.7,1017.86 562.21,0 1017.86,-455.8 1017.86,-1017.86"
         style="fill:#a2263e;fill-opacity:1;fill-rule:nonzero;stroke:none"
         id="path12" />
      <path
         d="m 3069.71,2311.17 h -256.6 v -40.25 h 296.33 v 40.25 0 182.47 h 220.74 v 27.3 269.79 h -26.94 v -269.79 c -77.87,0 -155.68,0 -233.53,0 v -209.77"
         style="fill:#ffffff;fill-opacity:1;fill-rule:nonzero;stroke:none"
         id="path14" />
      <path
         d="m 2618,2494.49 v 269.79 h 193.8 v -297.94 l 403.96,386.93 -370.15,-280.75 370.15,354.55 -370.15,-280.74 370.15,354.55 -370.15,-280.74 370.15,354.55 -364.22,-276.25 v 175.6 h 214.11 v 40.26 h -253.86 v -40.26 h 0.01 v -182.47 h -220.74 v -27.29 -269.79 H 2618"
         style="fill:#ffffff;fill-opacity:1;fill-rule:nonzero;stroke:none"
         id="path16" />
      <path
         d="m 2968.86,3478.14 -8.31,5.32 -1007.19,-638.66 c 1.41,-11.59 3.3,-23.02 5.18,-34.45 l 127.13,80.49 v -429.85 c 9.89,-17.38 20.41,-34.29 31.39,-50.87 v 500.69 l 843.49,534.81 824.65,-522.74 v -540.45 c 10.99,15.45 21.34,31.07 31.39,47.01 v 473.48 l 146.13,-92.57 c 1.87,11.43 3.76,22.86 5.17,34.45 l -999.03,633.34"
         style="fill:#ffffff;fill-opacity:1;fill-rule:nonzero;stroke:none"
         id="path18" />
      <path
         d="m 3878.91,3233.23 c -43.84,13.08 -87.92,25.36 -131.62,38.9 -56.14,17.4 -111.57,36.99 -165.35,60.8 -50.72,22.46 -100.45,46.4 -138.71,88.86 -15.22,16.89 -35.15,27.63 -58.36,30.77 -27.26,3.69 -51.61,-4.75 -74.83,-17.91 -8.66,-4.91 -16.37,-11.05 -27.57,-10.92 -7.06,0.08 -14.26,-3.75 -20.75,-9.87 2.2,-0.94 3.16,-1.64 4.17,-1.73 13,-1.16 22.96,-7.94 31.42,-17.22 19.67,-21.58 30.34,-47.96 37.96,-75.44 13.48,-48.58 38.57,-89.45 78.93,-119.78 44.35,-33.34 93.15,-45.15 146.48,-23.78 12.92,5.17 24.63,13.42 36.63,20.7 2.17,1.32 3.01,4.83 4.46,7.33 -2.77,1.19 -5.49,3.15 -8.35,3.4 -5.02,0.44 -10.12,-0.22 -15.19,-0.33 -58.33,-1.16 -106.29,19.67 -140.68,67.77 -8.46,11.83 -14.66,25.29 -21.71,38.1 -1.8,3.26 -0.91,7.03 2.59,7.92 2.36,0.61 5.48,-1.39 8.11,-2.56 0.84,-0.38 1.18,-1.86 1.73,-2.84 5.5,-9.83 10.35,-20.09 16.59,-29.43 19.9,-29.77 46.43,-51.11 81.33,-60.94 38.02,-10.71 75.89,-8.41 112.58,4.97 26.95,9.84 54.1,12.1 82.13,9.27 36.49,-3.7 71.93,-12.41 106.92,-22.95 18.24,-5.49 36.09,-10.44 53.32,2.55 3.27,2.46 9.94,3.07 8.55,7.97 -0.85,2.95 -6.75,5.18 -10.78,6.39"
         style="fill:#ffffff;fill-opacity:1;fill-rule:nonzero;stroke:none"
         id="path20" />
      <path
         d="m 2874.13,3617.62 c -11.08,-1.59 -19.54,3.48 -28.76,7.22 -24.73,10.02 -49.99,15.2 -76.53,7.98 -22.6,-6.16 -40.96,-19.41 -53.84,-38.15 -32.38,-47.09 -78.55,-77.33 -125.9,-106.22 -50.2,-30.64 -102.59,-57.31 -155.98,-81.9 -41.55,-19.14 -83.65,-37.08 -125.41,-55.78 -3.83,-1.72 -9.4,-4.7 -9.84,-7.74 -0.75,-5.04 5.95,-4.77 9.52,-6.78 18.77,-10.62 35.82,-3.39 53.18,4.44 33.32,15.03 67.32,28.3 103.01,36.73 27.42,6.47 54.64,7.78 82.64,1.55 38.12,-8.47 75.97,-5.8 112.26,9.79 33.31,14.31 56.82,38.94 72.66,71.06 4.97,10.06 8.44,20.87 12.6,31.33 0.42,1.05 0.56,2.57 1.34,3.04 2.46,1.52 5.3,3.9 7.71,3.61 3.59,-0.43 4.96,-4.05 3.61,-7.52 -5.32,-13.62 -9.71,-27.78 -16.54,-40.61 -27.81,-52.18 -72.63,-79.1 -130.61,-85.57 -5.04,-0.57 -10.19,-0.57 -15.11,-1.66 -2.8,-0.63 -5.24,-2.93 -7.84,-4.47 1.77,-2.29 3.06,-5.66 5.38,-6.68 12.85,-5.65 25.55,-12.3 39.03,-15.74 55.66,-14.21 102.5,3.87 142.12,42.73 36.04,35.35 55.57,79.15 62.58,129.07 3.97,28.24 11.09,55.79 27.78,79.76 7.18,10.31 16.16,18.33 28.89,21.18 0.99,0.22 1.85,1.04 3.91,2.25 -7.23,5.23 -14.87,8.08 -21.86,7.08"
         style="fill:#ffffff;fill-opacity:1;fill-rule:nonzero;stroke:none"
         id="path22" />
      <path
         d="m 4330.13,2819.9 h -38.01 l 18.94,44.25 z m -44.83,-19.92 h 51.41 l 16,-35.88 h 26.71 l -68.36,147.28 -68.16,-147.28 h 26.5 l 15.9,35.88"
         style="fill:#a2263e;fill-opacity:1;fill-rule:nonzero;stroke:none"
         id="path24" />
      <path
         d="m 4502.2,2809.94 -101.85,100.64 V 2764.1 h 23.11 v 93.67 l 101.85,-100.64 v 146.48 h -23.11 v -93.67"
         style="fill:#a2263e;fill-opacity:1;fill-rule:nonzero;stroke:none"
         id="path26" />
      <path
         d="m 4650.07,2764.1 v 139.51 h -23.92 V 2764.1 h 23.92"
         style="fill:#a2263e;fill-opacity:1;fill-rule:nonzero;stroke:none"
         id="path28" />
      <path
         d="M 4685.95,2910.58 V 2764.1 h 23.11 v 93.67 l 101.85,-100.64 v 146.48 h -23.12 v -93.67 l -101.84,100.64"
         style="fill:#a2263e;fill-opacity:1;fill-rule:nonzero;stroke:none"
         id="path30" />
      <path
         d="m 4870.89,2903.61 h -23.92 V 2764.1 h 23.92 v 139.51"
         style="fill:#a2263e;fill-opacity:1;fill-rule:nonzero;stroke:none"
         id="path32" />
      <path
         d="m 4953.2,2881.88 h 36.88 v 21.73 h -97.27 v -21.73 h 36.88 V 2764.1 h 23.51 v 117.78"
         style="fill:#a2263e;fill-opacity:1;fill-rule:nonzero;stroke:none"
         id="path34" />
      <path
         d="m 5036.11,2764.1 v 139.51 H 5012.2 V 2764.1 h 23.91"
         style="fill:#a2263e;fill-opacity:1;fill-rule:nonzero;stroke:none"
         id="path36" />
      <path
         d="m 5144.26,2819.9 h -38.01 l 18.94,44.25 z m -60.72,-55.8 15.89,35.88 h 51.41 l 16,-35.88 h 26.71 l -68.36,147.28 -68.16,-147.28 h 26.51"
         style="fill:#a2263e;fill-opacity:1;fill-rule:nonzero;stroke:none"
         id="path38" />
      <path
         d="m 5283.85,2903.61 h -97.27 v -21.73 h 36.88 V 2764.1 h 23.51 v 117.78 h 36.88 v 21.73"
         style="fill:#a2263e;fill-opacity:1;fill-rule:nonzero;stroke:none"
         id="path40" />
      <path
         d="m 5329.88,2903.61 h -23.92 V 2764.1 h 23.92 v 139.51"
         style="fill:#a2263e;fill-opacity:1;fill-rule:nonzero;stroke:none"
         id="path42" />
      <path
         d="m 5460.02,2903.61 -41.06,-98.06 -41.05,98.06 h -27.11 l 68.16,-147.29 68.36,147.29 h -27.3"
         style="fill:#a2263e;fill-opacity:1;fill-rule:nonzero;stroke:none"
         id="path44" />
      <path
         d="m 5531.37,2764.1 h 61.78 v 20.72 h -61.78 v 43.85 h 57.8 V 2849 h -57.8 v 33.88 h 61.78 v 20.73 h -61.78 -8.57 -14.55 V 2764.1 h 14.55 8.57"
         style="fill:#a2263e;fill-opacity:1;fill-rule:nonzero;stroke:none"
         id="path46" />
      <path
         d="m 5758.77,2793.89 c -2.39,-3.39 -5.65,-5.94 -9.77,-7.67 -4.12,-1.73 -8.84,-2.59 -14.15,-2.59 h -19.53 v 45.64 h 19.53 c 3.99,0 7.64,-0.44 10.97,-1.3 3.31,-0.86 6.24,-2.26 8.77,-4.18 2.52,-1.93 4.44,-4.28 5.77,-7.07 1.33,-2.8 1.99,-6.12 1.99,-9.98 0,-5.17 -1.19,-9.46 -3.58,-12.85 z m -26.51,90.38 c 6.64,0 11.99,-1.59 16.05,-4.77 4.05,-3.2 6.07,-7.72 6.07,-13.56 0,-3.85 -0.92,-7.14 -2.79,-9.86 -1.86,-2.73 -4.45,-4.82 -7.77,-6.28 -3.32,-1.46 -7.17,-2.2 -11.56,-2.2 h -16.94 v 36.67 z m 47.84,-102.63 c 4.24,5.97 6.37,13.55 6.37,22.72 0,6.64 -1.33,12.36 -3.98,17.14 -2.67,4.78 -6.32,8.7 -10.97,11.76 -4.31,2.83 -9.28,4.93 -14.79,6.45 0.14,0.05 0.31,0.07 0.45,0.12 6.64,2.53 11.85,6.21 15.64,11.06 3.79,4.85 5.68,10.73 5.68,17.64 0,7.97 -1.89,14.55 -5.68,19.73 -3.79,5.18 -9,9.04 -15.64,11.56 -6.65,2.52 -14.43,3.79 -23.32,3.79 H 5691.8 V 2764.1 h 44.45 c 9.96,0 18.7,1.42 26.21,4.28 7.5,2.86 13.38,7.28 17.64,13.26"
         style="fill:#a2263e;fill-opacity:1;fill-rule:nonzero;stroke:none"
         id="path48" />
      <path
         d="m 5854.83,2844.02 -32.29,59.59 h -26.91 l 47.43,-80.92 v -58.59 h 23.92 v 58.8 l 47.24,80.71 h -26.91 l -32.48,-59.59"
         style="fill:#a2263e;fill-opacity:1;fill-rule:nonzero;stroke:none"
         id="path50" />
      <path
         d="m 4327.9,2498.52 c -2.06,-2.59 -4.82,-4.45 -8.27,-5.57 -3.46,-1.14 -7.38,-1.69 -11.76,-1.69 h -17.14 v 34.47 h 17.14 c 3.32,0 6.35,-0.29 9.07,-0.9 2.73,-0.6 5.15,-1.56 7.28,-2.89 2.12,-1.33 3.79,-3.06 4.98,-5.18 1.2,-2.13 1.79,-4.65 1.79,-7.57 0,-4.52 -1.03,-8.07 -3.09,-10.67 z m -23.21,80.02 c 5.7,0 10.19,-1.19 13.45,-3.58 3.24,-2.4 4.88,-5.98 4.88,-10.76 0,-3.2 -0.74,-5.88 -2.19,-8.08 -1.47,-2.19 -3.56,-3.88 -6.28,-5.08 -2.73,-1.19 -6.02,-1.8 -9.86,-1.8 h -13.96 v 29.3 z m 46.73,-28.09 c 4.32,5.17 6.48,11.42 6.48,18.73 0,7.97 -2.16,14.58 -6.48,19.83 -4.32,5.24 -10.16,9.17 -17.54,11.76 -7.37,2.59 -15.91,3.88 -25.61,3.88 h -51.22 v -139.51 h 54.61 c 11.02,0 20.59,1.36 28.7,4.08 8.1,2.73 14.38,6.95 18.84,12.66 4.44,5.71 6.67,13.22 6.67,22.52 0,7.04 -1.57,13.06 -4.68,18.04 -3.13,4.99 -7.28,9.1 -12.46,12.36 -3.52,2.21 -7.42,3.85 -11.5,5.24 5.79,2.61 10.56,6.05 14.19,10.41"
         style="fill:#a2263e;fill-opacity:1;fill-rule:nonzero;stroke:none"
         id="path52" />
      <path
         d="m 4465.33,2517.76 h -31.03 l 15.47,35.67 z m -88.9,-52.62 h 38.07 l 13,26.91 h 44.49 l 13.06,-26.91 h 38.27 l -73.55,148.28 -73.34,-148.28"
         style="fill:#a2263e;fill-opacity:1;fill-rule:nonzero;stroke:none"
         id="path54" />
      <path
         d="m 4671.59,2604.65 h -32.48 v -78.52 l -96.27,85.5 v -146.49 h 32.29 v 78.53 l 96.46,-85.5 v 146.48"
         style="fill:#a2263e;fill-opacity:1;fill-rule:nonzero;stroke:none"
         id="path56" />
      <path
         d="m 4789.98,2465.14 h 40.86 l -59.59,74.14 56.6,65.37 h -39.46 l -47.43,-55.03 v 55.03 h -34.89 v -139.51 h 34.89 v 61 l 49.02,-61"
         style="fill:#a2263e;fill-opacity:1;fill-rule:nonzero;stroke:none"
         id="path58" />
      <path
         d="m 4943.04,2576.95 v 27.7 h -92.68 v -139.51 h 22.32 9.96 60.4 v 27.71 h -60.4 v 32.09 h 56.41 v 27.1 h -56.41 v 24.91 h 60.4"
         style="fill:#a2263e;fill-opacity:1;fill-rule:nonzero;stroke:none"
         id="path60" />
      <path
         d="m 5009.21,2576.16 h 14.74 c 4.52,0 8.41,-0.73 11.66,-2.2 3.27,-1.46 5.76,-3.55 7.48,-6.28 1.72,-2.72 2.59,-6.01 2.59,-9.86 0,-3.86 -0.87,-7.15 -2.59,-9.86 -1.72,-2.73 -4.21,-4.79 -7.48,-6.19 -3.25,-1.39 -7.14,-2.09 -11.66,-2.09 h -14.74 z m 43.3,-58.3 c 1.26,0.49 2.56,0.92 3.74,1.49 7.97,3.86 14.01,9.2 18.13,16.05 4.11,6.84 6.17,14.71 6.17,23.61 0,9.03 -2.06,16.97 -6.17,23.82 -4.12,6.84 -10.16,12.19 -18.13,16.04 -7.98,3.86 -17.94,5.78 -29.9,5.78 h -17.14 -12.55 -21.13 v -139.51 h 33.68 v 48.43 h 10.16 l 30.1,-48.43 h 39.46 l -36.42,52.72"
         style="fill:#a2263e;fill-opacity:1;fill-rule:nonzero;stroke:none"
         id="path62" />
      <path
         d="m 5207.21,2485.97 c 2.86,5.51 4.28,11.79 4.28,18.83 0,5.85 -0.93,11.03 -2.78,15.55 -1.87,4.52 -4.42,8.5 -7.68,11.96 -3.26,3.45 -7.01,6.41 -11.26,8.87 -4.25,2.45 -8.83,4.61 -13.75,6.47 -6.51,2.26 -12.06,4.39 -16.64,6.38 -4.59,1.99 -8.11,4.19 -10.56,6.58 -2.46,2.39 -3.69,5.18 -3.69,8.37 0,3.06 1.25,5.61 3.78,7.68 2.52,2.05 6.19,3.08 10.97,3.08 3.58,0 6.93,-0.7 10.06,-2.09 3.12,-1.39 5.98,-3.33 8.57,-5.78 2.59,-2.46 4.89,-5.35 6.88,-8.67 l 25.71,14.35 c -2.39,4.78 -5.85,9.5 -10.37,14.15 -4.51,4.64 -10.19,8.5 -17.04,11.56 -6.85,3.05 -14.91,4.58 -24.21,4.58 -9.04,0 -17.25,-1.56 -24.62,-4.68 -7.37,-3.12 -13.22,-7.68 -17.54,-13.65 -4.31,-5.98 -6.47,-13.09 -6.47,-21.33 0,-6.9 1.26,-12.78 3.79,-17.64 2.52,-4.85 5.71,-8.96 9.56,-12.35 3.85,-3.39 7.94,-6.15 12.26,-8.27 4.32,-2.13 8.14,-3.79 11.46,-4.98 6.78,-2.53 12.22,-4.79 16.35,-6.78 4.11,-1.99 7.1,-4.09 8.96,-6.28 1.86,-2.2 2.79,-5.09 2.79,-8.67 0,-4.26 -1.6,-7.61 -4.78,-10.07 -3.19,-2.46 -7.25,-3.68 -12.16,-3.68 -4.65,0 -9.07,1 -13.25,2.99 -4.19,1.99 -8.05,4.84 -11.56,8.57 -3.53,3.71 -6.68,8.1 -9.47,13.15 l -23.52,-16.94 c 3.19,-6.65 7.64,-12.75 13.36,-18.34 5.71,-5.57 12.45,-10 20.22,-13.25 7.77,-3.25 16.18,-4.88 25.22,-4.88 6.5,0 12.85,0.96 19.03,2.89 6.18,1.92 11.69,4.74 16.54,8.47 4.85,3.72 8.7,8.34 11.56,13.85"
         style="fill:#a2263e;fill-opacity:1;fill-rule:nonzero;stroke:none"
         id="path64" />
      <path
         d="m 5295.8,2534.9 c 0,-11.04 1.89,-21.1 5.68,-30.2 3.78,-9.1 9.07,-16.94 15.84,-23.51 6.78,-6.58 14.82,-11.63 24.11,-15.15 9.31,-3.51 19.53,-5.28 30.7,-5.28 11.82,0 22.32,2.09 31.49,6.28 9.17,4.18 16.81,9.99 22.92,17.44 6.1,7.43 10.63,16 13.56,25.7 2.92,9.7 4.04,20.14 3.38,31.29 h -70.55 v -25.91 H 5410 c -1.2,-3.58 -2.82,-6.94 -4.88,-10.06 -2.07,-3.12 -4.56,-5.85 -7.48,-8.17 -2.93,-2.32 -6.44,-4.12 -10.56,-5.38 -4.12,-1.27 -8.7,-1.9 -13.75,-1.9 -8.24,0 -15.52,1.83 -21.83,5.48 -6.31,3.66 -11.3,8.84 -14.95,15.55 -3.65,6.71 -5.48,14.65 -5.48,23.82 0,9.3 1.9,17.17 5.69,23.61 3.79,6.45 8.86,11.4 15.24,14.86 6.38,3.44 13.49,5.17 21.33,5.17 8.1,0 14.84,-1.82 20.22,-5.48 5.38,-3.65 9.67,-8.27 12.86,-13.84 l 29.9,15.54 c -4.39,6.51 -9.6,12.26 -15.65,17.24 -6.04,4.98 -12.99,8.87 -20.83,11.66 -7.84,2.79 -16.68,4.18 -26.5,4.18 -11.04,0 -21.26,-1.73 -30.7,-5.18 -9.43,-3.45 -17.67,-8.37 -24.71,-14.74 -7.04,-6.38 -12.49,-14.06 -16.34,-23.03 -3.86,-8.97 -5.78,-18.97 -5.78,-29.99"
         style="fill:#a2263e;fill-opacity:1;fill-rule:nonzero;stroke:none"
         id="path66" />
      <path
         d="m 5519.4,2576.16 c 4.52,0 8.41,-0.73 11.66,-2.2 3.26,-1.46 5.75,-3.55 7.48,-6.28 1.72,-2.72 2.59,-6.01 2.59,-9.86 0,-3.86 -0.87,-7.15 -2.59,-9.86 -1.73,-2.73 -4.22,-4.79 -7.48,-6.19 -3.25,-1.39 -7.14,-2.09 -11.66,-2.09 h -14.74 v 36.48 z m -4.58,-62.59 30.1,-48.43 h 39.46 l -36.43,52.72 c 1.26,0.49 2.57,0.92 3.75,1.49 7.97,3.86 14.01,9.2 18.13,16.05 4.11,6.84 6.17,14.71 6.17,23.61 0,9.03 -2.06,16.97 -6.17,23.82 -4.12,6.84 -10.16,12.19 -18.13,16.04 -7.98,3.86 -17.94,5.78 -29.9,5.78 h -17.14 -12.55 -21.14 v -139.51 h 33.69 v 48.43 h 10.16"
         style="fill:#a2263e;fill-opacity:1;fill-rule:nonzero;stroke:none"
         id="path68" />
      <path
         d="m 5706.45,2513.07 c -3.25,-6.31 -7.84,-11.26 -13.75,-14.84 -5.9,-3.6 -12.78,-5.38 -20.62,-5.38 -7.97,0 -14.92,1.78 -20.83,5.38 -5.91,3.58 -10.5,8.53 -13.75,14.84 -3.26,6.31 -4.88,13.59 -4.88,21.83 0,8.23 1.62,15.51 4.88,21.82 3.25,6.31 7.84,11.26 13.75,14.85 5.91,3.58 12.86,5.38 20.83,5.38 8.1,0 15.08,-1.8 20.93,-5.38 5.84,-3.59 10.36,-8.54 13.55,-14.85 3.18,-6.31 4.78,-13.59 4.78,-21.82 0,-8.24 -1.63,-15.52 -4.89,-21.83 z m 19.24,74.45 c -6.78,6.5 -14.72,11.52 -23.82,15.04 -9.1,3.52 -19.03,5.28 -29.79,5.28 -10.64,0 -20.53,-1.76 -29.7,-5.28 -9.17,-3.52 -17.14,-8.54 -23.92,-15.04 -6.77,-6.52 -12.06,-14.22 -15.83,-23.13 -3.79,-8.9 -5.69,-18.73 -5.69,-29.49 0,-10.76 1.83,-20.67 5.48,-29.7 3.65,-9.03 8.84,-16.87 15.55,-23.51 6.71,-6.65 14.65,-11.8 23.82,-15.45 9.17,-3.66 19.25,-5.48 30.29,-5.48 10.89,0 20.93,1.82 30.1,5.48 9.16,3.65 17.1,8.8 23.8,15.45 6.71,6.64 11.9,14.48 15.55,23.51 3.65,9.03 5.48,18.94 5.48,29.7 0,10.76 -1.86,20.59 -5.58,29.49 -3.72,8.91 -8.96,16.61 -15.74,23.13"
         style="fill:#a2263e;fill-opacity:1;fill-rule:nonzero;stroke:none"
         id="path70" />
      <path
         d="m 5851.04,2513.38 c 0,-7.05 -1.86,-12.76 -5.57,-17.14 -3.72,-4.39 -9.38,-6.59 -16.95,-6.59 -7.44,0 -13.02,2.2 -16.73,6.59 -3.73,4.38 -5.59,10.09 -5.59,17.14 v 91.27 h -33.68 v -93.67 c 0,-8.77 1.42,-16.41 4.28,-22.92 2.86,-6.51 6.85,-11.85 11.96,-16.04 5.12,-4.18 11.06,-7.35 17.84,-9.47 6.78,-2.12 14.08,-3.19 21.92,-3.19 7.85,0 15.18,1.07 22.03,3.19 6.84,2.12 12.82,5.29 17.93,9.47 5.11,4.19 9.11,9.53 11.96,16.04 2.86,6.51 4.28,14.15 4.28,22.92 v 93.67 h -33.68 v -91.27"
         style="fill:#a2263e;fill-opacity:1;fill-rule:nonzero;stroke:none"
         id="path72" />
      <path
         d="m 5982.59,2545.86 c -3.86,-3.06 -9.17,-4.58 -15.95,-4.58 h -14.75 v 35.67 h 14.75 c 6.78,0 12.09,-1.52 15.95,-4.58 3.85,-3.06 5.78,-7.51 5.78,-13.36 0,-5.71 -1.93,-10.1 -5.78,-13.15 z m 13.85,53.32 c -8.04,3.65 -17.98,5.47 -29.8,5.47 h -14.75 -12.55 -21.13 v -139.51 h 33.68 v 48.43 h 14.75 c 11.82,0 21.76,1.83 29.8,5.48 8.04,3.66 14.11,8.91 18.24,15.75 4.11,6.84 6.18,14.91 6.18,24.21 0,9.57 -2.07,17.74 -6.18,24.52 -4.13,6.78 -10.2,11.98 -18.24,15.65"
         style="fill:#a2263e;fill-opacity:1;fill-rule:nonzero;stroke:none"
         id="path74" />
      <path
         d="m 4358.59,2214.13 c -3.25,-6.31 -7.84,-11.26 -13.75,-14.85 -5.91,-3.59 -12.78,-5.38 -20.62,-5.38 -7.97,0 -14.92,1.79 -20.83,5.38 -5.92,3.59 -10.5,8.54 -13.75,14.85 -3.26,6.31 -4.89,13.58 -4.89,21.82 0,8.24 1.63,15.51 4.89,21.83 3.25,6.31 7.83,11.26 13.75,14.84 5.91,3.59 12.86,5.38 20.83,5.38 8.1,0 15.08,-1.79 20.92,-5.38 5.84,-3.58 10.37,-8.53 13.56,-14.84 3.18,-6.32 4.77,-13.59 4.77,-21.83 0,-8.24 -1.62,-15.51 -4.88,-21.82 z m 19.24,74.44 c -6.78,6.5 -14.72,11.52 -23.82,15.05 -9.1,3.51 -19.03,5.27 -29.79,5.27 -10.64,0 -20.53,-1.76 -29.7,-5.27 -9.17,-3.53 -17.14,-8.55 -23.92,-15.05 -6.77,-6.51 -12.06,-14.22 -15.85,-23.12 -3.78,-8.9 -5.67,-18.73 -5.67,-29.5 0,-10.76 1.83,-20.66 5.48,-29.69 3.65,-9.04 8.84,-16.88 15.55,-23.52 6.7,-6.65 14.64,-11.8 23.81,-15.45 9.16,-3.65 19.26,-5.48 30.3,-5.48 10.89,0 20.92,1.83 30.09,5.48 9.16,3.65 17.1,8.8 23.81,15.45 6.71,6.64 11.9,14.48 15.55,23.52 3.65,9.03 5.48,18.93 5.48,29.69 0,10.77 -1.86,20.6 -5.58,29.5 -3.72,8.9 -8.96,16.61 -15.74,23.12"
         style="fill:#a2263e;fill-opacity:1;fill-rule:nonzero;stroke:none"
         id="path76" />
      <path
         d="m 4447.99,2305.71 h -22.33 V 2166.2 h 32.29 v 56 h 50.43 v 27.1 h -50.43 v 27.51 h 52.42 v 28.9 h -52.42 -9.96"
         style="fill:#a2263e;fill-opacity:1;fill-rule:nonzero;stroke:none"
         id="path78" />
      <path
         d="m 4699.3,2254.89 h -60 v 50.82 h -33.68 V 2166.2 h 33.68 v 58.4 h 60 v -58.4 h 33.68 v 139.51 h -33.68 v -50.82"
         style="fill:#a2263e;fill-opacity:1;fill-rule:nonzero;stroke:none"
         id="path80" />
      <path
         d="m 4868.8,2214.13 c -3.25,-6.31 -7.84,-11.26 -13.75,-14.85 -5.91,-3.59 -12.79,-5.38 -20.63,-5.38 -7.97,0 -14.92,1.79 -20.83,5.38 -5.91,3.59 -10.5,8.54 -13.75,14.85 -3.26,6.31 -4.88,13.58 -4.88,21.82 0,8.24 1.62,15.51 4.88,21.83 3.25,6.31 7.84,11.26 13.75,14.84 5.91,3.59 12.86,5.38 20.83,5.38 8.11,0 15.08,-1.79 20.93,-5.38 5.84,-3.58 10.36,-8.53 13.55,-14.84 3.19,-6.32 4.78,-13.59 4.78,-21.83 0,-8.24 -1.62,-15.51 -4.88,-21.82 z m 19.24,74.44 c -6.78,6.5 -14.72,11.52 -23.82,15.05 -9.1,3.51 -19.04,5.27 -29.8,5.27 -10.63,0 -20.53,-1.76 -29.7,-5.27 -9.17,-3.53 -17.13,-8.55 -23.91,-15.05 -6.78,-6.51 -12.06,-14.22 -15.84,-23.12 -3.79,-8.9 -5.68,-18.73 -5.68,-29.5 0,-10.76 1.82,-20.66 5.47,-29.69 3.66,-9.04 8.84,-16.88 15.55,-23.52 6.71,-6.65 14.65,-11.8 23.82,-15.45 9.17,-3.65 19.26,-5.48 30.29,-5.48 10.89,0 20.93,1.83 30.1,5.48 9.16,3.65 17.1,8.8 23.81,15.45 6.71,6.64 11.89,14.48 15.55,23.52 3.65,9.03 5.47,18.93 5.47,29.69 0,10.77 -1.85,20.6 -5.57,29.5 -3.72,8.9 -8.97,16.61 -15.74,23.12"
         style="fill:#a2263e;fill-opacity:1;fill-rule:nonzero;stroke:none"
         id="path82" />
      <path
         d="m 5027.45,2233.37 c -3.26,3.44 -7.01,6.4 -11.26,8.86 -4.26,2.45 -8.84,4.61 -13.75,6.48 -6.51,2.25 -12.06,4.38 -16.64,6.37 -4.59,2 -8.12,4.19 -10.57,6.59 -2.46,2.39 -3.69,5.17 -3.69,8.37 0,3.05 1.26,5.6 3.79,7.67 2.52,2.05 6.18,3.09 10.97,3.09 3.58,0 6.93,-0.71 10.06,-2.09 3.12,-1.4 5.97,-3.33 8.57,-5.78 2.59,-2.46 4.88,-5.36 6.87,-8.68 l 25.72,14.35 c -2.39,4.78 -5.85,9.5 -10.37,14.15 -4.52,4.65 -10.2,8.51 -17.04,11.56 -6.85,3.06 -14.92,4.58 -24.21,4.58 -9.05,0 -17.25,-1.56 -24.62,-4.67 -7.38,-3.13 -13.23,-7.68 -17.54,-13.66 -4.32,-5.97 -6.48,-13.08 -6.48,-21.33 0,-6.9 1.26,-12.78 3.79,-17.63 2.52,-4.86 5.72,-8.97 9.56,-12.36 3.86,-3.38 7.94,-6.15 12.27,-8.27 4.32,-2.13 8.13,-3.79 11.45,-4.98 6.78,-2.53 12.23,-4.78 16.35,-6.77 4.11,-2 7.1,-4.1 8.97,-6.28 1.85,-2.2 2.79,-5.09 2.79,-8.68 0,-4.25 -1.6,-7.6 -4.79,-10.06 -3.19,-2.47 -7.24,-3.69 -12.15,-3.69 -4.65,0 -9.08,1 -13.26,2.99 -4.19,1.99 -8.04,4.85 -11.56,8.58 -3.52,3.71 -6.68,8.09 -9.46,13.14 l -23.53,-16.93 c 3.2,-6.65 7.65,-12.76 13.36,-18.34 5.72,-5.58 12.45,-10 20.23,-13.25 7.77,-3.26 16.18,-4.89 25.21,-4.89 6.51,0 12.85,0.97 19.04,2.89 6.18,1.93 11.68,4.75 16.54,8.47 4.84,3.72 8.7,8.34 11.56,13.86 2.85,5.51 4.28,11.78 4.28,18.83 0,5.85 -0.93,11.02 -2.78,15.54 -1.87,4.52 -4.43,8.51 -7.68,11.97"
         style="fill:#a2263e;fill-opacity:1;fill-rule:nonzero;stroke:none"
         id="path84" />
      <path
         d="m 5129.78,2246.91 c -3.85,-3.06 -9.17,-4.58 -15.94,-4.58 h -14.75 V 2278 h 14.75 c 6.77,0 12.09,-1.52 15.94,-4.58 3.86,-3.05 5.78,-7.51 5.78,-13.36 0,-5.71 -1.92,-10.09 -5.78,-13.15 z m 13.86,53.32 c -8.05,3.65 -17.98,5.48 -29.8,5.48 h -14.75 -12.55 -21.13 V 2166.2 h 33.68 v 48.43 h 14.75 c 11.82,0 21.75,1.82 29.8,5.47 8.04,3.67 14.11,8.91 18.23,15.76 4.11,6.83 6.18,14.91 6.18,24.2 0,9.57 -2.07,17.75 -6.18,24.53 -4.12,6.77 -10.19,11.98 -18.23,15.64"
         style="fill:#a2263e;fill-opacity:1;fill-rule:nonzero;stroke:none"
         id="path86" />
      <path
         d="m 5194.56,2166.2 h 34.28 v 139.51 h -34.28 V 2166.2"
         style="fill:#a2263e;fill-opacity:1;fill-rule:nonzero;stroke:none"
         id="path88" />
      <path
         d="m 5359.77,2305.71 h -110.41 v -30.1 h 38.27 V 2166.2 h 33.68 v 109.41 h 38.46 v 30.1"
         style="fill:#a2263e;fill-opacity:1;fill-rule:nonzero;stroke:none"
         id="path90" />
      <path
         d="m 5434.13,2218.81 h -31.03 l 15.47,35.68 z m -88.9,-52.61 h 38.07 l 13,26.9 h 44.49 l 13.06,-26.9 h 38.27 l -73.55,148.28 -73.34,-148.28"
         style="fill:#a2263e;fill-opacity:1;fill-rule:nonzero;stroke:none"
         id="path92" />
      <path
         d="m 5545.32,2305.71 h -33.68 V 2166.2 h 89.69 v 28.89 h -56.01 v 110.62"
         style="fill:#a2263e;fill-opacity:1;fill-rule:nonzero;stroke:none"
         id="path94" />
      <path
         d="m 5713.44,2233.37 c -3.27,3.44 -7.02,6.4 -11.26,8.86 -4.26,2.45 -8.84,4.61 -13.75,6.48 -6.52,2.25 -12.06,4.38 -16.64,6.37 -4.59,2 -8.12,4.19 -10.57,6.59 -2.46,2.39 -3.69,5.17 -3.69,8.37 0,3.05 1.26,5.6 3.79,7.67 2.52,2.05 6.18,3.09 10.96,3.09 3.59,0 6.94,-0.71 10.06,-2.09 3.13,-1.4 5.98,-3.33 8.58,-5.78 2.58,-2.46 4.88,-5.36 6.87,-8.68 l 25.71,14.35 c -2.39,4.78 -5.85,9.5 -10.37,14.15 -4.51,4.65 -10.19,8.51 -17.04,11.56 -6.84,3.06 -14.91,4.58 -24.21,4.58 -9.04,0 -17.24,-1.56 -24.62,-4.67 -7.37,-3.13 -13.22,-7.68 -17.54,-13.66 -4.31,-5.97 -6.47,-13.08 -6.47,-21.33 0,-6.9 1.26,-12.78 3.79,-17.63 2.52,-4.86 5.71,-8.97 9.56,-12.36 3.86,-3.38 7.94,-6.15 12.27,-8.27 4.31,-2.13 8.13,-3.79 11.45,-4.98 6.78,-2.53 12.23,-4.78 16.35,-6.77 4.11,-2 7.1,-4.1 8.96,-6.28 1.86,-2.2 2.8,-5.09 2.8,-8.68 0,-4.25 -1.61,-7.6 -4.79,-10.06 -3.19,-2.47 -7.25,-3.69 -12.16,-3.69 -4.65,0 -9.07,1 -13.25,2.99 -4.19,1.99 -8.05,4.85 -11.56,8.58 -3.53,3.71 -6.68,8.09 -9.46,13.14 l -23.53,-16.93 c 3.19,-6.65 7.65,-12.76 13.36,-18.34 5.71,-5.58 12.45,-10 20.22,-13.25 7.78,-3.26 16.19,-4.89 25.22,-4.89 6.5,0 12.85,0.97 19.03,2.89 6.18,1.93 11.69,4.75 16.54,8.47 4.85,3.72 8.71,8.34 11.57,13.86 2.85,5.51 4.27,11.78 4.27,18.83 0,5.85 -0.92,11.02 -2.78,15.54 -1.86,4.52 -4.42,8.51 -7.67,11.97"
         style="fill:#a2263e;fill-opacity:1;fill-rule:nonzero;stroke:none"
         id="path96" />
      <path
         d="m 4411.68,3346.98 c -6.96,-5.37 -15.8,-8.04 -26.53,-8.04 -10.15,0 -19.78,2.17 -28.91,6.52 -9.14,4.35 -17.55,10.58 -25.23,18.7 -7.69,8.12 -14.57,17.68 -20.66,28.7 l -51.32,-36.96 c 6.96,-14.5 16.67,-27.83 29.14,-40.01 12.46,-12.18 27.18,-21.83 44.14,-28.93 16.97,-7.1 35.3,-10.65 55.02,-10.65 14.2,0 28.05,2.11 41.54,6.31 13.47,4.2 25.5,10.36 36.09,18.48 10.58,8.11 18.98,18.19 25.22,30.23 6.23,12.02 9.35,25.72 9.35,41.09 0,12.76 -2.03,24.07 -6.08,33.92 -4.08,9.85 -9.65,18.55 -16.75,26.09 -7.11,7.54 -15.3,13.99 -24.57,19.36 -9.28,5.36 -19.29,10.07 -30.01,14.13 -14.21,4.93 -26.31,9.57 -36.31,13.92 -10,4.35 -17.69,9.14 -23.05,14.35 -5.37,5.22 -8.05,11.31 -8.05,18.26 0,6.67 2.76,12.25 8.27,16.75 5.49,4.49 13.47,6.74 23.91,6.74 7.83,0 15.15,-1.52 21.97,-4.56 6.8,-3.05 13.04,-7.26 18.7,-12.62 5.65,-5.37 10.65,-11.67 15,-18.92 l 56.1,31.31 c -5.21,10.44 -12.76,20.74 -22.62,30.88 -9.85,10.15 -22.25,18.56 -37.17,25.23 -14.95,6.67 -32.55,10 -52.85,10 -19.71,0 -37.61,-3.41 -53.71,-10.22 -16.08,-6.81 -28.85,-16.75 -38.27,-29.79 -9.42,-13.05 -14.13,-28.56 -14.13,-46.54 0,-15.07 2.75,-27.9 8.26,-38.48 5.51,-10.59 12.46,-19.57 20.88,-26.97 8.41,-7.39 17.32,-13.4 26.75,-18.04 9.41,-4.64 17.75,-8.26 25,-10.87 14.78,-5.52 26.67,-10.44 35.66,-14.79 8.99,-4.35 15.51,-8.91 19.57,-13.7 4.06,-4.78 6.09,-11.09 6.09,-18.91 0,-9.29 -3.48,-16.61 -10.44,-21.97"
         style="fill:#a2263e;fill-opacity:1;fill-rule:nonzero;stroke:none"
         id="path98" />
      <path
         d="m 4780.47,3451.57 98.29,-183.52 131.77,322.25 h -87.42 l -59.14,-173.52 -83.5,188.74 -82.63,-188.74 -60.01,173.52 h -86.98 l 131.77,-322.25 97.85,183.52"
         style="fill:#a2263e;fill-opacity:1;fill-rule:nonzero;stroke:none"
         id="path100" />
      <path
         d="m 5194.93,3400.69 h -67.7 l 33.75,77.85 z m -110.92,-114.81 28.38,58.71 h 97.07 l 28.51,-58.71 h 83.49 l -160.48,323.55 -160.03,-323.55 h 83.06"
         style="fill:#a2263e;fill-opacity:1;fill-rule:nonzero;stroke:none"
         id="path102" />
      <path
         d="m 5304.06,3195.21 c 8.42,-3.63 17.83,-6.74 28.27,-9.35 10.44,-2.62 21.31,-3.92 32.62,-3.92 13.33,0 26.09,1.53 38.27,4.57 12.18,3.04 22.9,7.68 32.18,13.91 9.28,6.24 16.52,14.5 21.75,24.8 5.21,10.29 7.82,22.68 7.82,37.17 v 327.91 h -79.15 v -311.38 c 0,-12.76 -3.04,-21.81 -9.13,-27.18 -6.09,-5.36 -12.47,-8.05 -19.13,-8.05 -6.38,0 -12.76,1.46 -19.14,4.36 -6.37,2.9 -11.74,6.23 -16.09,10 l -40.01,-51.32 c 6.09,-4.05 13.34,-7.89 21.74,-11.52"
         style="fill:#a2263e;fill-opacity:1;fill-rule:nonzero;stroke:none"
         id="path104" />
      <path
         d="m 5723.31,3400.69 h -67.7 l 33.75,77.85 z m -82.55,-56.1 h 97.08 l 28.51,-58.71 h 83.49 l -160.48,323.55 -160.04,-323.55 h 83.07 l 28.37,58.71"
         style="fill:#a2263e;fill-opacity:1;fill-rule:nonzero;stroke:none"
         id="path106" />
      <path
         d="m 6124.26,3590.3 v -171.34 l -210.06,186.56 v -319.64 h 70.46 v 171.35 l 210.47,-186.57 v 319.64 h -70.87"
         style="fill:#a2263e;fill-opacity:1;fill-rule:nonzero;stroke:none"
         id="path108" />
    </g>
  </g>
</svg>
