<?xml version="1.0" encoding="UTF-8" standalone="no"?>
<!-- Created with Inkscape (http://www.inkscape.org/) -->

<svg
   version="1.1"
   id="svg2"
   width="1122.52"
   height="793.70135"
   viewBox="0 0 1122.52 793.70135"
   xmlns="http://www.w3.org/2000/svg"
   xmlns:svg="http://www.w3.org/2000/svg">
  <defs
     id="defs6">
    <clipPath
       clipPathUnits="userSpaceOnUse"
       id="clipPath16">
      <path
         d="M 0,595.276 H 841.89 V 0 H 0 Z"
         id="path14" />
    </clipPath>
  </defs>
  <g
     id="g8"
     transform="matrix(1.3333333,0,0,-1.3333333,0,793.70133)">
    <g
       id="g10">
      <g
         id="g12"
         clip-path="url(#clipPath16)">
        <g
           id="g18"
           transform="translate(497.6019,396.9574)">
          <path
             d="m 0,0 c 0,-4.028 -0.293,-7.979 -0.855,-11.855 -0.114,-0.917 -0.267,-1.822 -0.42,-2.727 -1.95,-10.95 -6.054,-21.147 -11.867,-30.16 -0.816,-1.261 -1.657,-2.498 -2.549,-3.722 -15.017,-20.726 -39.414,-34.199 -66.973,-34.199 -28.501,0 -53.639,14.429 -68.502,36.392 -0.892,1.313 -1.745,2.651 -2.549,4.028 -4.997,8.375 -8.54,17.705 -10.324,27.661 -0.154,0.905 -0.307,1.81 -0.421,2.727 -0.561,3.876 -0.854,7.827 -0.854,11.855 0,45.647 37.004,82.664 82.65,82.664 C -37.005,82.664 0,45.647 0,0"
             style="fill:#a1263e;fill-opacity:1;fill-rule:nonzero;stroke:none"
             id="path20" />
        </g>
        <g
           id="g22"
           transform="translate(423.8032,342.9338)">
          <path
             d="M 0,0 H -20.839 V -3.269 H 3.227 V 0 0 14.819 h 17.927 v 2.217 21.91 H 18.966 V 17.036 L 0,17.036 Z"
             style="fill:#ffffff;fill-opacity:1;fill-rule:nonzero;stroke:none"
             id="path24" />
        </g>
        <g
           id="g26"
           transform="translate(387.1192,357.8211)">
          <path
             d="M 0,0 V 21.911 H 15.739 V 19.057 16.244 15.696 10.25 9.703 4.256 3.708 -2.286 L 48.545,29.138 18.484,6.338 48.545,35.132 18.484,12.332 48.545,41.126 18.484,18.326 48.545,47.12 18.966,24.685 v 14.261 h 17.389 v 3.27 H 15.738 v -3.27 h 0.001 V 24.127 H -2.188 V 21.911 L -2.188,0 Z"
             style="fill:#ffffff;fill-opacity:1;fill-rule:nonzero;stroke:none"
             id="path28" />
        </g>
        <g
           id="g30"
           transform="translate(415.6136,437.707)">
          <path
             d="m 0,0 -0.675,0.431 -81.797,-51.867 c 0.115,-0.941 0.268,-1.869 0.421,-2.798 l 10.324,6.538 v -34.91 c 0.804,-1.412 1.658,-2.785 2.55,-4.131 v 40.662 l 68.502,43.434 66.972,-42.454 v -43.891 c 0.892,1.255 1.733,2.523 2.549,3.818 v 38.452 l 11.868,-7.518 c 0.152,0.929 0.305,1.857 0.42,2.798 z"
             style="fill:#ffffff;fill-opacity:1;fill-rule:nonzero;stroke:none"
             id="path32" />
        </g>
        <g
           id="g34"
           transform="translate(489.5211,417.8165)">
          <path
             d="m 0,0 c -3.56,1.062 -7.14,2.06 -10.689,3.159 -4.56,1.413 -9.061,3.005 -13.429,4.938 -4.119,1.824 -8.157,3.768 -11.265,7.216 -1.236,1.372 -2.855,2.244 -4.739,2.5 -2.214,0.3 -4.192,-0.386 -6.077,-1.455 -0.704,-0.399 -1.33,-0.897 -2.24,-0.887 -0.573,0.007 -1.158,-0.304 -1.685,-0.802 0.179,-0.075 0.257,-0.132 0.339,-0.139 1.056,-0.095 1.864,-0.645 2.551,-1.399 1.598,-1.753 2.464,-3.895 3.084,-6.127 1.094,-3.945 3.132,-7.264 6.409,-9.728 3.602,-2.708 7.566,-3.667 11.896,-1.931 1.05,0.42 2.001,1.09 2.975,1.682 0.176,0.106 0.245,0.391 0.363,0.594 -0.226,0.097 -0.446,0.257 -0.679,0.277 -0.407,0.036 -0.821,-0.019 -1.233,-0.027 -4.738,-0.094 -8.633,1.597 -11.425,5.503 -0.687,0.961 -1.19,2.054 -1.764,3.095 -0.145,0.264 -0.073,0.571 0.211,0.643 0.191,0.049 0.445,-0.113 0.659,-0.208 0.068,-0.03 0.096,-0.151 0.141,-0.231 0.446,-0.798 0.84,-1.631 1.346,-2.389 1.617,-2.418 3.772,-4.151 6.605,-4.95 3.088,-0.87 6.164,-0.683 9.144,0.404 2.188,0.799 4.393,0.983 6.67,0.752 2.963,-0.299 5.841,-1.007 8.683,-1.863 1.481,-0.446 2.93,-0.848 4.33,0.207 0.266,0.2 0.807,0.249 0.694,0.647 C 0.807,-0.279 0.327,-0.098 0,0"
             style="fill:#ffffff;fill-opacity:1;fill-rule:nonzero;stroke:none"
             id="path36" />
        </g>
        <g
           id="g38"
           transform="translate(407.9199,449.0341)">
          <path
             d="m 0,0 c -0.9,-0.129 -1.587,0.283 -2.336,0.586 -2.008,0.814 -4.06,1.235 -6.215,0.648 -1.835,-0.499 -3.326,-1.576 -4.373,-3.097 -2.629,-3.825 -6.379,-6.281 -10.224,-8.627 -4.077,-2.489 -8.332,-4.655 -12.668,-6.652 -3.374,-1.554 -6.793,-3.011 -10.184,-4.529 -0.312,-0.14 -0.764,-0.383 -0.8,-0.629 -0.06,-0.41 0.484,-0.387 0.773,-0.551 1.525,-0.863 2.909,-0.275 4.32,0.361 2.705,1.22 5.467,2.298 8.365,2.982 2.227,0.526 4.437,0.632 6.711,0.127 3.097,-0.688 6.17,-0.472 9.118,0.795 2.705,1.162 4.614,3.162 5.901,5.77 0.403,0.818 0.685,1.695 1.022,2.545 0.035,0.085 0.046,0.208 0.11,0.247 0.199,0.123 0.43,0.317 0.626,0.293 0.291,-0.035 0.403,-0.329 0.293,-0.611 -0.432,-1.106 -0.788,-2.255 -1.344,-3.298 -2.258,-4.238 -5.898,-6.423 -10.607,-6.949 -0.409,-0.046 -0.827,-0.046 -1.226,-0.135 -0.228,-0.051 -0.426,-0.238 -0.637,-0.363 0.144,-0.186 0.248,-0.459 0.437,-0.542 1.043,-0.46 2.074,-0.999 3.169,-1.279 4.521,-1.154 8.325,0.315 11.542,3.47 2.927,2.871 4.513,6.428 5.083,10.483 0.322,2.293 0.9,4.53 2.255,6.477 0.583,0.837 1.313,1.489 2.347,1.72 0.081,0.018 0.15,0.085 0.318,0.183 C 1.188,-0.151 0.568,0.081 0,0"
             style="fill:#ffffff;fill-opacity:1;fill-rule:nonzero;stroke:none"
             id="path40" />
        </g>
        <g
           id="g42"
           transform="translate(339.863,203.3254)">
          <path
             d="m 0,0 h -3.8 l 1.894,4.425 z m -8.722,-5.58 h 2.651 l 1.589,3.588 H 0.659 L 2.26,-5.58 H 4.93 L -1.906,9.148 Z"
             style="fill:#a1263e;fill-opacity:1;fill-rule:nonzero;stroke:none"
             id="path44" />
        </g>
        <g
           id="g46"
           transform="translate(359.3818,197.048)">
          <path
             d="M 0,0 V 14.648 H -2.312 V 5.281 L -12.496,15.346 V 0.697 h 2.311 v 9.367 z"
             style="fill:#a1263e;fill-opacity:1;fill-rule:nonzero;stroke:none"
             id="path48" />
        </g>
        <path
           d="m 371.857,211.696 h -2.392 v -13.951 h 2.392 z"
           style="fill:#a1263e;fill-opacity:1;fill-rule:nonzero;stroke:none"
           id="path50" />
        <g
           id="g52"
           transform="translate(375.4448,212.3937)">
          <path
             d="m 0,0 v -14.648 h 2.312 v 9.367 l 10.184,-10.065 v 14.649 h -2.312 v -9.367 z"
             style="fill:#a1263e;fill-opacity:1;fill-rule:nonzero;stroke:none"
             id="path54" />
        </g>
        <path
           d="m 393.94,211.696 h -2.392 v -13.951 h 2.392 z"
           style="fill:#a1263e;fill-opacity:1;fill-rule:nonzero;stroke:none"
           id="path56" />
        <g
           id="g58"
           transform="translate(402.1709,197.7453)">
          <path
             d="m 0,0 v 11.778 h 3.687 v 2.173 h -9.726 v -2.173 h 3.687 L -2.352,0 Z"
             style="fill:#a1263e;fill-opacity:1;fill-rule:nonzero;stroke:none"
             id="path60" />
        </g>
        <path
           d="m 410.462,211.696 h -2.392 v -13.951 h 2.392 z"
           style="fill:#a1263e;fill-opacity:1;fill-rule:nonzero;stroke:none"
           id="path62" />
        <g
           id="g64"
           transform="translate(421.2761,203.3254)">
          <path
             d="m 0,0 h -3.8 l 1.894,4.425 z m -8.722,-5.58 h 2.651 l 1.589,3.588 h 5.141 l 1.6,-3.588 H 4.93 L -1.906,9.148 Z"
             style="fill:#a1263e;fill-opacity:1;fill-rule:nonzero;stroke:none"
             id="path66" />
        </g>
        <g
           id="g68"
           transform="translate(431.5479,197.7453)">
          <path
             d="m 0,0 v 11.778 h 3.688 v 2.173 h -9.727 v -2.173 h 3.687 V 0 Z"
             style="fill:#a1263e;fill-opacity:1;fill-rule:nonzero;stroke:none"
             id="path70" />
        </g>
        <path
           d="m 437.447,197.745 h 2.392 v 13.951 h -2.392 z"
           style="fill:#a1263e;fill-opacity:1;fill-rule:nonzero;stroke:none"
           id="path72" />
        <g
           id="g74"
           transform="translate(455.583,211.6965)">
          <path
             d="M 0,0 H -2.73 L -6.836,-9.806 -10.941,0 h -2.711 l 6.816,-14.729 z"
             style="fill:#a1263e;fill-opacity:1;fill-rule:nonzero;stroke:none"
             id="path76" />
        </g>
        <g
           id="g78"
           transform="translate(466.166,209.6232)">
          <path
             d="M 0,0 V 2.073 H -6.179 -7.035 -8.49 V -11.878 H -7.035 -6.179 0 v 2.072 h -6.179 v 4.385 h 5.781 v 2.033 H -6.179 V 0 Z"
             style="fill:#a1263e;fill-opacity:1;fill-rule:nonzero;stroke:none"
             id="path80" />
        </g>
        <g
           id="g82"
           transform="translate(480.0771,209.7629)">
          <path
             d="M 0,0 C 0.664,0 1.198,-0.159 1.604,-0.478 2.01,-0.797 2.212,-1.249 2.212,-1.833 2.212,-2.219 2.119,-2.548 1.933,-2.819 1.747,-3.093 1.487,-3.302 1.155,-3.447 0.823,-3.594 0.438,-3.667 0,-3.667 H -1.694 V 0 Z M 2.81,-6.756 C 2.942,-7.035 3.009,-7.367 3.009,-7.753 3.009,-8.271 2.89,-8.699 2.65,-9.038 2.411,-9.377 2.086,-9.633 1.674,-9.806 1.262,-9.979 0.79,-10.064 0.259,-10.064 H -1.694 V -5.5 h 1.953 c 0.398,0 0.763,-0.044 1.096,-0.13 0.332,-0.087 0.624,-0.226 0.877,-0.419 0.252,-0.192 0.445,-0.428 0.578,-0.707 m -6.856,-5.262 h 4.444 c 0.997,0 1.871,0.143 2.622,0.429 0.75,0.285 1.337,0.728 1.763,1.325 0.425,0.598 0.638,1.356 0.638,2.273 0,0.664 -0.133,1.235 -0.399,1.714 -0.266,0.477 -0.631,0.87 -1.096,1.175 -0.431,0.284 -0.929,0.494 -1.479,0.646 0.013,0.005 0.03,0.006 0.044,0.012 0.664,0.253 1.186,0.621 1.565,1.106 0.379,0.484 0.568,1.072 0.568,1.764 0,0.797 -0.189,1.455 -0.568,1.972 C 3.677,0.917 3.155,1.303 2.491,1.555 1.826,1.807 1.049,1.934 0.159,1.934 h -4.205 z"
             style="fill:#a1263e;fill-opacity:1;fill-rule:nonzero;stroke:none"
             id="path84" />
        </g>
        <g
           id="g86"
           transform="translate(493.5488,197.7453)">
          <path
             d="m 0,0 v 5.88 l 4.724,8.071 H 2.033 L -1.215,7.992 -4.444,13.951 H -7.135 L -2.392,5.859 V 0 Z"
             style="fill:#a1263e;fill-opacity:1;fill-rule:nonzero;stroke:none"
             id="path88" />
        </g>
        <g
           id="g90"
           transform="translate(334.001,171.1877)">
          <path
             d="m 0,0 c -0.206,-0.259 -0.482,-0.445 -0.827,-0.558 -0.346,-0.113 -0.737,-0.169 -1.176,-0.169 h -1.714 v 3.448 h 1.714 c 0.332,0 0.634,-0.03 0.907,-0.09 0.272,-0.06 0.514,-0.156 0.727,-0.289 C -0.156,2.209 0.01,2.036 0.129,1.824 0.249,1.611 0.309,1.358 0.309,1.066 0.309,0.615 0.206,0.26 0,0 m -2.322,8.002 c 0.571,0 1.02,-0.119 1.345,-0.358 0.326,-0.24 0.489,-0.598 0.489,-1.077 0,-0.319 -0.074,-0.588 -0.22,-0.807 C -0.854,5.541 -1.063,5.372 -1.335,5.252 -1.608,5.133 -1.937,5.072 -2.322,5.072 h -1.395 v 2.93 z M 2.083,3.628 C 1.73,3.849 1.34,4.013 0.932,4.152 1.511,4.413 1.989,4.757 2.352,5.192 2.783,5.71 3,6.335 3,7.065 3,7.863 2.783,8.523 2.352,9.049 1.92,9.573 1.335,9.966 0.598,10.225 -0.14,10.483 -0.994,10.613 -1.963,10.613 H -7.085 V -3.338 h 5.46 c 1.104,0 2.06,0.136 2.871,0.408 0.81,0.273 1.438,0.695 1.883,1.266 0.445,0.571 0.668,1.322 0.668,2.252 0,0.704 -0.157,1.306 -0.469,1.804 -0.312,0.499 -0.727,0.91 -1.245,1.236"
             style="fill:#a1263e;fill-opacity:1;fill-rule:nonzero;stroke:none"
             id="path92" />
        </g>
        <g
           id="g94"
           transform="translate(347.7438,173.1115)">
          <path
             d="m 0,0 h -3.103 l 1.547,3.567 z M -3.783,-2.571 H 0.666 L 1.972,-5.262 H 5.798 L -1.556,9.566 -8.89,-5.262 h 3.806 z"
             style="fill:#a1263e;fill-opacity:1;fill-rule:nonzero;stroke:none"
             id="path96" />
        </g>
        <g
           id="g98"
           transform="translate(365.1211,173.9484)">
          <path
             d="M 0,0 -9.626,8.55 V -6.099 h 3.229 v 7.853 l 9.646,-8.55 V 7.853 H 0 Z"
             style="fill:#a1263e;fill-opacity:1;fill-rule:nonzero;stroke:none"
             id="path100" />
        </g>
        <g
           id="g102"
           transform="translate(380.208,167.8498)">
          <path
             d="m 0,0 h 4.086 l -5.959,7.414 5.66,6.537 H -0.159 L -4.903,8.448 v 5.503 H -8.391 V 0 h 3.488 v 6.1 z"
             style="fill:#a1263e;fill-opacity:1;fill-rule:nonzero;stroke:none"
             id="path104" />
        </g>
        <g
           id="g106"
           transform="translate(395.5142,170.6203)">
          <path
             d="m 0,0 h -6.039 v 3.209 h 5.641 v 2.71 H -6.039 V 8.41 H 0 v 2.771 H -6.039 -7.035 -9.268 V -2.771 H -7.035 -6.039 0 Z"
             style="fill:#a1263e;fill-opacity:1;fill-rule:nonzero;stroke:none"
             id="path108" />
        </g>
        <g
           id="g110"
           transform="translate(403.606,178.9514)">
          <path
             d="M 0,0 C 0.452,0 0.84,-0.073 1.166,-0.22 1.491,-0.366 1.74,-0.575 1.913,-0.848 2.086,-1.12 2.172,-1.449 2.172,-1.834 2.172,-2.22 2.086,-2.549 1.913,-2.82 1.74,-3.093 1.491,-3.299 1.166,-3.438 0.84,-3.578 0.452,-3.647 0,-3.647 H -1.475 V 0 Z m -1.475,-6.259 h 1.017 l 3.009,-4.843 H 6.497 L 2.855,-5.83 c 0.126,0.049 0.256,0.093 0.374,0.149 0.797,0.386 1.401,0.92 1.813,1.605 0.412,0.684 0.618,1.472 0.618,2.361 0,0.903 -0.206,1.697 -0.618,2.382 C 4.63,1.352 4.026,1.886 3.229,2.271 2.432,2.657 1.435,2.85 0.239,2.85 H -1.475 -2.73 -4.843 v -13.952 h 3.368 z"
             style="fill:#a1263e;fill-opacity:1;fill-rule:nonzero;stroke:none"
             id="path112" />
        </g>
        <g
           id="g114"
           transform="translate(421.314,174.5666)">
          <path
             d="M 0,0 C -0.326,0.345 -0.701,0.641 -1.126,0.887 -1.552,1.132 -2.01,1.348 -2.501,1.534 -3.152,1.76 -3.707,1.973 -4.166,2.172 -4.624,2.371 -4.976,2.591 -5.222,2.83 -5.468,3.069 -5.59,3.348 -5.59,3.667 c 0,0.306 0.126,0.561 0.378,0.768 0.253,0.205 0.618,0.308 1.096,0.308 0.359,0 0.695,-0.07 1.007,-0.209 0.312,-0.139 0.598,-0.333 0.857,-0.578 0.259,-0.246 0.488,-0.535 0.688,-0.867 l 2.57,1.434 C 0.767,5.002 0.421,5.474 -0.03,5.938 -0.482,6.403 -1.05,6.789 -1.734,7.095 -2.418,7.4 -3.226,7.553 -4.155,7.553 -5.059,7.553 -5.879,7.396 -6.617,7.085 -7.354,6.772 -7.939,6.317 -8.371,5.72 -8.803,5.122 -9.019,4.411 -9.019,3.587 c 0,-0.691 0.126,-1.278 0.379,-1.764 0.252,-0.485 0.571,-0.896 0.957,-1.235 0.385,-0.339 0.794,-0.615 1.225,-0.827 0.432,-0.213 0.814,-0.379 1.146,-0.498 0.678,-0.253 1.223,-0.479 1.635,-0.678 0.411,-0.199 0.71,-0.409 0.897,-0.628 0.186,-0.22 0.279,-0.509 0.279,-0.867 0,-0.426 -0.16,-0.761 -0.478,-1.007 -0.319,-0.246 -0.725,-0.368 -1.216,-0.368 -0.466,0 -0.907,0.099 -1.326,0.299 -0.418,0.199 -0.804,0.484 -1.156,0.857 -0.352,0.371 -0.667,0.81 -0.947,1.315 l -2.351,-1.694 c 0.319,-0.665 0.764,-1.275 1.335,-1.834 0.571,-0.557 1.246,-1 2.023,-1.325 0.777,-0.325 1.617,-0.488 2.521,-0.488 0.651,0 1.286,0.096 1.904,0.289 0.617,0.192 1.169,0.474 1.654,0.846 0.485,0.373 0.87,0.834 1.156,1.386 0.285,0.551 0.428,1.179 0.428,1.883 0,0.585 -0.092,1.103 -0.279,1.555 C 0.581,-0.744 0.325,-0.346 0,0"
             style="fill:#a1263e;fill-opacity:1;fill-rule:nonzero;stroke:none"
             id="path116" />
        </g>
        <g
           id="g118"
           transform="translate(441.5723,168.0392)">
          <path
             d="m 0,0 c 0.917,0.418 1.681,0.999 2.292,1.744 0.61,0.743 1.062,1.601 1.355,2.57 0.292,0.97 0.405,2.014 0.339,3.129 H -3.069 V 4.853 H 0.638 C 0.518,4.494 0.355,4.158 0.149,3.847 -0.057,3.534 -0.306,3.262 -0.598,3.029 -0.891,2.797 -1.242,2.617 -1.654,2.491 -2.066,2.364 -2.524,2.302 -3.029,2.302 c -0.825,0 -1.552,0.182 -2.183,0.548 -0.631,0.365 -1.13,0.883 -1.495,1.554 -0.365,0.671 -0.548,1.465 -0.548,2.382 0,0.93 0.19,1.717 0.568,2.361 0.379,0.645 0.887,1.14 1.525,1.486 0.638,0.345 1.349,0.517 2.133,0.517 0.81,0 1.484,-0.182 2.022,-0.547 0.538,-0.366 0.967,-0.828 1.286,-1.385 l 2.99,1.554 c -0.439,0.651 -0.96,1.226 -1.565,1.724 -0.604,0.498 -1.299,0.887 -2.083,1.166 -0.784,0.279 -1.668,0.418 -2.65,0.418 -1.104,0 -2.126,-0.173 -3.07,-0.517 -0.943,-0.346 -1.767,-0.837 -2.471,-1.475 -0.704,-0.638 -1.249,-1.405 -1.634,-2.303 -0.386,-0.896 -0.578,-1.896 -0.578,-2.999 0,-1.103 0.189,-2.109 0.568,-3.019 0.378,-0.911 0.906,-1.695 1.584,-2.352 0.678,-0.658 1.482,-1.163 2.411,-1.515 0.931,-0.351 1.953,-0.528 3.07,-0.528 1.182,0 2.232,0.209 3.149,0.628"
             style="fill:#a1263e;fill-opacity:1;fill-rule:nonzero;stroke:none"
             id="path120" />
        </g>
        <g
           id="g122"
           transform="translate(451.6768,178.9514)">
          <path
             d="M 0,0 H 1.475 C 1.927,0 2.315,-0.073 2.641,-0.22 2.967,-0.366 3.216,-0.575 3.389,-0.848 3.561,-1.12 3.647,-1.449 3.647,-1.834 3.647,-2.22 3.561,-2.549 3.389,-2.82 3.216,-3.093 2.967,-3.299 2.641,-3.438 2.315,-3.578 1.927,-3.647 1.475,-3.647 H 0 Z m 6.518,-4.076 c 0.411,0.684 0.617,1.472 0.617,2.361 0,0.903 -0.206,1.697 -0.617,2.382 C 6.105,1.352 5.501,1.886 4.704,2.271 3.906,2.657 2.91,2.85 1.714,2.85 H 0 -1.255 -3.368 V -11.102 H 0 v 4.843 h 1.016 l 3.01,-4.843 H 7.973 L 4.33,-5.83 c 0.126,0.049 0.257,0.093 0.374,0.149 0.797,0.386 1.401,0.92 1.814,1.605"
             style="fill:#a1263e;fill-opacity:1;fill-rule:nonzero;stroke:none"
             id="path124" />
        </g>
        <g
           id="g126"
           transform="translate(464.96,172.6428)">
          <path
             d="m 0,0 c -0.326,0.631 -0.488,1.358 -0.488,2.183 0,0.823 0.162,1.55 0.488,2.182 0.325,0.631 0.784,1.126 1.375,1.485 0.591,0.358 1.286,0.538 2.083,0.538 0.811,0 1.508,-0.18 2.093,-0.538 C 6.135,5.491 6.587,4.996 6.906,4.365 7.225,3.733 7.384,3.006 7.384,2.183 7.384,1.358 7.222,0.631 6.896,0 6.57,-0.631 6.111,-1.126 5.521,-1.484 4.93,-1.844 4.242,-2.022 3.458,-2.022 2.661,-2.022 1.966,-1.844 1.375,-1.484 0.784,-1.126 0.325,-0.631 0,0 m 6.468,-4.684 c 0.916,0.366 1.71,0.88 2.381,1.545 0.671,0.664 1.189,1.449 1.554,2.352 0.366,0.903 0.548,1.893 0.548,2.97 0,1.076 -0.185,2.059 -0.557,2.949 C 10.021,6.022 9.497,6.793 8.819,7.444 8.142,8.095 7.348,8.597 6.437,8.949 5.527,9.301 4.534,9.477 3.458,9.477 2.395,9.477 1.405,9.301 0.488,8.949 -0.429,8.597 -1.226,8.095 -1.903,7.444 -2.581,6.793 -3.109,6.022 -3.487,5.132 -3.866,4.242 -4.056,3.259 -4.056,2.183 c 0,-1.077 0.183,-2.067 0.548,-2.97 0.365,-0.903 0.884,-1.688 1.555,-2.352 0.671,-0.665 1.465,-1.179 2.382,-1.545 0.917,-0.365 1.925,-0.547 3.029,-0.547 1.089,0 2.093,0.182 3.01,0.547"
             style="fill:#a1263e;fill-opacity:1;fill-rule:nonzero;stroke:none"
             id="path128" />
        </g>
        <g
           id="g130"
           transform="translate(486.3154,172.673)">
          <path
             d="m 0,0 c 0,-0.704 -0.187,-1.275 -0.558,-1.714 -0.372,-0.438 -0.937,-0.658 -1.694,-0.658 -0.744,0 -1.303,0.22 -1.674,0.658 -0.372,0.439 -0.558,1.01 -0.558,1.714 v 9.128 h -3.369 v -9.367 c 0,-0.877 0.143,-1.642 0.429,-2.292 0.285,-0.652 0.685,-1.186 1.195,-1.605 0.512,-0.418 1.107,-0.734 1.785,-0.946 0.677,-0.213 1.408,-0.319 2.192,-0.319 0.784,0 1.518,0.106 2.202,0.319 0.685,0.212 1.282,0.528 1.794,0.946 0.511,0.419 0.91,0.953 1.195,1.605 0.287,0.65 0.429,1.415 0.429,2.292 V 9.128 H 0 Z"
             style="fill:#a1263e;fill-opacity:1;fill-rule:nonzero;stroke:none"
             id="path132" />
        </g>
        <g
           id="g134"
           transform="translate(499.4687,175.9211)">
          <path
             d="m 0,0 c -0.386,-0.306 -0.917,-0.458 -1.595,-0.458 h -1.474 v 3.567 h 1.474 C -0.917,3.109 -0.386,2.957 0,2.651 0.386,2.346 0.578,1.9 0.578,1.315 0.578,0.744 0.386,0.306 0,0 M 1.386,5.332 C 0.581,5.697 -0.412,5.88 -1.595,5.88 H -3.069 -4.324 -6.437 V -8.071 h 3.368 v 4.842 h 1.474 c 1.183,0 2.176,0.183 2.981,0.548 0.803,0.367 1.411,0.891 1.823,1.576 0.411,0.683 0.618,1.491 0.618,2.42 0,0.957 -0.207,1.775 -0.618,2.453 -0.412,0.677 -1.02,1.198 -1.823,1.564"
             style="fill:#a1263e;fill-opacity:1;fill-rule:nonzero;stroke:none"
             id="path136" />
        </g>
        <g
           id="g138"
           transform="translate(351.8682,142.7482)">
          <path
             d="m 0,0 c -0.326,-0.631 -0.784,-1.126 -1.375,-1.484 -0.592,-0.36 -1.279,-0.538 -2.063,-0.538 -0.797,0 -1.492,0.178 -2.083,0.538 -0.591,0.358 -1.05,0.853 -1.375,1.484 -0.326,0.631 -0.488,1.358 -0.488,2.183 0,0.823 0.162,1.55 0.488,2.182 0.325,0.631 0.784,1.126 1.375,1.485 0.591,0.358 1.286,0.538 2.083,0.538 0.81,0 1.508,-0.18 2.093,-0.538 C -0.761,5.491 -0.309,4.996 0.01,4.365 0.329,3.733 0.488,3.006 0.488,2.183 0.488,1.358 0.325,0.631 0,0 m 1.923,7.444 c -0.677,0.651 -1.472,1.153 -2.381,1.505 -0.911,0.352 -1.904,0.528 -2.98,0.528 -1.063,0 -2.053,-0.176 -2.97,-0.528 -0.917,-0.352 -1.714,-0.854 -2.391,-1.505 -0.678,-0.651 -1.206,-1.422 -1.585,-2.312 -0.378,-0.89 -0.568,-1.873 -0.568,-2.949 0,-1.077 0.183,-2.067 0.548,-2.97 0.365,-0.903 0.884,-1.688 1.555,-2.352 0.671,-0.665 1.465,-1.179 2.382,-1.545 0.916,-0.365 1.926,-0.547 3.029,-0.547 1.089,0 2.093,0.182 3.009,0.547 0.917,0.366 1.711,0.88 2.382,1.545 0.671,0.664 1.189,1.449 1.554,2.352 0.366,0.903 0.549,1.893 0.549,2.97 0,1.076 -0.186,2.059 -0.558,2.949 -0.373,0.89 -0.897,1.661 -1.575,2.312"
             style="fill:#a1263e;fill-opacity:1;fill-rule:nonzero;stroke:none"
             id="path140" />
        </g>
        <g
           id="g142"
           transform="translate(360.8066,151.9064)">
          <path
             d="m 0,0 h -2.232 v -13.951 h 3.229 v 5.6 h 5.042 v 2.71 H 0.997 V -2.89 H 6.238 V 0 L 0.997,0 Z"
             style="fill:#a1263e;fill-opacity:1;fill-rule:nonzero;stroke:none"
             id="path144" />
        </g>
        <g
           id="g146"
           transform="translate(385.938,146.8244)">
          <path
             d="M 0,0 H -5.999 V 5.082 H -9.367 V -8.869 h 3.368 v 5.84 H 0 v -5.84 H 3.368 V 5.082 L 0,5.082 Z"
             style="fill:#a1263e;fill-opacity:1;fill-rule:nonzero;stroke:none"
             id="path148" />
        </g>
        <g
           id="g150"
           transform="translate(402.8887,142.7482)">
          <path
             d="m 0,0 c -0.326,-0.631 -0.784,-1.126 -1.375,-1.484 -0.592,-0.36 -1.279,-0.538 -2.063,-0.538 -0.797,0 -1.492,0.178 -2.083,0.538 -0.591,0.358 -1.05,0.853 -1.375,1.484 -0.326,0.631 -0.488,1.358 -0.488,2.183 0,0.823 0.162,1.55 0.488,2.182 0.325,0.631 0.784,1.126 1.375,1.485 0.591,0.358 1.286,0.538 2.083,0.538 0.81,0 1.508,-0.18 2.093,-0.538 C -0.761,5.491 -0.309,4.996 0.01,4.365 0.329,3.733 0.488,3.006 0.488,2.183 0.488,1.358 0.325,0.631 0,0 m 1.923,7.444 c -0.677,0.651 -1.472,1.153 -2.381,1.505 -0.911,0.352 -1.904,0.528 -2.98,0.528 -1.063,0 -2.053,-0.176 -2.97,-0.528 -0.917,-0.352 -1.714,-0.854 -2.391,-1.505 -0.678,-0.651 -1.206,-1.422 -1.585,-2.312 -0.378,-0.89 -0.568,-1.873 -0.568,-2.949 0,-1.077 0.183,-2.067 0.548,-2.97 0.365,-0.903 0.884,-1.688 1.555,-2.352 0.671,-0.665 1.465,-1.179 2.382,-1.545 0.916,-0.365 1.926,-0.547 3.029,-0.547 1.089,0 2.093,0.182 3.009,0.547 0.917,0.366 1.711,0.88 2.382,1.545 0.671,0.664 1.189,1.449 1.554,2.352 0.366,0.903 0.549,1.893 0.549,2.97 0,1.076 -0.186,2.059 -0.558,2.949 -0.373,0.89 -0.897,1.661 -1.575,2.312"
             style="fill:#a1263e;fill-opacity:1;fill-rule:nonzero;stroke:none"
             id="path152" />
        </g>
        <g
           id="g154"
           transform="translate(418.7529,144.6721)">
          <path
             d="M 0,0 C -0.326,0.345 -0.701,0.641 -1.126,0.887 -1.552,1.132 -2.01,1.348 -2.501,1.534 -3.152,1.76 -3.707,1.973 -4.166,2.172 -4.624,2.371 -4.976,2.591 -5.222,2.83 -5.468,3.069 -5.59,3.348 -5.59,3.667 c 0,0.306 0.126,0.561 0.378,0.768 0.253,0.205 0.618,0.308 1.096,0.308 0.359,0 0.695,-0.07 1.007,-0.209 0.312,-0.139 0.598,-0.333 0.857,-0.578 0.259,-0.246 0.488,-0.535 0.688,-0.867 l 2.57,1.434 C 0.767,5.002 0.421,5.474 -0.03,5.938 -0.482,6.403 -1.05,6.789 -1.734,7.095 -2.418,7.4 -3.226,7.553 -4.155,7.553 -5.059,7.553 -5.879,7.396 -6.617,7.085 -7.354,6.772 -7.939,6.317 -8.371,5.72 -8.803,5.122 -9.019,4.411 -9.019,3.587 c 0,-0.691 0.126,-1.278 0.379,-1.764 0.252,-0.485 0.571,-0.896 0.957,-1.235 0.385,-0.339 0.794,-0.615 1.225,-0.827 0.432,-0.213 0.814,-0.379 1.146,-0.498 0.678,-0.253 1.223,-0.479 1.635,-0.678 0.411,-0.199 0.71,-0.409 0.897,-0.628 0.186,-0.22 0.279,-0.509 0.279,-0.867 0,-0.426 -0.16,-0.761 -0.478,-1.007 -0.319,-0.246 -0.725,-0.368 -1.216,-0.368 -0.466,0 -0.907,0.099 -1.326,0.299 -0.418,0.199 -0.804,0.484 -1.156,0.857 -0.352,0.371 -0.667,0.81 -0.947,1.315 l -2.351,-1.694 c 0.319,-0.665 0.764,-1.275 1.335,-1.834 0.571,-0.557 1.246,-1 2.023,-1.325 0.777,-0.325 1.617,-0.488 2.521,-0.488 0.651,0 1.286,0.096 1.904,0.289 0.617,0.192 1.169,0.474 1.654,0.846 0.485,0.373 0.87,0.834 1.156,1.386 0.285,0.551 0.428,1.179 0.428,1.883 0,0.585 -0.093,1.103 -0.279,1.555 C 0.581,-0.744 0.325,-0.346 0,0"
             style="fill:#a1263e;fill-opacity:1;fill-rule:nonzero;stroke:none"
             id="path156" />
        </g>
        <g
           id="g158"
           transform="translate(428.9873,146.0266)">
          <path
             d="m 0,0 c -0.386,-0.306 -0.917,-0.458 -1.595,-0.458 h -1.474 v 3.567 h 1.474 C -0.917,3.109 -0.386,2.957 0,2.651 0.386,2.346 0.578,1.9 0.578,1.315 0.578,0.744 0.386,0.306 0,0 M 1.386,5.332 C 0.581,5.697 -0.412,5.88 -1.595,5.88 H -3.069 -4.324 -6.437 V -8.071 h 3.368 v 4.842 h 1.474 c 1.183,0 2.176,0.183 2.981,0.548 0.803,0.367 1.411,0.891 1.823,1.576 0.411,0.683 0.618,1.491 0.618,2.42 0,0.957 -0.207,1.775 -0.618,2.453 -0.412,0.677 -1.02,1.198 -1.823,1.564"
             style="fill:#a1263e;fill-opacity:1;fill-rule:nonzero;stroke:none"
             id="path160" />
        </g>
        <path
           d="m 435.464,137.955 h 3.428 v 13.951 h -3.428 z"
           style="fill:#a1263e;fill-opacity:1;fill-rule:nonzero;stroke:none"
           id="path162" />
        <g
           id="g164"
           transform="translate(451.9863,151.9064)">
          <path
             d="m 0,0 h -11.041 v -3.01 h 3.826 v -10.941 h 3.368 V -3.01 H 0 Z"
             style="fill:#a1263e;fill-opacity:1;fill-rule:nonzero;stroke:none"
             id="path166" />
        </g>
        <g
           id="g168"
           transform="translate(459.4206,143.217)">
          <path
             d="m 0,0 h -3.102 l 1.547,3.567 z m -8.889,-5.262 h 3.806 l 1.3,2.691 H 0.666 L 1.972,-5.262 H 5.799 L -1.555,9.566 Z"
             style="fill:#a1263e;fill-opacity:1;fill-rule:nonzero;stroke:none"
             id="path170" />
        </g>
        <g
           id="g172"
           transform="translate(470.541,151.9064)">
          <path
             d="m 0,0 h -3.368 v -13.951 h 8.969 v 2.889 H 0 Z"
             style="fill:#a1263e;fill-opacity:1;fill-rule:nonzero;stroke:none"
             id="path174" />
        </g>
        <g
           id="g176"
           transform="translate(487.3516,144.6721)">
          <path
             d="M 0,0 C -0.326,0.345 -0.701,0.641 -1.126,0.887 -1.552,1.132 -2.01,1.348 -2.501,1.534 -3.152,1.76 -3.707,1.973 -4.165,2.172 -4.624,2.371 -4.977,2.591 -5.222,2.83 c -0.246,0.239 -0.369,0.518 -0.369,0.837 0,0.306 0.126,0.561 0.379,0.768 0.252,0.205 0.618,0.308 1.097,0.308 0.358,0 0.693,-0.07 1.006,-0.209 0.312,-0.139 0.597,-0.333 0.857,-0.578 0.259,-0.246 0.488,-0.535 0.688,-0.867 L 1.007,4.523 C 0.768,5.002 0.422,5.474 -0.03,5.938 -0.481,6.403 -1.05,6.789 -1.734,7.095 -2.419,7.4 -3.226,7.553 -4.155,7.553 -5.06,7.553 -5.88,7.396 -6.617,7.085 -7.354,6.772 -7.939,6.317 -8.371,5.72 -8.803,5.122 -9.019,4.411 -9.019,3.587 c 0,-0.691 0.126,-1.278 0.379,-1.764 0.252,-0.485 0.572,-0.896 0.956,-1.235 0.386,-0.339 0.794,-0.615 1.227,-0.827 0.432,-0.213 0.813,-0.379 1.145,-0.498 0.678,-0.253 1.223,-0.479 1.635,-0.678 0.411,-0.199 0.71,-0.409 0.897,-0.628 0.185,-0.22 0.279,-0.509 0.279,-0.867 0,-0.426 -0.16,-0.761 -0.478,-1.007 -0.32,-0.246 -0.725,-0.368 -1.216,-0.368 -0.465,0 -0.908,0.099 -1.326,0.299 -0.418,0.199 -0.804,0.484 -1.156,0.857 -0.352,0.371 -0.668,0.81 -0.946,1.315 l -2.353,-1.694 c 0.32,-0.665 0.765,-1.275 1.336,-1.834 0.572,-0.557 1.245,-1 2.023,-1.325 0.777,-0.325 1.618,-0.488 2.521,-0.488 0.651,0 1.285,0.096 1.904,0.289 0.618,0.192 1.169,0.474 1.654,0.846 0.484,0.373 0.87,0.834 1.156,1.386 0.285,0.551 0.428,1.179 0.428,1.883 0,0.585 -0.093,1.103 -0.278,1.555 C 0.581,-0.744 0.325,-0.346 0,0"
             style="fill:#a1263e;fill-opacity:1;fill-rule:nonzero;stroke:none"
             id="path178" />
        </g>
        <g
           id="g180"
           transform="translate(334.2314,249.5978)">
          <path
             d="m 0,0 c 1.348,0.42 2.551,1.036 3.609,1.849 1.058,0.81 1.899,1.818 2.523,3.022 0.623,1.202 0.935,2.572 0.935,4.109 0,1.276 -0.203,2.407 -0.609,3.392 -0.406,0.985 -0.964,1.856 -1.674,2.609 -0.711,0.754 -1.53,1.399 -2.457,1.936 -0.929,0.536 -1.929,1.007 -3.001,1.413 -1.421,0.493 -2.631,0.957 -3.631,1.392 -1.001,0.435 -1.769,0.914 -2.305,1.435 -0.537,0.522 -0.805,1.131 -0.805,1.826 0,0.667 0.275,1.225 0.827,1.675 0.55,0.449 1.348,0.674 2.391,0.674 0.783,0 1.515,-0.152 2.197,-0.456 0.68,-0.305 1.304,-0.726 1.87,-1.262 0.565,-0.537 1.065,-1.167 1.5,-1.891 l 5.61,3.131 C 6.458,25.897 5.704,26.927 4.719,27.941 3.732,28.956 2.493,29.797 1,30.464 c -1.493,0.667 -3.254,1 -5.284,1 -1.971,0 -3.761,-0.341 -5.37,-1.022 -1.61,-0.681 -2.886,-1.674 -3.827,-2.979 -0.943,-1.305 -1.414,-2.856 -1.414,-4.653 0,-1.508 0.275,-2.79 0.826,-3.849 0.551,-1.059 1.247,-1.957 2.088,-2.696 0.84,-0.74 1.732,-1.341 2.674,-1.805 0.942,-0.464 1.776,-0.826 2.501,-1.087 1.479,-0.552 2.667,-1.044 3.566,-1.478 0.898,-0.436 1.551,-0.892 1.957,-1.371 0.406,-0.478 0.609,-1.109 0.609,-1.891 0,-0.929 -0.348,-1.66 -1.044,-2.196 -0.696,-0.538 -1.58,-0.805 -2.653,-0.805 -1.015,0 -1.978,0.218 -2.892,0.652 -0.913,0.435 -1.754,1.058 -2.522,1.87 -0.769,0.812 -1.457,1.768 -2.066,2.87 l -5.131,-3.696 c 0.695,-1.45 1.667,-2.783 2.913,-4.001 1.247,-1.218 2.718,-2.182 4.415,-2.892 1.696,-0.71 3.529,-1.066 5.501,-1.066 1.42,0 2.805,0.211 4.153,0.631"
             style="fill:#a1263e;fill-opacity:1;fill-rule:nonzero;stroke:none"
             id="path182" />
        </g>
        <g
           id="g184"
           transform="translate(392.3975,280.3664)">
          <path
             d="M 0,0 H -8.741 L -14.656,-17.353 -23.005,1.521 -31.269,-17.353 -37.27,0 h -8.698 l 13.177,-32.226 9.786,18.353 9.828,-18.353 z"
             style="fill:#a1263e;fill-opacity:1;fill-rule:nonzero;stroke:none"
             id="path186" />
        </g>
        <g
           id="g188"
           transform="translate(410.8395,261.4055)">
          <path
             d="m 0,0 h -6.77 l 3.375,7.784 z m -11.092,-11.481 2.837,5.871 h 9.707 l 2.851,-5.871 h 8.35 L -3.395,20.874 -19.399,-11.481 Z"
             style="fill:#a1263e;fill-opacity:1;fill-rule:nonzero;stroke:none"
             id="path190" />
        </g>
        <g
           id="g192"
           transform="translate(421.7524,240.8566)">
          <path
             d="m 0,0 c 0.841,-0.362 1.783,-0.674 2.827,-0.935 1.044,-0.261 2.131,-0.391 3.261,-0.391 1.333,0 2.61,0.152 3.828,0.456 1.217,0.305 2.29,0.768 3.217,1.391 0.928,0.625 1.653,1.451 2.175,2.48 C 15.83,4.03 16.09,5.27 16.09,6.719 V 39.51 H 8.175 V 8.371 C 8.175,7.096 7.872,6.19 7.262,5.653 6.654,5.117 6.015,4.849 5.349,4.849 c -0.638,0 -1.275,0.145 -1.914,0.435 -0.637,0.29 -1.174,0.623 -1.608,1 L -2.175,1.152 C -1.566,0.747 -0.841,0.363 0,0"
             style="fill:#a1263e;fill-opacity:1;fill-rule:nonzero;stroke:none"
             id="path194" />
        </g>
        <g
           id="g196"
           transform="translate(463.6772,261.4055)">
          <path
             d="m 0,0 h -6.77 l 3.375,7.784 z m -8.255,-5.61 h 9.707 l 2.851,-5.871 h 8.35 L -3.395,20.874 -19.399,-11.481 h 8.307 z"
             style="fill:#a1263e;fill-opacity:1;fill-rule:nonzero;stroke:none"
             id="path198" />
        </g>
        <g
           id="g200"
           transform="translate(503.7705,280.3664)">
          <path
             d="M 0,0 V -17.135 L -21.006,1.521 v -31.963 h 7.046 v 17.134 L 7.088,-31.965 V 0 Z"
             style="fill:#a1263e;fill-opacity:1;fill-rule:nonzero;stroke:none"
             id="path202" />
        </g>
      </g>
    </g>
  </g>
</svg>
