<svg xmlns="http://www.w3.org/2000/svg" viewBox="100.02653465346533 74.60792690000001 536.650297029703 263.50884820000005" id="svg2" version="1.1" style="max-height: 500px" width="536.650297029703" height="263.50884820000005">
  <defs id="defs6">
    <clipPath id="clipPath16" clipPathUnits="userSpaceOnUse">
      <path id="path14" d="M 0,595.276 H 841.89 V 0 H 0 Z"/>
    </clipPath>
  </defs>
  <g transform="matrix(1.3333333,0,0,-1.3333333,0,793.70133)" id="g8">
    <g id="g10">
      <g clip-path="url(#clipPath16)" id="g12">
        <g transform="translate(264.8152,424.8378)" id="g18">
          <path id="path20" style="fill:#a1263e;fill-opacity:1;fill-rule:nonzero;stroke:none" d="m 0,0 -13.25,8.4 v -42.92 c -0.91,-1.45 -1.85,-2.87 -2.85,-4.26 V 10.2 L -90.84,57.59 -167.3,9.1 v -45.37 c -0.99,1.49 -1.95,3.03 -2.84,4.6 V 7.3 L -181.66,0 c -0.18,1.04 -0.35,2.07 -0.47,3.12 l 91.29,57.9 0.75,-0.49 L 0.46,3.12 C 0.34,2.07 0.17,1.04 0,0 m -57.34,-28.7 h -20 v -20.19 h -26.86 v 3.65 h 23.25 v 19.01 h 21.17 v 24.45 h 2.44 z m -64.54,24.53 v -24.46 h -2.45 V -1.7 h 20 v 20.19 h 23.02 v -3.65 h -19.41 V -1.07 l 33.01,25.03 -33.54,-32.13 33.54,25.44 -33.54,-32.13 33.54,25.44 -33.54,-32.13 33.54,25.44 -36.62,-35.07 v 27.01 z m -28.13,53.16 c 3.78,1.69 7.59,3.32 11.37,5.05 4.84,2.23 9.58,4.65 14.14,7.43 4.28,2.62 8.47,5.36 11.4,9.62 1.17,1.7 2.84,2.91 4.88,3.47 2.41,0.65 4.7,0.18 6.94,-0.73 0.83,-0.34 1.6,-0.8 2.61,-0.65 0.63,0.09 1.32,-0.17 1.97,-0.64 -0.18,-0.11 -0.26,-0.19 -0.35,-0.21 -1.15,-0.26 -1.97,-0.98 -2.62,-1.92 -1.51,-2.17 -2.16,-4.67 -2.51,-7.23 -0.64,-4.52 -2.41,-8.49 -5.67,-11.7 -3.59,-3.52 -7.84,-5.16 -12.88,-3.87 -1.23,0.31 -2.38,0.91 -3.55,1.42 -0.21,0.1 -0.32,0.4 -0.48,0.61 0.24,0.14 0.46,0.35 0.71,0.41 0.44,0.1 0.91,0.1 1.37,0.14 5.25,0.59 9.32,3.03 11.84,7.76 0.61,1.16 1.01,2.45 1.49,3.68 0.13,0.32 0,0.65 -0.32,0.68 -0.22,0.03 -0.48,-0.19 -0.7,-0.32 -0.07,-0.04 -0.08,-0.19 -0.12,-0.28 -0.38,-0.95 -0.69,-1.93 -1.14,-2.83 -1.44,-2.92 -3.57,-5.15 -6.59,-6.45 -3.29,-1.41 -6.72,-1.66 -10.17,-0.89 -2.54,0.56 -5.02,0.45 -7.5,-0.13 -3.23,-0.77 -6.32,-1.97 -9.34,-3.34 -1.56,-0.71 -3.11,-1.36 -4.82,-0.4 -0.31,0.18 -0.92,0.16 -0.86,0.62 0.05,0.27 0.55,0.54 0.9,0.7 m 88.35,6.61 c 1.01,-0.01 1.71,0.55 2.5,0.99 2.1,1.2 4.31,1.96 6.78,1.62 2.1,-0.28 3.92,-1.26 5.29,-2.79 3.47,-3.84 7.98,-6.02 12.58,-8.05 4.87,-2.15 9.89,-3.93 14.98,-5.51 3.96,-1.23 7.96,-2.35 11.94,-3.52 0.36,-0.11 0.89,-0.32 0.97,-0.58 0.12,-0.45 -0.47,-0.5 -0.77,-0.73 -1.56,-1.18 -3.19,-0.72 -4.84,-0.23 -3.17,0.96 -6.39,1.74 -9.69,2.08 -2.54,0.25 -5,0.05 -7.45,-0.84 -3.32,-1.21 -6.75,-1.42 -10.2,-0.45 -3.17,0.89 -5.57,2.82 -7.37,5.52 -0.56,0.85 -1.01,1.78 -1.51,2.67 -0.04,0.09 -0.08,0.22 -0.15,0.26 -0.24,0.11 -0.53,0.28 -0.73,0.23 -0.32,-0.08 -0.4,-0.42 -0.24,-0.72 0.63,-1.16 1.2,-2.38 1.97,-3.45 3.12,-4.36 7.46,-6.25 12.75,-6.14 0.45,0.01 0.92,0.07 1.38,0.03 0.25,-0.03 0.5,-0.2 0.75,-0.31 -0.13,-0.23 -0.21,-0.54 -0.4,-0.66 -1.09,-0.66 -2.16,-1.42 -3.32,-1.89 -4.84,-1.93 -9.26,-0.86 -13.28,2.16 -3.66,2.76 -5.93,6.45 -7.16,10.86 -0.68,2.49 -1.65,4.89 -3.43,6.84 -0.77,0.84 -1.68,1.45 -2.86,1.56 -0.09,0.01 -0.17,0.07 -0.37,0.16 0.59,0.55 1.24,0.9 1.88,0.89 m -29.18,51.72 c -50.95,0 -92.25,-41.32 -92.25,-92.27 0,-4.5 0.33,-8.9 0.96,-13.22 0.12,-1.03 0.29,-2.04 0.47,-3.05 1.99,-11.11 5.94,-21.53 11.52,-30.87 0.89,-1.54 1.85,-3.04 2.84,-4.5 16.59,-24.52 44.64,-40.62 76.46,-40.62 30.76,0 57.98,15.04 74.74,38.17 1,1.36 1.94,2.75 2.85,4.16 6.49,10.06 11.07,21.43 13.25,33.66 0.17,1.01 0.34,2.02 0.46,3.05 0.64,4.32 0.97,8.72 0.97,13.22 0,50.95 -41.31,92.27 -92.27,92.27"/>
        </g>
        <g transform="translate(298.1171,425.7061)" id="g22">
          <path id="path24" style="fill:#a1263e;fill-opacity:1;fill-rule:nonzero;stroke:none" d="m 0,0 h -3.445 l 1.717,4.011 z m -4.063,-1.806 h 4.66 l 1.45,-3.252 h 2.421 l -6.196,13.35 -6.178,-13.35 h 2.402 z"/>
        </g>
        <g transform="translate(313.714,424.8032)" id="g26">
          <path id="path28" style="fill:#a1263e;fill-opacity:1;fill-rule:nonzero;stroke:none" d="M 0,0 -9.232,9.123 V -4.155 h 2.096 V 4.336 L 2.095,-4.787 V 8.491 H 0 Z"/>
        </g>
        <path id="path30" style="fill:#a1263e;fill-opacity:1;fill-rule:nonzero;stroke:none" d="m 327.117,433.294 h -2.168 v -12.646 h 2.168 z"/>
        <g transform="translate(330.3695,433.9258)" id="g32">
          <path id="path34" style="fill:#a1263e;fill-opacity:1;fill-rule:nonzero;stroke:none" d="m 0,0 v -13.278 h 2.095 v 8.491 l 9.232,-9.123 V -0.632 H 9.232 v -8.491 z"/>
        </g>
        <path id="path36" style="fill:#a1263e;fill-opacity:1;fill-rule:nonzero;stroke:none" d="m 347.133,433.294 h -2.168 v -12.646 h 2.168 z"/>
        <g transform="translate(354.5943,431.3243)" id="g38">
          <path id="path40" style="fill:#a1263e;fill-opacity:1;fill-rule:nonzero;stroke:none" d="M 0,0 H 3.342 V 1.97 H -5.474 V 0 h 3.342 V -10.676 H 0 Z"/>
        </g>
        <path id="path42" style="fill:#a1263e;fill-opacity:1;fill-rule:nonzero;stroke:none" d="m 362.109,433.294 h -2.168 v -12.646 h 2.168 z"/>
        <g transform="translate(371.912,425.7061)" id="g44">
          <path id="path46" style="fill:#a1263e;fill-opacity:1;fill-rule:nonzero;stroke:none" d="m 0,0 h -3.445 l 1.717,4.011 z m -5.503,-5.058 1.44,3.252 h 4.66 l 1.45,-3.252 h 2.421 l -6.196,13.35 -6.178,-13.35 z"/>
        </g>
        <g transform="translate(384.5647,433.2938)" id="g48">
          <path id="path50" style="fill:#a1263e;fill-opacity:1;fill-rule:nonzero;stroke:none" d="m 0,0 h -8.816 v -1.97 h 3.342 v -10.676 h 2.132 V -1.97 l 3.342,0 z"/>
        </g>
        <path id="path52" style="fill:#a1263e;fill-opacity:1;fill-rule:nonzero;stroke:none" d="m 388.737,433.294 h -2.168 v -12.646 h 2.168 z"/>
        <g transform="translate(400.5334,433.2938)" id="g54">
          <path id="path56" style="fill:#a1263e;fill-opacity:1;fill-rule:nonzero;stroke:none" d="M 0,0 -3.721,-8.888 -7.443,0 H -9.9 L -3.721,-13.35 2.475,0 Z"/>
        </g>
        <g transform="translate(407.0005,420.6481)" id="g58">
          <path id="path60" style="fill:#a1263e;fill-opacity:1;fill-rule:nonzero;stroke:none" d="M 0,0 H 5.601 V 1.878 H 0 V 5.853 H 5.239 V 7.696 H 0 v 3.07 h 5.601 v 1.88 H 0 -0.776 -2.095 L -2.095,0 h 1.319 z"/>
        </g>
        <g transform="translate(427.6128,423.3488)" id="g62">
          <path id="path64" style="fill:#a1263e;fill-opacity:1;fill-rule:nonzero;stroke:none" d="M 0,0 C -0.217,-0.307 -0.512,-0.539 -0.885,-0.696 -1.259,-0.852 -1.686,-0.93 -2.168,-0.93 h -1.77 v 4.137 h 1.77 c 0.361,0 0.692,-0.04 0.994,-0.118 C -0.874,3.01 -0.608,2.884 -0.379,2.71 -0.15,2.535 0.024,2.322 0.144,2.069 0.265,1.816 0.325,1.515 0.325,1.165 0.325,0.696 0.217,0.307 0,0 m -2.402,8.192 c 0.602,0 1.086,-0.144 1.454,-0.433 0.367,-0.289 0.551,-0.699 0.551,-1.228 0,-0.35 -0.085,-0.648 -0.254,-0.894 C -0.819,5.389 -1.054,5.2 -1.355,5.068 c -0.301,-0.133 -0.65,-0.2 -1.047,-0.2 h -1.536 v 3.324 z m 4.335,-9.303 c 0.385,0.542 0.578,1.229 0.578,2.06 0,0.602 -0.12,1.12 -0.361,1.553 C 1.908,2.935 1.577,3.291 1.156,3.568 0.766,3.825 0.314,4.015 -0.185,4.153 -0.172,4.158 -0.157,4.159 -0.144,4.164 0.458,4.393 0.93,4.727 1.274,5.167 1.617,5.606 1.789,6.139 1.789,6.765 1.789,7.488 1.617,8.084 1.274,8.553 0.93,9.024 0.458,9.373 -0.144,9.602 -0.747,9.83 -1.452,9.945 -2.258,9.945 H -6.07 V -2.701 h 4.029 c 0.903,0 1.695,0.13 2.376,0.389 0.679,0.258 1.212,0.659 1.598,1.201"/>
        </g>
        <g transform="translate(436.3203,427.8925)" id="g66">
          <path id="path68" style="fill:#a1263e;fill-opacity:1;fill-rule:nonzero;stroke:none" d="m 0,0 -2.927,5.401 h -2.439 l 4.299,-7.334 v -5.311 h 2.168 v 5.329 L 5.383,5.401 H 2.944 Z"/>
        </g>
        <g transform="translate(297.9153,396.5757)" id="g70">
          <path id="path72" style="fill:#a1263e;fill-opacity:1;fill-rule:nonzero;stroke:none" d="m 0,0 c -0.187,-0.235 -0.436,-0.404 -0.75,-0.505 -0.313,-0.103 -0.668,-0.154 -1.065,-0.154 h -1.554 v 3.125 h 1.554 c 0.3,0 0.575,-0.026 0.822,-0.081 C -0.746,2.331 -0.527,2.243 -0.334,2.123 -0.142,2.002 0.01,1.846 0.118,1.654 0.227,1.461 0.281,1.231 0.281,0.967 0.281,0.558 0.187,0.235 0,0 m -2.104,7.253 c 0.517,0 0.924,-0.108 1.22,-0.325 0.294,-0.217 0.441,-0.541 0.441,-0.975 0,-0.29 -0.066,-0.533 -0.198,-0.732 C -0.774,5.023 -0.963,4.869 -1.21,4.76 -1.457,4.652 -1.755,4.598 -2.104,4.598 H -3.369 V 7.253 Z M 2.132,4.707 C 2.524,5.176 2.719,5.742 2.719,6.404 2.719,7.127 2.524,7.726 2.132,8.202 1.74,8.677 1.211,9.033 0.543,9.268 -0.126,9.502 -0.9,9.62 -1.779,9.62 H -6.422 V -3.026 h 4.95 c 0.999,0 1.867,0.124 2.601,0.37 0.735,0.247 1.304,0.63 1.708,1.148 C 3.24,-0.991 3.442,-0.31 3.442,0.533 3.442,1.171 3.3,1.716 3.018,2.168 2.734,2.62 2.358,2.993 1.888,3.288 1.569,3.489 1.215,3.638 0.846,3.763 1.37,4 1.803,4.311 2.132,4.707"/>
        </g>
        <g transform="translate(310.372,398.3195)" id="g74">
          <path id="path76" style="fill:#a1263e;fill-opacity:1;fill-rule:nonzero;stroke:none" d="m 0,0 h -2.812 l 1.402,3.234 z m -8.057,-4.769 h 3.45 l 1.178,2.438 H 0.604 L 1.788,-4.769 H 5.257 L -1.41,8.671 Z"/>
        </g>
        <g transform="translate(329.0683,406.1958)" id="g78">
          <path id="path80" style="fill:#a1263e;fill-opacity:1;fill-rule:nonzero;stroke:none" d="m 0,0 h -2.944 v -7.118 l -8.726,7.75 v -13.278 h 2.926 v 7.118 L 0,-13.278 Z"/>
        </g>
        <g transform="translate(339.7994,393.5501)" id="g82">
          <path id="path84" style="fill:#a1263e;fill-opacity:1;fill-rule:nonzero;stroke:none" d="m 0,0 h 3.704 l -5.402,6.72 5.131,5.926 h -3.577 l -4.3,-4.989 v 4.989 H -7.605 V 0 h 3.161 v 5.529 z"/>
        </g>
        <g transform="translate(353.6728,403.6845)" id="g86">
          <path id="path88" style="fill:#a1263e;fill-opacity:1;fill-rule:nonzero;stroke:none" d="M 0,0 V 2.511 H -5.474 -6.377 -8.4 V -10.134 H -6.377 -5.474 0 v 2.511 h -5.474 v 2.909 h 5.113 v 2.456 H -5.474 V 0 Z"/>
        </g>
        <g transform="translate(359.6708,403.6128)" id="g90">
          <path id="path92" style="fill:#a1263e;fill-opacity:1;fill-rule:nonzero;stroke:none" d="M 0,0 H 1.337 C 1.746,0 2.099,-0.066 2.394,-0.199 2.689,-0.332 2.915,-0.521 3.072,-0.768 3.227,-1.015 3.306,-1.314 3.306,-1.662 3.306,-2.012 3.227,-2.31 3.072,-2.556 2.915,-2.803 2.689,-2.99 2.394,-3.117 2.099,-3.243 1.746,-3.306 1.337,-3.306 H 0 Z m 3.924,-5.284 c 0.115,0.044 0.233,0.083 0.34,0.135 0.722,0.35 1.27,0.834 1.644,1.454 0.372,0.621 0.559,1.334 0.559,2.141 0,0.818 -0.187,1.538 -0.559,2.159 C 5.534,1.225 4.986,1.709 4.264,2.059 3.541,2.409 2.638,2.583 1.553,2.583 H 0 -1.137 -3.053 V -10.063 H 0 v 4.39 h 0.921 l 2.729,-4.39 h 3.577 z"/>
        </g>
        <g transform="translate(377.6187,395.4382)" id="g94">
          <path id="path96" style="fill:#a1263e;fill-opacity:1;fill-rule:nonzero;stroke:none" d="m 0,0 c 0.258,0.499 0.388,1.068 0.388,1.707 0,0.53 -0.084,0.999 -0.253,1.409 -0.169,0.41 -0.401,0.771 -0.695,1.084 -0.296,0.313 -0.636,0.581 -1.021,0.804 -0.386,0.222 -0.801,0.418 -1.246,0.587 -0.591,0.204 -1.093,0.397 -1.509,0.578 -0.416,0.18 -0.735,0.38 -0.957,0.596 -0.223,0.217 -0.335,0.47 -0.335,0.759 0,0.277 0.114,0.508 0.343,0.696 0.229,0.186 0.561,0.279 0.995,0.279 0.324,0 0.628,-0.063 0.911,-0.189 C -3.095,8.183 -2.837,8.008 -2.602,7.786 -2.367,7.563 -2.159,7.301 -1.978,7 l 2.33,1.3 c -0.217,0.434 -0.53,0.862 -0.94,1.283 -0.409,0.421 -0.924,0.771 -1.544,1.048 -0.621,0.277 -1.352,0.415 -2.195,0.415 -0.819,0 -1.563,-0.141 -2.231,-0.424 -0.669,-0.283 -1.199,-0.696 -1.59,-1.237 -0.391,-0.542 -0.587,-1.186 -0.587,-1.934 0,-0.625 0.114,-1.158 0.343,-1.598 0.229,-0.44 0.518,-0.813 0.867,-1.12 0.35,-0.307 0.72,-0.558 1.112,-0.75 C -6.022,3.79 -5.676,3.64 -5.375,3.532 -4.76,3.303 -4.267,3.098 -3.893,2.918 -3.52,2.737 -3.249,2.547 -3.08,2.348 -2.912,2.149 -2.827,1.887 -2.827,1.562 -2.827,1.176 -2.972,0.873 -3.261,0.65 -3.55,0.427 -3.918,0.316 -4.363,0.316 c -0.421,0 -0.822,0.09 -1.201,0.271 -0.38,0.18 -0.73,0.439 -1.048,0.777 C -6.932,1.7 -7.218,2.098 -7.47,2.556 L -9.602,1.021 c 0.289,-0.603 0.693,-1.156 1.21,-1.663 0.518,-0.505 1.129,-0.906 1.834,-1.201 0.704,-0.295 1.466,-0.443 2.285,-0.443 0.59,0 1.165,0.088 1.725,0.262 0.561,0.175 1.06,0.431 1.5,0.768 C -0.609,-0.919 -0.259,-0.5 0,0"/>
        </g>
        <g transform="translate(385.6482,399.873)" id="g98">
          <path id="path100" style="fill:#a1263e;fill-opacity:1;fill-rule:nonzero;stroke:none" d="M 0,0 C 0,-1 0.172,-1.912 0.515,-2.737 0.858,-3.562 1.337,-4.273 1.951,-4.868 2.565,-5.465 3.294,-5.923 4.136,-6.241 4.98,-6.56 5.907,-6.72 6.919,-6.72 c 1.072,0 2.023,0.189 2.854,0.569 0.831,0.379 1.524,0.905 2.078,1.581 0.553,0.673 0.963,1.451 1.228,2.33 0.265,0.879 0.367,1.825 0.308,2.836 H 6.991 v -2.349 h 3.36 C 10.242,-2.078 10.095,-2.382 9.909,-2.664 9.722,-2.948 9.496,-3.195 9.232,-3.405 8.966,-3.616 8.647,-3.779 8.274,-3.893 7.9,-4.008 7.485,-4.065 7.027,-4.065 6.28,-4.065 5.621,-3.899 5.049,-3.568 4.477,-3.237 4.025,-2.767 3.694,-2.159 3.363,-1.551 3.197,-0.831 3.197,0 c 0,0.843 0.172,1.556 0.515,2.14 0.344,0.585 0.804,1.033 1.382,1.347 0.578,0.312 1.223,0.469 1.933,0.469 0.735,0 1.346,-0.166 1.834,-0.497 C 9.348,3.128 9.737,2.71 10.026,2.204 l 2.71,1.409 C 12.339,4.203 11.866,4.724 11.318,5.176 10.77,5.627 10.141,5.979 9.43,6.233 8.719,6.486 7.918,6.611 7.027,6.611 6.027,6.611 5.1,6.455 4.245,6.142 3.39,5.829 2.643,5.384 2.005,4.806 1.367,4.228 0.873,3.532 0.524,2.718 0.174,1.906 0,0.999 0,0"/>
        </g>
        <g transform="translate(405.9162,403.6128)" id="g102">
          <path id="path104" style="fill:#a1263e;fill-opacity:1;fill-rule:nonzero;stroke:none" d="M 0,0 C 0.41,0 0.762,-0.066 1.057,-0.199 1.353,-0.332 1.578,-0.521 1.735,-0.768 1.891,-1.015 1.97,-1.314 1.97,-1.662 1.97,-2.012 1.891,-2.31 1.735,-2.556 1.578,-2.803 1.353,-2.99 1.057,-3.117 0.762,-3.243 0.41,-3.306 0,-3.306 H -1.337 V 0 Z m -0.416,-5.673 2.729,-4.39 H 5.89 l -3.302,4.779 c 0.114,0.044 0.233,0.083 0.339,0.135 0.723,0.35 1.271,0.834 1.644,1.454 0.373,0.621 0.56,1.334 0.56,2.141 0,0.818 -0.187,1.538 -0.56,2.159 C 4.198,1.225 3.65,1.709 2.927,2.059 2.204,2.409 1.301,2.583 0.217,2.583 H -1.337 -2.474 -4.39 v -12.646 h 3.053 v 4.39 z"/>
        </g>
        <g transform="translate(422.8709,397.8946)" id="g106">
          <path id="path108" style="fill:#a1263e;fill-opacity:1;fill-rule:nonzero;stroke:none" d="m 0,0 c -0.295,-0.572 -0.711,-1.021 -1.246,-1.345 -0.536,-0.326 -1.159,-0.488 -1.87,-0.488 -0.722,0 -1.352,0.162 -1.888,0.488 -0.535,0.324 -0.951,0.773 -1.246,1.345 -0.296,0.572 -0.443,1.231 -0.443,1.978 0,0.747 0.147,1.406 0.443,1.979 0.295,0.572 0.711,1.02 1.246,1.345 0.536,0.325 1.166,0.488 1.888,0.488 0.735,0 1.367,-0.163 1.897,-0.488 C -0.69,4.977 -0.28,4.529 0.01,3.957 0.298,3.384 0.443,2.725 0.443,1.978 0.443,1.231 0.296,0.572 0,0 M 1.744,6.748 C 1.13,7.337 0.41,7.792 -0.415,8.112 -1.24,8.43 -2.14,8.59 -3.116,8.59 -4.08,8.59 -4.976,8.43 -5.808,8.112 -6.639,7.792 -7.361,7.337 -7.975,6.748 -8.59,6.157 -9.069,5.459 -9.411,4.652 -9.755,3.845 -9.926,2.954 -9.926,1.978 c 0,-0.975 0.165,-1.873 0.496,-2.691 0.331,-0.819 0.801,-1.53 1.409,-2.132 0.609,-0.603 1.328,-1.069 2.159,-1.4 0.832,-0.331 1.746,-0.497 2.746,-0.497 0.987,0 1.897,0.166 2.728,0.497 0.831,0.331 1.55,0.797 2.158,1.4 0.608,0.602 1.079,1.313 1.41,2.132 0.331,0.818 0.496,1.716 0.496,2.691 0,0.976 -0.168,1.867 -0.505,2.674 C 2.833,5.459 2.358,6.157 1.744,6.748"/>
        </g>
        <g transform="translate(435.9769,397.922)" id="g110">
          <path id="path112" style="fill:#a1263e;fill-opacity:1;fill-rule:nonzero;stroke:none" d="m 0,0 c 0,-0.638 -0.169,-1.156 -0.505,-1.553 -0.338,-0.398 -0.85,-0.597 -1.536,-0.597 -0.675,0 -1.181,0.199 -1.517,0.597 -0.338,0.397 -0.507,0.915 -0.507,1.553 v 8.274 h -3.053 v -8.491 c 0,-0.795 0.13,-1.488 0.389,-2.077 0.258,-0.591 0.62,-1.075 1.083,-1.455 0.464,-0.379 1.003,-0.665 1.618,-0.857 0.614,-0.193 1.276,-0.29 1.987,-0.29 0.711,0 1.375,0.097 1.996,0.29 0.62,0.192 1.162,0.478 1.626,0.857 0.463,0.38 0.825,0.864 1.083,1.455 0.26,0.589 0.389,1.282 0.389,2.077 V 8.274 H 0 Z"/>
        </g>
        <g transform="translate(447.9003,400.8661)" id="g114">
          <path id="path116" style="fill:#a1263e;fill-opacity:1;fill-rule:nonzero;stroke:none" d="m 0,0 c -0.35,-0.277 -0.831,-0.415 -1.445,-0.415 h -1.337 v 3.233 h 1.337 C -0.831,2.818 -0.35,2.68 0,2.403 0.35,2.126 0.524,1.723 0.524,1.192 0.524,0.674 0.35,0.277 0,0 M 1.256,4.833 C 0.527,5.164 -0.374,5.33 -1.445,5.33 H -2.782 -3.92 -5.835 V -7.316 h 3.053 v 4.39 h 1.337 c 1.071,0 1.972,0.165 2.701,0.496 0.729,0.332 1.279,0.807 1.653,1.428 0.372,0.62 0.56,1.352 0.56,2.194 0,0.868 -0.188,1.609 -0.56,2.223 C 2.535,4.029 1.985,4.501 1.256,4.833"/>
        </g>
        <g transform="translate(300.6974,370.7974)" id="g118">
          <path id="path120" style="fill:#a1263e;fill-opacity:1;fill-rule:nonzero;stroke:none" d="m 0,0 c -0.295,-0.572 -0.711,-1.021 -1.246,-1.345 -0.536,-0.326 -1.159,-0.488 -1.87,-0.488 -0.722,0 -1.352,0.162 -1.888,0.488 -0.536,0.324 -0.952,0.773 -1.246,1.345 -0.296,0.572 -0.443,1.231 -0.443,1.978 0,0.747 0.147,1.406 0.443,1.979 0.294,0.572 0.71,1.02 1.246,1.345 0.536,0.325 1.166,0.488 1.888,0.488 0.735,0 1.367,-0.163 1.897,-0.488 C -0.69,4.977 -0.28,4.529 0.01,3.957 0.298,3.384 0.443,2.725 0.443,1.978 0.443,1.231 0.296,0.572 0,0 M 1.744,6.748 C 1.129,7.337 0.41,7.792 -0.415,8.112 -1.24,8.43 -2.14,8.59 -3.116,8.59 -4.08,8.59 -4.977,8.43 -5.808,8.112 -6.639,7.792 -7.361,7.337 -7.975,6.748 -8.59,6.157 -9.069,5.459 -9.412,4.652 -9.755,3.845 -9.926,2.954 -9.926,1.978 c 0,-0.975 0.165,-1.873 0.496,-2.691 0.331,-0.819 0.801,-1.53 1.409,-2.132 0.608,-0.603 1.328,-1.069 2.159,-1.4 0.831,-0.331 1.746,-0.497 2.746,-0.497 0.987,0 1.897,0.166 2.728,0.497 0.831,0.331 1.55,0.797 2.158,1.4 0.608,0.602 1.079,1.313 1.41,2.132 0.331,0.818 0.496,1.716 0.496,2.691 0,0.976 -0.168,1.867 -0.505,2.674 C 2.833,5.459 2.358,6.157 1.744,6.748"/>
        </g>
        <g transform="translate(308.8004,379.0986)" id="g122">
          <path id="path124" style="fill:#a1263e;fill-opacity:1;fill-rule:nonzero;stroke:none" d="m 0,0 h -2.024 v -12.646 h 2.927 v 5.077 h 4.571 v 2.456 H 0.903 v 2.494 H 5.655 V 0 H 0.903 Z"/>
        </g>
        <g transform="translate(331.5796,374.4922)" id="g126">
          <path id="path128" style="fill:#a1263e;fill-opacity:1;fill-rule:nonzero;stroke:none" d="M 0,0 H -5.438 V 4.606 H -8.491 V -8.039 h 3.053 v 5.293 H 0 V -8.039 H 3.053 V 4.606 H 0 Z"/>
        </g>
        <g transform="translate(346.9437,370.7974)" id="g130">
          <path id="path132" style="fill:#a1263e;fill-opacity:1;fill-rule:nonzero;stroke:none" d="m 0,0 c -0.295,-0.572 -0.711,-1.021 -1.246,-1.345 -0.536,-0.326 -1.159,-0.488 -1.87,-0.488 -0.722,0 -1.352,0.162 -1.888,0.488 -0.535,0.324 -0.951,0.773 -1.246,1.345 -0.296,0.572 -0.443,1.231 -0.443,1.978 0,0.747 0.147,1.406 0.443,1.979 0.295,0.572 0.711,1.02 1.246,1.345 0.536,0.325 1.166,0.488 1.888,0.488 0.735,0 1.367,-0.163 1.897,-0.488 C -0.69,4.977 -0.28,4.529 0.01,3.957 0.298,3.384 0.443,2.725 0.443,1.978 0.443,1.231 0.296,0.572 0,0 M 1.744,6.748 C 1.129,7.337 0.41,7.792 -0.415,8.112 -1.24,8.43 -2.14,8.59 -3.116,8.59 -4.08,8.59 -4.976,8.43 -5.808,8.112 -6.639,7.792 -7.361,7.337 -7.975,6.748 -8.59,6.157 -9.069,5.459 -9.411,4.652 -9.755,3.845 -9.926,2.954 -9.926,1.978 c 0,-0.975 0.165,-1.873 0.496,-2.691 0.331,-0.819 0.801,-1.53 1.409,-2.132 0.608,-0.603 1.328,-1.069 2.159,-1.4 0.832,-0.331 1.746,-0.497 2.746,-0.497 0.987,0 1.897,0.166 2.728,0.497 0.831,0.331 1.55,0.797 2.158,1.4 0.608,0.602 1.079,1.313 1.41,2.132 0.331,0.818 0.496,1.716 0.496,2.691 0,0.976 -0.168,1.867 -0.505,2.674 C 2.833,5.459 2.358,6.157 1.744,6.748"/>
        </g>
        <g transform="translate(361.3243,372.5412)" id="g134">
          <path id="path136" style="fill:#a1263e;fill-opacity:1;fill-rule:nonzero;stroke:none" d="m 0,0 c -0.296,0.312 -0.636,0.581 -1.021,0.804 -0.386,0.222 -0.801,0.418 -1.246,0.587 -0.59,0.204 -1.093,0.397 -1.508,0.578 -0.416,0.18 -0.736,0.379 -0.958,0.596 -0.223,0.217 -0.335,0.469 -0.335,0.759 0,0.277 0.115,0.508 0.344,0.696 0.228,0.185 0.56,0.279 0.994,0.279 0.325,0 0.628,-0.063 0.912,-0.189 C -2.535,3.983 -2.277,3.808 -2.041,3.586 -1.807,3.363 -1.599,3.101 -1.418,2.8 L 0.913,4.1 C 0.696,4.534 0.382,4.961 -0.027,5.383 -0.436,5.804 -0.952,6.154 -1.572,6.431 -2.193,6.708 -2.924,6.846 -3.766,6.846 -4.586,6.846 -5.33,6.704 -5.998,6.422 -6.666,6.139 -7.197,5.726 -7.588,5.185 -7.979,4.643 -8.175,3.998 -8.175,3.251 c 0,-0.626 0.115,-1.158 0.344,-1.598 0.228,-0.44 0.518,-0.813 0.866,-1.12 0.35,-0.307 0.72,-0.558 1.112,-0.75 0.391,-0.193 0.738,-0.343 1.039,-0.451 0.614,-0.23 1.108,-0.434 1.481,-0.615 0.373,-0.18 0.644,-0.371 0.813,-0.569 0.168,-0.199 0.253,-0.461 0.253,-0.786 0,-0.386 -0.145,-0.689 -0.434,-0.912 -0.289,-0.224 -0.656,-0.334 -1.102,-0.334 -0.421,0 -0.822,0.09 -1.201,0.271 -0.38,0.18 -0.729,0.439 -1.048,0.777 -0.32,0.336 -0.605,0.734 -0.858,1.191 L -9.042,-3.18 c 0.289,-0.602 0.693,-1.156 1.211,-1.662 0.518,-0.505 1.128,-0.906 1.833,-1.201 0.705,-0.295 1.467,-0.443 2.286,-0.443 0.589,0 1.164,0.088 1.725,0.262 0.56,0.175 1.059,0.43 1.499,0.768 0.439,0.337 0.789,0.756 1.048,1.256 0.259,0.499 0.388,1.068 0.388,1.706 0,0.531 -0.084,1 -0.252,1.41 C 0.527,-0.674 0.295,-0.313 0,0"/>
        </g>
        <g transform="translate(370.6001,373.769)" id="g138">
          <path id="path140" style="fill:#a1263e;fill-opacity:1;fill-rule:nonzero;stroke:none" d="m 0,0 c -0.35,-0.277 -0.831,-0.415 -1.445,-0.415 h -1.337 v 3.233 h 1.337 C -0.831,2.818 -0.35,2.68 0,2.403 0.35,2.126 0.524,1.723 0.524,1.192 0.524,0.674 0.35,0.277 0,0 M 1.256,4.833 C 0.527,5.164 -0.374,5.33 -1.445,5.33 H -2.782 -3.92 -5.835 V -7.316 h 3.053 v 4.39 h 1.337 c 1.071,0 1.972,0.165 2.701,0.496 0.729,0.332 1.279,0.807 1.653,1.428 0.372,0.62 0.56,1.352 0.56,2.194 0,0.868 -0.188,1.609 -0.56,2.223 C 2.535,4.029 1.985,4.501 1.256,4.833"/>
        </g>
        <path id="path142" style="fill:#a1263e;fill-opacity:1;fill-rule:nonzero;stroke:none" d="m 376.472,366.453 h 3.107 v 12.646 h -3.107 z"/>
        <g transform="translate(391.447,379.0986)" id="g144">
          <path id="path146" style="fill:#a1263e;fill-opacity:1;fill-rule:nonzero;stroke:none" d="m 0,0 h -10.008 v -2.728 h 3.468 v -9.918 h 3.053 v 9.918 H 0 Z"/>
        </g>
        <g transform="translate(398.1863,371.2223)" id="g148">
          <path id="path150" style="fill:#a1263e;fill-opacity:1;fill-rule:nonzero;stroke:none" d="m 0,0 h -2.812 l 1.402,3.234 z m -8.057,-4.769 h 3.45 l 1.178,2.438 H 0.604 L 1.788,-4.769 H 5.257 L -1.41,8.671 Z"/>
        </g>
        <g transform="translate(408.2654,379.0986)" id="g152">
          <path id="path154" style="fill:#a1263e;fill-opacity:1;fill-rule:nonzero;stroke:none" d="m 0,0 h -3.053 v -12.646 h 8.13 v 2.62 H 0 Z"/>
        </g>
        <g transform="translate(423.5038,372.5412)" id="g156">
          <path id="path158" style="fill:#a1263e;fill-opacity:1;fill-rule:nonzero;stroke:none" d="m 0,0 c -0.296,0.312 -0.636,0.581 -1.021,0.804 -0.386,0.222 -0.801,0.418 -1.246,0.587 -0.59,0.204 -1.093,0.397 -1.508,0.578 -0.416,0.18 -0.736,0.379 -0.958,0.596 -0.223,0.217 -0.335,0.469 -0.335,0.759 0,0.277 0.115,0.508 0.344,0.696 0.228,0.185 0.56,0.279 0.994,0.279 0.325,0 0.628,-0.063 0.912,-0.189 C -2.535,3.983 -2.277,3.808 -2.041,3.586 -1.807,3.363 -1.599,3.101 -1.418,2.8 L 0.913,4.1 C 0.696,4.534 0.382,4.961 -0.027,5.383 -0.436,5.804 -0.952,6.154 -1.572,6.431 -2.193,6.708 -2.924,6.846 -3.766,6.846 -4.586,6.846 -5.33,6.704 -5.998,6.422 -6.666,6.139 -7.197,5.726 -7.588,5.185 -7.979,4.643 -8.175,3.998 -8.175,3.251 c 0,-0.626 0.115,-1.158 0.344,-1.598 0.228,-0.44 0.518,-0.813 0.866,-1.12 0.35,-0.307 0.72,-0.558 1.112,-0.75 0.391,-0.193 0.738,-0.343 1.039,-0.451 0.614,-0.23 1.108,-0.434 1.481,-0.615 0.373,-0.18 0.644,-0.371 0.813,-0.569 0.168,-0.199 0.253,-0.461 0.253,-0.786 0,-0.386 -0.145,-0.689 -0.434,-0.912 -0.289,-0.224 -0.656,-0.334 -1.102,-0.334 -0.421,0 -0.822,0.09 -1.201,0.271 -0.38,0.18 -0.729,0.439 -1.048,0.777 -0.32,0.336 -0.605,0.734 -0.858,1.191 L -9.042,-3.18 c 0.289,-0.602 0.693,-1.156 1.211,-1.662 0.518,-0.505 1.128,-0.906 1.833,-1.201 0.705,-0.295 1.467,-0.443 2.286,-0.443 0.589,0 1.164,0.088 1.725,0.262 0.56,0.175 1.059,0.43 1.499,0.768 0.439,0.337 0.789,0.756 1.048,1.256 0.259,0.499 0.388,1.068 0.388,1.706 0,0.531 -0.084,1 -0.252,1.41 C 0.527,-0.674 0.295,-0.313 0,0"/>
        </g>
        <g transform="translate(305.5092,473.4824)" id="g160">
          <path id="path162" style="fill:#a1263e;fill-opacity:1;fill-rule:nonzero;stroke:none" d="m 0,0 c -0.63,-0.487 -1.432,-0.729 -2.404,-0.729 -0.921,0 -1.794,0.197 -2.621,0.591 -0.829,0.394 -1.591,0.959 -2.287,1.695 -0.697,0.736 -1.32,1.602 -1.873,2.602 l -4.651,-3.351 c 0.631,-1.314 1.511,-2.523 2.641,-3.626 1.13,-1.104 2.464,-1.979 4.001,-2.622 1.538,-0.644 3.199,-0.966 4.987,-0.966 1.287,0 2.542,0.191 3.765,0.572 1.221,0.38 2.312,0.939 3.272,1.675 0.958,0.735 1.72,1.649 2.286,2.74 0.565,1.09 0.847,2.332 0.847,3.725 0,1.156 -0.184,2.181 -0.551,3.074 C 7.043,6.273 6.537,7.062 5.894,7.745 5.249,8.429 4.507,9.013 3.666,9.5 c -0.84,0.486 -1.748,0.912 -2.72,1.281 -1.288,0.447 -2.384,0.867 -3.291,1.261 -0.906,0.395 -1.603,0.829 -2.089,1.301 -0.487,0.473 -0.729,1.025 -0.729,1.656 0,0.604 0.249,1.11 0.749,1.518 0.498,0.407 1.221,0.61 2.167,0.61 0.71,0 1.373,-0.138 1.991,-0.413 0.617,-0.276 1.183,-0.658 1.695,-1.144 0.513,-0.487 0.966,-1.057 1.36,-1.714 l 5.085,2.838 c -0.472,0.946 -1.157,1.879 -2.05,2.799 -0.893,0.919 -2.017,1.681 -3.37,2.286 -1.354,0.605 -2.95,0.906 -4.789,0.906 -1.788,0 -3.41,-0.309 -4.869,-0.926 -1.458,-0.617 -2.615,-1.518 -3.469,-2.7 -0.854,-1.183 -1.281,-2.588 -1.281,-4.218 0,-1.367 0.25,-2.529 0.749,-3.489 0.499,-0.959 1.13,-1.773 1.893,-2.444 0.762,-0.67 1.569,-1.215 2.424,-1.635 0.853,-0.421 1.609,-0.749 2.266,-0.986 1.34,-0.5 2.418,-0.946 3.233,-1.34 C -0.565,4.552 0.027,4.139 0.395,3.705 0.762,3.272 0.946,2.7 0.946,1.991 0.946,1.149 0.631,0.486 0,0"/>
        </g>
        <g transform="translate(338.9372,482.9626)" id="g164">
          <path id="path166" style="fill:#a1263e;fill-opacity:1;fill-rule:nonzero;stroke:none" d="m 0,0 8.909,-16.635 11.944,29.21 H 12.93 L 7.569,-3.154 0,13.954 -7.49,-3.154 -12.929,12.575 h -7.884 l 11.943,-29.21 z"/>
        </g>
        <g transform="translate(376.5056,478.3509)" id="g168">
          <path id="path170" style="fill:#a1263e;fill-opacity:1;fill-rule:nonzero;stroke:none" d="m 0,0 h -6.137 l 3.06,7.056 z m -10.054,-10.407 2.572,5.322 h 8.798 l 2.585,-5.322 h 7.568 L -3.077,18.921 -17.584,-10.407 Z"/>
        </g>
        <g transform="translate(386.3971,459.7249)" id="g172">
          <path id="path174" style="fill:#a1263e;fill-opacity:1;fill-rule:nonzero;stroke:none" d="m 0,0 c 0.763,-0.328 1.616,-0.611 2.563,-0.847 0.946,-0.237 1.931,-0.355 2.956,-0.355 1.208,0 2.365,0.138 3.469,0.413 1.104,0.276 2.076,0.697 2.917,1.262 0.841,0.565 1.497,1.314 1.971,2.247 0.473,0.933 0.709,2.056 0.709,3.37 V 35.813 H 7.411 V 7.588 C 7.411,6.432 7.135,5.611 6.583,5.124 6.032,4.638 5.453,4.395 4.849,4.395 4.271,4.395 3.693,4.527 3.114,4.79 2.537,5.053 2.05,5.354 1.656,5.696 L -1.97,1.044 C -1.419,0.677 -0.761,0.329 0,0"/>
        </g>
        <g transform="translate(424.3992,478.3509)" id="g176">
          <path id="path178" style="fill:#a1263e;fill-opacity:1;fill-rule:nonzero;stroke:none" d="m 0,0 h -6.137 l 3.06,7.056 z m -7.482,-5.085 h 8.798 l 2.585,-5.322 h 7.568 L -3.077,18.921 -17.584,-10.407 h 7.53 z"/>
        </g>
        <g transform="translate(460.7416,495.5375)" id="g180">
          <path id="path182" style="fill:#a1263e;fill-opacity:1;fill-rule:nonzero;stroke:none" d="m 0,0 v -15.531 l -19.04,16.91 v -28.973 h 6.386 v 15.532 L 6.425,-28.974 V 0 Z"/>
        </g>
        <g transform="translate(557.8139,140.3278)" id="g184">
          <path id="path186" style="fill:#ffffff;fill-opacity:1;fill-rule:nonzero;stroke:none" d="m 0,0 -13.25,8.4 v -42.92 c -0.91,-1.45 -1.85,-2.87 -2.85,-4.26 V 10.2 L -90.84,57.59 -167.3,9.1 v -45.37 c -0.99,1.49 -1.95,3.03 -2.84,4.6 V 7.3 L -181.66,0 c -0.18,1.04 -0.35,2.07 -0.47,3.12 l 91.29,57.9 0.75,-0.49 L 0.46,3.12 C 0.34,2.07 0.17,1.04 0,0 m -57.34,-28.7 h -20 v -20.19 h -26.86 v 3.65 h 23.25 v 19.01 h 21.17 v 24.45 h 2.44 z m -64.54,24.53 v -24.46 h -2.45 V -1.7 h 20 v 20.19 h 23.02 v -3.65 h -19.41 V -1.07 l 33.01,25.03 -33.54,-32.13 33.54,25.44 -33.54,-32.13 33.54,25.44 -33.54,-32.13 33.54,25.44 -36.62,-35.07 v 27.01 z m -28.13,53.16 c 3.78,1.69 7.59,3.32 11.37,5.05 4.84,2.23 9.58,4.65 14.14,7.43 4.28,2.62 8.47,5.36 11.4,9.62 1.17,1.7 2.84,2.91 4.88,3.47 2.41,0.65 4.7,0.18 6.94,-0.73 0.83,-0.34 1.6,-0.8 2.61,-0.65 0.63,0.09 1.32,-0.17 1.97,-0.64 -0.18,-0.11 -0.26,-0.19 -0.35,-0.21 -1.15,-0.26 -1.97,-0.98 -2.62,-1.92 -1.51,-2.17 -2.16,-4.67 -2.51,-7.23 -0.64,-4.52 -2.41,-8.49 -5.67,-11.7 -3.59,-3.52 -7.84,-5.16 -12.88,-3.87 -1.23,0.31 -2.38,0.91 -3.55,1.42 -0.21,0.1 -0.32,0.4 -0.48,0.61 0.24,0.14 0.46,0.35 0.71,0.41 0.44,0.1 0.91,0.1 1.37,0.14 5.25,0.59 9.32,3.03 11.84,7.76 0.61,1.16 1.01,2.45 1.49,3.68 0.13,0.32 0,0.65 -0.32,0.68 -0.22,0.03 -0.48,-0.19 -0.7,-0.32 -0.07,-0.04 -0.08,-0.19 -0.12,-0.28 -0.38,-0.95 -0.69,-1.93 -1.14,-2.83 -1.44,-2.92 -3.57,-5.15 -6.59,-6.45 -3.29,-1.41 -6.72,-1.66 -10.17,-0.89 -2.54,0.56 -5.02,0.45 -7.5,-0.13 -3.23,-0.77 -6.32,-1.97 -9.34,-3.34 -1.56,-0.71 -3.11,-1.36 -4.82,-0.4 -0.31,0.18 -0.92,0.16 -0.86,0.62 0.05,0.27 0.55,0.54 0.9,0.7 m 88.35,6.61 c 1.01,-0.01 1.71,0.55 2.5,0.99 2.1,1.2 4.31,1.96 6.78,1.62 2.1,-0.28 3.92,-1.26 5.29,-2.79 3.47,-3.84 7.98,-6.02 12.58,-8.05 4.87,-2.15 9.89,-3.93 14.98,-5.51 3.96,-1.23 7.96,-2.35 11.94,-3.52 0.36,-0.11 0.89,-0.32 0.97,-0.58 0.12,-0.45 -0.47,-0.5 -0.77,-0.73 -1.56,-1.18 -3.19,-0.72 -4.84,-0.23 -3.17,0.96 -6.39,1.74 -9.69,2.08 -2.54,0.25 -5,0.05 -7.45,-0.84 -3.32,-1.21 -6.75,-1.42 -10.2,-0.45 -3.17,0.89 -5.57,2.82 -7.37,5.52 -0.56,0.85 -1.01,1.78 -1.51,2.67 -0.04,0.09 -0.08,0.22 -0.15,0.26 -0.24,0.11 -0.53,0.28 -0.73,0.23 -0.32,-0.08 -0.4,-0.42 -0.24,-0.72 0.63,-1.16 1.2,-2.38 1.97,-3.45 3.12,-4.36 7.46,-6.25 12.75,-6.14 0.45,0.01 0.92,0.07 1.38,0.03 0.25,-0.03 0.5,-0.2 0.75,-0.31 -0.13,-0.23 -0.21,-0.54 -0.4,-0.66 -1.09,-0.66 -2.16,-1.42 -3.32,-1.89 -4.84,-1.93 -9.26,-0.86 -13.28,2.16 -3.66,2.76 -5.93,6.45 -7.16,10.86 -0.68,2.49 -1.65,4.89 -3.43,6.84 -0.77,0.84 -1.68,1.45 -2.86,1.56 -0.09,0.01 -0.17,0.07 -0.37,0.16 0.59,0.55 1.24,0.9 1.88,0.89 m -29.18,51.72 c -50.95,0 -92.25,-41.32 -92.25,-92.27 0,-4.5 0.33,-8.9 0.96,-13.22 0.12,-1.03 0.29,-2.04 0.47,-3.05 1.99,-11.11 5.94,-21.53 11.52,-30.87 0.89,-1.54 1.85,-3.04 2.84,-4.5 16.59,-24.52 44.64,-40.62 76.46,-40.62 30.76,0 57.98,15.04 74.74,38.17 1,1.36 1.94,2.75 2.85,4.16 6.49,10.06 11.07,21.43 13.25,33.66 0.17,1.01 0.34,2.02 0.46,3.05 0.64,4.32 0.97,8.72 0.97,13.22 0,50.95 -41.31,92.27 -92.27,92.27"/>
        </g>
        <g transform="translate(591.1158,141.196)" id="g188">
          <path id="path190" style="fill:#ffffff;fill-opacity:1;fill-rule:nonzero;stroke:none" d="m 0,0 h -3.445 l 1.717,4.011 z m -4.063,-1.806 h 4.66 l 1.45,-3.252 h 2.421 l -6.196,13.35 -6.178,-13.35 h 2.402 z"/>
        </g>
        <g transform="translate(606.7126,140.2932)" id="g192">
          <path id="path194" style="fill:#ffffff;fill-opacity:1;fill-rule:nonzero;stroke:none" d="M 0,0 -9.232,9.123 V -4.155 h 2.096 V 4.336 L 2.095,-4.787 V 8.491 H 0 Z"/>
        </g>
        <path id="path196" style="fill:#ffffff;fill-opacity:1;fill-rule:nonzero;stroke:none" d="m 620.116,148.784 h -2.168 v -12.646 h 2.168 z"/>
        <g transform="translate(623.3682,149.4158)" id="g198">
          <path id="path200" style="fill:#ffffff;fill-opacity:1;fill-rule:nonzero;stroke:none" d="m 0,0 v -13.278 h 2.095 v 8.491 l 9.232,-9.123 V -0.632 H 9.232 v -8.491 z"/>
        </g>
        <path id="path202" style="fill:#ffffff;fill-opacity:1;fill-rule:nonzero;stroke:none" d="m 640.132,148.784 h -2.168 v -12.646 h 2.168 z"/>
        <g transform="translate(647.593,146.8143)" id="g204">
          <path id="path206" style="fill:#ffffff;fill-opacity:1;fill-rule:nonzero;stroke:none" d="M 0,0 H 3.342 V 1.97 H -5.474 V 0 h 3.342 V -10.676 H 0 Z"/>
        </g>
        <path id="path208" style="fill:#ffffff;fill-opacity:1;fill-rule:nonzero;stroke:none" d="m 655.108,148.784 h -2.168 v -12.646 h 2.168 z"/>
        <g transform="translate(664.9106,141.196)" id="g210">
          <path id="path212" style="fill:#ffffff;fill-opacity:1;fill-rule:nonzero;stroke:none" d="m 0,0 h -3.445 l 1.717,4.011 z m -5.503,-5.058 1.44,3.252 h 4.66 l 1.45,-3.252 h 2.421 l -6.196,13.35 -6.178,-13.35 z"/>
        </g>
        <g transform="translate(677.5634,148.7838)" id="g214">
          <path id="path216" style="fill:#ffffff;fill-opacity:1;fill-rule:nonzero;stroke:none" d="m 0,0 h -8.816 v -1.97 h 3.342 v -10.676 h 2.132 V -1.97 l 3.342,0 z"/>
        </g>
        <path id="path218" style="fill:#ffffff;fill-opacity:1;fill-rule:nonzero;stroke:none" d="m 681.736,148.784 h -2.168 v -12.646 h 2.168 z"/>
        <g transform="translate(693.532,148.7838)" id="g220">
          <path id="path222" style="fill:#ffffff;fill-opacity:1;fill-rule:nonzero;stroke:none" d="M 0,0 -3.721,-8.888 -7.443,0 H -9.9 L -3.721,-13.35 2.475,0 Z"/>
        </g>
        <g transform="translate(699.9992,136.1381)" id="g224">
          <path id="path226" style="fill:#ffffff;fill-opacity:1;fill-rule:nonzero;stroke:none" d="M 0,0 H 5.601 V 1.878 H 0 V 5.853 H 5.239 V 7.696 H 0 v 3.07 h 5.601 v 1.88 H 0 -0.776 -2.095 L -2.095,0 h 1.319 z"/>
        </g>
        <g transform="translate(720.6115,138.8388)" id="g228">
          <path id="path230" style="fill:#ffffff;fill-opacity:1;fill-rule:nonzero;stroke:none" d="M 0,0 C -0.217,-0.307 -0.512,-0.539 -0.885,-0.696 -1.259,-0.852 -1.686,-0.93 -2.168,-0.93 h -1.77 v 4.137 h 1.77 c 0.361,0 0.692,-0.04 0.994,-0.118 C -0.874,3.01 -0.608,2.884 -0.379,2.71 -0.151,2.535 0.024,2.322 0.144,2.069 0.265,1.816 0.325,1.515 0.325,1.165 0.325,0.696 0.217,0.307 0,0 m -2.402,8.192 c 0.602,0 1.086,-0.144 1.454,-0.433 0.367,-0.289 0.551,-0.699 0.551,-1.228 0,-0.35 -0.085,-0.648 -0.254,-0.894 C -0.819,5.389 -1.054,5.2 -1.355,5.068 c -0.301,-0.133 -0.65,-0.2 -1.047,-0.2 h -1.536 v 3.324 z m 4.335,-9.303 c 0.385,0.542 0.578,1.229 0.578,2.06 0,0.602 -0.12,1.12 -0.361,1.553 C 1.908,2.935 1.577,3.291 1.156,3.568 0.766,3.825 0.314,4.015 -0.185,4.153 -0.172,4.158 -0.157,4.159 -0.144,4.164 0.458,4.393 0.93,4.727 1.274,5.167 1.617,5.606 1.789,6.139 1.789,6.765 1.789,7.488 1.617,8.084 1.274,8.553 0.93,9.024 0.458,9.373 -0.144,9.602 -0.747,9.83 -1.452,9.945 -2.258,9.945 H -6.07 V -2.701 h 4.029 c 0.903,0 1.695,0.13 2.376,0.389 0.679,0.258 1.212,0.659 1.598,1.201"/>
        </g>
        <g transform="translate(729.319,143.3824)" id="g232">
          <path id="path234" style="fill:#ffffff;fill-opacity:1;fill-rule:nonzero;stroke:none" d="m 0,0 -2.927,5.401 h -2.439 l 4.299,-7.334 v -5.311 h 2.168 v 5.329 L 5.383,5.401 H 2.944 Z"/>
        </g>
        <g transform="translate(590.9139,112.0656)" id="g236">
          <path id="path238" style="fill:#ffffff;fill-opacity:1;fill-rule:nonzero;stroke:none" d="m 0,0 c -0.187,-0.235 -0.436,-0.404 -0.75,-0.505 -0.313,-0.103 -0.668,-0.154 -1.065,-0.154 h -1.554 v 3.125 h 1.554 c 0.3,0 0.575,-0.026 0.822,-0.081 C -0.746,2.331 -0.527,2.243 -0.334,2.123 -0.142,2.002 0.01,1.846 0.118,1.654 0.227,1.461 0.281,1.231 0.281,0.967 0.281,0.558 0.187,0.235 0,0 m -2.104,7.253 c 0.517,0 0.924,-0.108 1.22,-0.325 0.294,-0.217 0.441,-0.541 0.441,-0.975 0,-0.29 -0.066,-0.533 -0.198,-0.732 C -0.774,5.023 -0.963,4.869 -1.21,4.761 -1.457,4.653 -1.755,4.598 -2.104,4.598 H -3.369 V 7.253 Z M 2.132,4.707 C 2.524,5.176 2.719,5.742 2.719,6.404 2.719,7.127 2.524,7.726 2.132,8.202 1.74,8.677 1.211,9.033 0.543,9.268 -0.126,9.502 -0.9,9.62 -1.779,9.62 H -6.422 V -3.026 h 4.95 c 0.999,0 1.867,0.124 2.602,0.37 0.734,0.247 1.303,0.63 1.707,1.148 C 3.24,-0.991 3.442,-0.31 3.442,0.533 3.442,1.171 3.3,1.716 3.018,2.168 2.734,2.62 2.358,2.993 1.888,3.288 1.569,3.489 1.215,3.638 0.846,3.763 1.37,4 1.803,4.311 2.132,4.707"/>
        </g>
        <g transform="translate(603.3707,113.8094)" id="g240">
          <path id="path242" style="fill:#ffffff;fill-opacity:1;fill-rule:nonzero;stroke:none" d="m 0,0 h -2.812 l 1.402,3.234 z m -8.057,-4.769 h 3.45 l 1.178,2.438 H 0.604 L 1.788,-4.769 H 5.257 L -1.41,8.671 Z"/>
        </g>
        <g transform="translate(622.067,121.6858)" id="g244">
          <path id="path246" style="fill:#ffffff;fill-opacity:1;fill-rule:nonzero;stroke:none" d="m 0,0 h -2.944 v -7.118 l -8.726,7.75 v -13.278 h 2.926 v 7.118 L 0,-13.278 Z"/>
        </g>
        <g transform="translate(632.798,109.0401)" id="g248">
          <path id="path250" style="fill:#ffffff;fill-opacity:1;fill-rule:nonzero;stroke:none" d="m 0,0 h 3.704 l -5.402,6.72 5.131,5.926 h -3.577 l -4.3,-4.989 v 4.989 H -7.605 V 0 h 3.161 v 5.529 z"/>
        </g>
        <g transform="translate(646.6715,119.1745)" id="g252">
          <path id="path254" style="fill:#ffffff;fill-opacity:1;fill-rule:nonzero;stroke:none" d="M 0,0 V 2.511 H -5.474 -6.377 -8.4 V -10.134 H -6.377 -5.474 0 v 2.511 h -5.474 v 2.909 h 5.113 v 2.456 H -5.474 V 0 Z"/>
        </g>
        <g transform="translate(652.6695,119.1028)" id="g256">
          <path id="path258" style="fill:#ffffff;fill-opacity:1;fill-rule:nonzero;stroke:none" d="M 0,0 H 1.337 C 1.746,0 2.099,-0.066 2.393,-0.199 2.689,-0.332 2.915,-0.521 3.072,-0.768 3.227,-1.015 3.306,-1.314 3.306,-1.662 3.306,-2.012 3.227,-2.31 3.072,-2.556 2.915,-2.803 2.689,-2.99 2.393,-3.117 2.099,-3.243 1.746,-3.306 1.337,-3.306 H 0 Z m 3.924,-5.284 c 0.115,0.044 0.233,0.083 0.34,0.135 0.722,0.35 1.27,0.834 1.644,1.454 0.372,0.621 0.559,1.334 0.559,2.141 0,0.818 -0.187,1.538 -0.559,2.159 C 5.534,1.225 4.986,1.709 4.264,2.059 3.541,2.409 2.638,2.583 1.553,2.583 H 0 -1.138 -3.053 V -10.063 H 0 v 4.39 h 0.921 l 2.729,-4.39 h 3.577 z"/>
        </g>
        <g transform="translate(670.6174,110.9282)" id="g260">
          <path id="path262" style="fill:#ffffff;fill-opacity:1;fill-rule:nonzero;stroke:none" d="m 0,0 c 0.258,0.499 0.388,1.068 0.388,1.707 0,0.53 -0.084,0.999 -0.253,1.409 -0.169,0.41 -0.401,0.771 -0.695,1.084 -0.296,0.313 -0.636,0.581 -1.021,0.804 -0.386,0.222 -0.801,0.418 -1.246,0.587 -0.591,0.204 -1.093,0.397 -1.509,0.578 -0.416,0.18 -0.735,0.38 -0.957,0.596 -0.223,0.217 -0.335,0.47 -0.335,0.759 0,0.277 0.114,0.508 0.344,0.696 0.228,0.186 0.56,0.28 0.994,0.28 0.324,0 0.628,-0.064 0.911,-0.19 C -3.095,8.184 -2.837,8.008 -2.602,7.786 -2.367,7.563 -2.159,7.301 -1.978,7 l 2.33,1.3 c -0.217,0.434 -0.53,0.862 -0.94,1.283 -0.409,0.421 -0.924,0.771 -1.544,1.048 -0.621,0.277 -1.352,0.415 -2.195,0.415 -0.819,0 -1.563,-0.141 -2.231,-0.424 -0.669,-0.283 -1.199,-0.696 -1.59,-1.237 -0.391,-0.542 -0.587,-1.186 -0.587,-1.934 0,-0.625 0.114,-1.158 0.344,-1.598 0.228,-0.44 0.517,-0.813 0.866,-1.12 0.35,-0.307 0.72,-0.558 1.112,-0.75 C -6.022,3.79 -5.676,3.64 -5.375,3.532 -4.76,3.303 -4.267,3.098 -3.893,2.918 -3.52,2.737 -3.249,2.547 -3.08,2.348 -2.912,2.149 -2.827,1.887 -2.827,1.562 -2.827,1.176 -2.972,0.873 -3.261,0.65 -3.55,0.427 -3.918,0.316 -4.363,0.316 c -0.421,0 -0.822,0.09 -1.201,0.271 -0.38,0.18 -0.73,0.439 -1.048,0.777 C -6.932,1.7 -7.218,2.098 -7.47,2.556 L -9.602,1.021 c 0.289,-0.603 0.693,-1.156 1.211,-1.663 0.517,-0.505 1.128,-0.906 1.833,-1.201 0.704,-0.295 1.466,-0.443 2.285,-0.443 0.59,0 1.165,0.088 1.725,0.262 0.561,0.175 1.06,0.431 1.5,0.768 C -0.609,-0.919 -0.259,-0.5 0,0"/>
        </g>
        <g transform="translate(678.6469,115.3629)" id="g264">
          <path id="path266" style="fill:#ffffff;fill-opacity:1;fill-rule:nonzero;stroke:none" d="M 0,0 C 0,-1 0.172,-1.912 0.515,-2.737 0.858,-3.562 1.337,-4.273 1.951,-4.868 2.565,-5.465 3.294,-5.923 4.136,-6.241 4.98,-6.56 5.907,-6.72 6.919,-6.72 c 1.072,0 2.023,0.189 2.854,0.569 0.831,0.379 1.524,0.905 2.078,1.581 0.553,0.673 0.963,1.451 1.228,2.33 0.265,0.879 0.367,1.825 0.308,2.836 H 6.991 v -2.349 h 3.36 C 10.242,-2.078 10.096,-2.382 9.909,-2.664 9.722,-2.948 9.496,-3.195 9.232,-3.405 8.966,-3.616 8.647,-3.779 8.274,-3.893 7.9,-4.008 7.485,-4.065 7.027,-4.065 6.28,-4.065 5.621,-3.899 5.049,-3.568 4.477,-3.237 4.025,-2.767 3.694,-2.159 3.363,-1.551 3.197,-0.831 3.197,0 c 0,0.843 0.172,1.556 0.515,2.14 0.344,0.585 0.804,1.033 1.382,1.347 0.578,0.312 1.223,0.469 1.933,0.469 0.735,0 1.346,-0.166 1.834,-0.497 C 9.348,3.128 9.737,2.71 10.026,2.204 l 2.71,1.409 C 12.339,4.203 11.866,4.724 11.318,5.176 10.77,5.627 10.141,5.979 9.43,6.233 8.719,6.486 7.918,6.611 7.027,6.611 6.027,6.611 5.1,6.455 4.245,6.142 3.39,5.829 2.643,5.384 2.005,4.806 1.367,4.228 0.873,3.532 0.524,2.718 0.174,1.906 0,0.999 0,0"/>
        </g>
        <g transform="translate(698.9149,119.1028)" id="g268">
          <path id="path270" style="fill:#ffffff;fill-opacity:1;fill-rule:nonzero;stroke:none" d="M 0,0 C 0.41,0 0.762,-0.066 1.057,-0.199 1.353,-0.332 1.578,-0.521 1.735,-0.768 1.891,-1.015 1.97,-1.314 1.97,-1.662 1.97,-2.012 1.891,-2.31 1.735,-2.556 1.578,-2.803 1.353,-2.99 1.057,-3.117 0.762,-3.243 0.41,-3.306 0,-3.306 H -1.337 V 0 Z m -0.416,-5.673 2.729,-4.39 H 5.89 l -3.302,4.779 c 0.114,0.044 0.233,0.083 0.339,0.135 0.723,0.35 1.271,0.834 1.644,1.454 0.373,0.621 0.559,1.334 0.559,2.141 0,0.818 -0.186,1.538 -0.559,2.159 C 4.198,1.225 3.65,1.709 2.927,2.059 2.204,2.409 1.301,2.583 0.217,2.583 H -1.337 -2.474 -4.39 v -12.646 h 3.053 v 4.39 z"/>
        </g>
        <g transform="translate(715.8696,113.3846)" id="g272">
          <path id="path274" style="fill:#ffffff;fill-opacity:1;fill-rule:nonzero;stroke:none" d="m 0,0 c -0.295,-0.572 -0.711,-1.021 -1.246,-1.345 -0.536,-0.326 -1.159,-0.488 -1.87,-0.488 -0.722,0 -1.352,0.162 -1.888,0.488 -0.535,0.324 -0.951,0.773 -1.246,1.345 -0.296,0.572 -0.443,1.231 -0.443,1.978 0,0.747 0.147,1.406 0.443,1.979 0.295,0.572 0.711,1.02 1.246,1.345 0.536,0.325 1.166,0.488 1.888,0.488 0.735,0 1.367,-0.163 1.897,-0.488 C -0.69,4.977 -0.28,4.529 0.01,3.957 0.298,3.384 0.443,2.725 0.443,1.978 0.443,1.231 0.296,0.572 0,0 M 1.744,6.748 C 1.13,7.337 0.41,7.792 -0.415,8.112 -1.24,8.43 -2.14,8.59 -3.116,8.59 -4.08,8.59 -4.976,8.43 -5.808,8.112 -6.639,7.792 -7.361,7.337 -7.975,6.748 -8.59,6.157 -9.069,5.459 -9.411,4.652 -9.755,3.845 -9.926,2.954 -9.926,1.978 c 0,-0.975 0.165,-1.873 0.496,-2.691 0.331,-0.819 0.801,-1.53 1.409,-2.132 0.609,-0.603 1.328,-1.069 2.159,-1.4 0.832,-0.331 1.746,-0.497 2.746,-0.497 0.987,0 1.897,0.166 2.728,0.497 0.831,0.331 1.55,0.797 2.158,1.4 0.608,0.602 1.079,1.313 1.41,2.132 0.331,0.818 0.496,1.716 0.496,2.691 0,0.976 -0.168,1.867 -0.505,2.674 C 2.833,5.459 2.358,6.157 1.744,6.748"/>
        </g>
        <g transform="translate(728.9756,113.412)" id="g276">
          <path id="path278" style="fill:#ffffff;fill-opacity:1;fill-rule:nonzero;stroke:none" d="m 0,0 c 0,-0.638 -0.169,-1.156 -0.505,-1.553 -0.338,-0.398 -0.85,-0.597 -1.536,-0.597 -0.675,0 -1.181,0.199 -1.517,0.597 -0.338,0.397 -0.507,0.915 -0.507,1.553 v 8.274 h -3.053 v -8.491 c 0,-0.795 0.129,-1.488 0.389,-2.077 0.258,-0.591 0.62,-1.075 1.083,-1.455 0.464,-0.379 1.003,-0.665 1.618,-0.857 0.614,-0.193 1.276,-0.29 1.987,-0.29 0.711,0 1.375,0.097 1.996,0.29 0.62,0.192 1.162,0.478 1.626,0.857 0.463,0.38 0.825,0.864 1.083,1.455 0.26,0.589 0.389,1.282 0.389,2.077 V 8.274 H 0 Z"/>
        </g>
        <g transform="translate(740.899,116.3561)" id="g280">
          <path id="path282" style="fill:#ffffff;fill-opacity:1;fill-rule:nonzero;stroke:none" d="m 0,0 c -0.35,-0.277 -0.831,-0.415 -1.445,-0.415 h -1.337 v 3.233 h 1.337 C -0.831,2.818 -0.35,2.68 0,2.403 0.35,2.126 0.524,1.723 0.524,1.192 0.524,0.674 0.35,0.277 0,0 M 1.256,4.833 C 0.527,5.164 -0.374,5.33 -1.445,5.33 H -2.782 -3.92 -5.835 V -7.316 h 3.053 v 4.39 h 1.337 c 1.071,0 1.972,0.165 2.701,0.496 0.729,0.332 1.279,0.807 1.653,1.428 0.372,0.62 0.56,1.352 0.56,2.194 0,0.868 -0.188,1.609 -0.56,2.223 C 2.535,4.029 1.985,4.501 1.256,4.833"/>
        </g>
        <g transform="translate(593.6961,86.2874)" id="g284">
          <path id="path286" style="fill:#ffffff;fill-opacity:1;fill-rule:nonzero;stroke:none" d="m 0,0 c -0.295,-0.572 -0.711,-1.021 -1.246,-1.345 -0.536,-0.326 -1.159,-0.488 -1.87,-0.488 -0.722,0 -1.352,0.162 -1.888,0.488 -0.536,0.324 -0.952,0.773 -1.246,1.345 -0.296,0.572 -0.443,1.231 -0.443,1.978 0,0.747 0.147,1.406 0.443,1.979 0.294,0.572 0.71,1.02 1.246,1.345 0.536,0.325 1.166,0.488 1.888,0.488 0.735,0 1.367,-0.163 1.897,-0.488 C -0.69,4.977 -0.28,4.529 0.01,3.957 0.298,3.384 0.443,2.725 0.443,1.978 0.443,1.231 0.296,0.572 0,0 M 1.744,6.748 C 1.129,7.337 0.41,7.792 -0.415,8.112 -1.24,8.43 -2.14,8.59 -3.116,8.59 -4.08,8.59 -4.977,8.43 -5.808,8.112 -6.639,7.792 -7.361,7.337 -7.976,6.748 -8.59,6.157 -9.069,5.459 -9.412,4.652 -9.755,3.845 -9.926,2.954 -9.926,1.978 c 0,-0.975 0.165,-1.873 0.496,-2.691 0.331,-0.819 0.801,-1.53 1.409,-2.132 0.608,-0.603 1.328,-1.069 2.159,-1.4 0.831,-0.331 1.746,-0.497 2.746,-0.497 0.987,0 1.897,0.166 2.728,0.497 0.831,0.331 1.55,0.797 2.158,1.4 0.608,0.602 1.079,1.313 1.41,2.132 0.331,0.818 0.496,1.716 0.496,2.691 0,0.976 -0.168,1.867 -0.505,2.674 C 2.833,5.459 2.358,6.157 1.744,6.748"/>
        </g>
        <g transform="translate(601.799,94.5886)" id="g288">
          <path id="path290" style="fill:#ffffff;fill-opacity:1;fill-rule:nonzero;stroke:none" d="m 0,0 h -2.023 v -12.646 h 2.926 v 5.077 h 4.571 v 2.456 H 0.903 v 2.494 H 5.655 V 0 H 0.903 Z"/>
        </g>
        <g transform="translate(624.5782,89.9821)" id="g292">
          <path id="path294" style="fill:#ffffff;fill-opacity:1;fill-rule:nonzero;stroke:none" d="M 0,0 H -5.438 V 4.606 H -8.491 V -8.039 h 3.053 v 5.293 H 0 V -8.039 H 3.053 V 4.606 H 0 Z"/>
        </g>
        <g transform="translate(639.9423,86.2874)" id="g296">
          <path id="path298" style="fill:#ffffff;fill-opacity:1;fill-rule:nonzero;stroke:none" d="m 0,0 c -0.295,-0.572 -0.711,-1.021 -1.246,-1.345 -0.536,-0.326 -1.159,-0.488 -1.87,-0.488 -0.722,0 -1.352,0.162 -1.888,0.488 -0.535,0.324 -0.951,0.773 -1.246,1.345 -0.296,0.572 -0.443,1.231 -0.443,1.978 0,0.747 0.147,1.406 0.443,1.979 0.295,0.572 0.711,1.02 1.246,1.345 0.536,0.325 1.166,0.488 1.888,0.488 0.735,0 1.367,-0.163 1.897,-0.488 C -0.69,4.977 -0.28,4.529 0.01,3.957 0.298,3.384 0.443,2.725 0.443,1.978 0.443,1.231 0.296,0.572 0,0 M 1.744,6.748 C 1.13,7.337 0.41,7.792 -0.415,8.112 -1.24,8.43 -2.14,8.59 -3.116,8.59 -4.08,8.59 -4.976,8.43 -5.808,8.112 -6.639,7.792 -7.361,7.337 -7.975,6.748 -8.59,6.157 -9.069,5.459 -9.411,4.652 -9.755,3.845 -9.926,2.954 -9.926,1.978 c 0,-0.975 0.165,-1.873 0.496,-2.691 0.331,-0.819 0.801,-1.53 1.409,-2.132 0.609,-0.603 1.328,-1.069 2.159,-1.4 0.832,-0.331 1.746,-0.497 2.746,-0.497 0.987,0 1.897,0.166 2.728,0.497 0.831,0.331 1.55,0.797 2.158,1.4 0.608,0.602 1.079,1.313 1.41,2.132 0.331,0.818 0.496,1.716 0.496,2.691 0,0.976 -0.168,1.867 -0.505,2.674 C 2.833,5.459 2.358,6.157 1.744,6.748"/>
        </g>
        <g transform="translate(654.323,88.0312)" id="g300">
          <path id="path302" style="fill:#ffffff;fill-opacity:1;fill-rule:nonzero;stroke:none" d="m 0,0 c -0.296,0.312 -0.636,0.581 -1.021,0.804 -0.386,0.222 -0.801,0.418 -1.246,0.587 -0.59,0.204 -1.093,0.397 -1.508,0.578 -0.416,0.18 -0.736,0.379 -0.958,0.596 -0.223,0.217 -0.335,0.469 -0.335,0.759 0,0.277 0.115,0.508 0.344,0.696 0.228,0.186 0.56,0.279 0.994,0.279 0.325,0 0.628,-0.063 0.912,-0.189 C -2.535,3.983 -2.277,3.808 -2.041,3.586 -1.807,3.363 -1.599,3.101 -1.418,2.8 L 0.913,4.1 C 0.696,4.534 0.382,4.961 -0.027,5.383 -0.436,5.804 -0.952,6.154 -1.572,6.431 -2.193,6.708 -2.924,6.846 -3.766,6.846 -4.586,6.846 -5.33,6.704 -5.998,6.422 -6.666,6.139 -7.197,5.726 -7.588,5.185 -7.979,4.643 -8.175,3.998 -8.175,3.251 c 0,-0.626 0.115,-1.158 0.344,-1.598 0.228,-0.44 0.518,-0.813 0.866,-1.12 0.35,-0.307 0.72,-0.558 1.112,-0.75 0.391,-0.193 0.738,-0.343 1.038,-0.451 0.615,-0.23 1.109,-0.434 1.482,-0.615 0.373,-0.18 0.644,-0.371 0.813,-0.569 0.168,-0.199 0.253,-0.461 0.253,-0.786 0,-0.386 -0.145,-0.689 -0.434,-0.912 -0.289,-0.224 -0.656,-0.334 -1.102,-0.334 -0.421,0 -0.822,0.09 -1.201,0.271 -0.38,0.18 -0.729,0.439 -1.048,0.777 -0.32,0.336 -0.605,0.734 -0.858,1.191 L -9.042,-3.18 c 0.289,-0.602 0.693,-1.156 1.211,-1.662 0.518,-0.505 1.128,-0.906 1.833,-1.201 0.705,-0.295 1.467,-0.443 2.286,-0.443 0.589,0 1.164,0.088 1.725,0.262 0.56,0.175 1.059,0.43 1.499,0.768 0.439,0.337 0.789,0.756 1.048,1.256 0.259,0.499 0.388,1.068 0.388,1.706 0,0.531 -0.084,1 -0.252,1.41 C 0.527,-0.674 0.295,-0.313 0,0"/>
        </g>
        <g transform="translate(663.5988,89.259)" id="g304">
          <path id="path306" style="fill:#ffffff;fill-opacity:1;fill-rule:nonzero;stroke:none" d="m 0,0 c -0.35,-0.277 -0.831,-0.415 -1.445,-0.415 h -1.337 v 3.233 h 1.337 C -0.831,2.818 -0.35,2.68 0,2.403 0.35,2.126 0.524,1.723 0.524,1.192 0.524,0.674 0.35,0.277 0,0 M 1.256,4.833 C 0.527,5.164 -0.374,5.33 -1.445,5.33 H -2.782 -3.92 -5.835 V -7.316 h 3.053 v 4.39 h 1.337 c 1.071,0 1.972,0.165 2.701,0.496 0.729,0.332 1.279,0.807 1.653,1.428 0.372,0.62 0.56,1.352 0.56,2.194 0,0.868 -0.188,1.609 -0.56,2.223 C 2.535,4.029 1.985,4.501 1.256,4.833"/>
        </g>
        <path id="path308" style="fill:#ffffff;fill-opacity:1;fill-rule:nonzero;stroke:none" d="m 669.47,81.943 h 3.107 v 12.646 h -3.107 z"/>
        <g transform="translate(684.4457,94.5886)" id="g310">
          <path id="path312" style="fill:#ffffff;fill-opacity:1;fill-rule:nonzero;stroke:none" d="m 0,0 h -10.008 v -2.728 h 3.468 v -9.918 h 3.053 v 9.918 H 0 Z"/>
        </g>
        <g transform="translate(691.185,86.7123)" id="g314">
          <path id="path316" style="fill:#ffffff;fill-opacity:1;fill-rule:nonzero;stroke:none" d="m 0,0 h -2.812 l 1.402,3.234 z m -8.057,-4.769 h 3.45 l 1.178,2.438 H 0.604 L 1.788,-4.769 H 5.257 L -1.41,8.671 Z"/>
        </g>
        <g transform="translate(701.2641,94.5886)" id="g318">
          <path id="path320" style="fill:#ffffff;fill-opacity:1;fill-rule:nonzero;stroke:none" d="m 0,0 h -3.053 v -12.646 h 8.13 v 2.62 H 0 Z"/>
        </g>
        <g transform="translate(716.5025,88.0312)" id="g322">
          <path id="path324" style="fill:#ffffff;fill-opacity:1;fill-rule:nonzero;stroke:none" d="m 0,0 c -0.296,0.312 -0.636,0.581 -1.021,0.804 -0.386,0.222 -0.801,0.418 -1.246,0.587 -0.59,0.204 -1.093,0.397 -1.508,0.578 -0.416,0.18 -0.736,0.379 -0.958,0.596 -0.223,0.217 -0.335,0.469 -0.335,0.759 0,0.277 0.115,0.508 0.344,0.696 0.228,0.186 0.56,0.279 0.994,0.279 0.325,0 0.628,-0.063 0.912,-0.189 C -2.535,3.983 -2.277,3.808 -2.041,3.586 -1.807,3.363 -1.599,3.101 -1.418,2.8 L 0.913,4.1 C 0.696,4.534 0.382,4.961 -0.027,5.383 -0.436,5.804 -0.952,6.154 -1.572,6.431 -2.193,6.708 -2.924,6.846 -3.766,6.846 -4.586,6.846 -5.33,6.704 -5.998,6.422 -6.666,6.139 -7.197,5.726 -7.588,5.185 -7.979,4.643 -8.175,3.998 -8.175,3.251 c 0,-0.626 0.115,-1.158 0.344,-1.598 0.228,-0.44 0.518,-0.813 0.866,-1.12 0.35,-0.307 0.72,-0.558 1.112,-0.75 0.391,-0.193 0.738,-0.343 1.038,-0.451 0.615,-0.23 1.109,-0.434 1.482,-0.615 0.373,-0.18 0.644,-0.371 0.813,-0.569 0.168,-0.199 0.253,-0.461 0.253,-0.786 0,-0.386 -0.145,-0.689 -0.434,-0.912 -0.289,-0.224 -0.656,-0.334 -1.102,-0.334 -0.421,0 -0.822,0.09 -1.201,0.271 -0.38,0.18 -0.729,0.439 -1.048,0.777 -0.32,0.336 -0.605,0.734 -0.858,1.191 L -9.042,-3.18 c 0.289,-0.602 0.693,-1.156 1.211,-1.662 0.518,-0.505 1.128,-0.906 1.833,-1.201 0.705,-0.295 1.467,-0.443 2.286,-0.443 0.589,0 1.164,0.088 1.725,0.262 0.56,0.175 1.059,0.43 1.499,0.768 0.439,0.337 0.789,0.756 1.048,1.256 0.259,0.499 0.388,1.068 0.388,1.706 0,0.531 -0.084,1 -0.252,1.41 C 0.527,-0.674 0.295,-0.313 0,0"/>
        </g>
        <g transform="translate(598.5079,188.9723)" id="g326">
          <path id="path328" style="fill:#ffffff;fill-opacity:1;fill-rule:nonzero;stroke:none" d="m 0,0 c -0.63,-0.487 -1.432,-0.729 -2.404,-0.729 -0.921,0 -1.794,0.197 -2.621,0.591 -0.829,0.394 -1.591,0.959 -2.287,1.695 -0.697,0.736 -1.32,1.602 -1.873,2.602 l -4.651,-3.351 c 0.631,-1.314 1.511,-2.523 2.641,-3.626 1.13,-1.104 2.464,-1.979 4.001,-2.622 1.538,-0.644 3.199,-0.966 4.987,-0.966 1.287,0 2.542,0.191 3.765,0.572 1.221,0.38 2.312,0.939 3.272,1.675 0.958,0.735 1.72,1.649 2.286,2.74 0.565,1.09 0.847,2.332 0.847,3.725 0,1.156 -0.184,2.181 -0.551,3.074 C 7.042,6.273 6.537,7.062 5.893,7.745 5.249,8.429 4.507,9.013 3.666,9.5 c -0.84,0.486 -1.748,0.912 -2.72,1.281 -1.288,0.447 -2.384,0.867 -3.291,1.261 -0.906,0.395 -1.603,0.829 -2.089,1.301 -0.487,0.473 -0.729,1.025 -0.729,1.656 0,0.604 0.249,1.11 0.749,1.518 0.498,0.407 1.221,0.61 2.167,0.61 0.71,0 1.373,-0.138 1.991,-0.413 0.617,-0.276 1.183,-0.658 1.695,-1.144 0.513,-0.487 0.966,-1.057 1.36,-1.714 l 5.085,2.838 c -0.472,0.946 -1.157,1.879 -2.05,2.799 -0.893,0.919 -2.017,1.681 -3.37,2.286 -1.354,0.605 -2.95,0.906 -4.789,0.906 -1.788,0 -3.41,-0.309 -4.869,-0.925 -1.458,-0.618 -2.615,-1.519 -3.469,-2.701 -0.854,-1.183 -1.281,-2.588 -1.281,-4.218 0,-1.367 0.25,-2.529 0.749,-3.489 0.499,-0.959 1.13,-1.773 1.893,-2.444 0.762,-0.67 1.569,-1.215 2.424,-1.635 0.853,-0.421 1.609,-0.749 2.266,-0.986 1.34,-0.5 2.418,-0.946 3.233,-1.34 C -0.565,4.552 0.027,4.139 0.395,3.705 0.762,3.272 0.946,2.7 0.946,1.991 0.946,1.149 0.631,0.486 0,0"/>
        </g>
        <g transform="translate(631.9359,198.4526)" id="g330">
          <path id="path332" style="fill:#ffffff;fill-opacity:1;fill-rule:nonzero;stroke:none" d="m 0,0 8.909,-16.635 11.944,29.21 H 12.93 L 7.569,-3.154 0,13.954 -7.49,-3.154 -12.929,12.575 h -7.884 l 11.943,-29.21 z"/>
        </g>
        <g transform="translate(669.5043,193.8408)" id="g334">
          <path id="path336" style="fill:#ffffff;fill-opacity:1;fill-rule:nonzero;stroke:none" d="m 0,0 h -6.137 l 3.06,7.056 z m -10.054,-10.407 2.572,5.322 h 8.798 l 2.585,-5.322 h 7.568 L -3.077,18.921 -17.584,-10.407 Z"/>
        </g>
        <g transform="translate(679.3958,175.2149)" id="g338">
          <path id="path340" style="fill:#ffffff;fill-opacity:1;fill-rule:nonzero;stroke:none" d="m 0,0 c 0.763,-0.328 1.616,-0.611 2.563,-0.847 0.946,-0.237 1.931,-0.355 2.956,-0.355 1.208,0 2.365,0.138 3.469,0.413 1.104,0.276 2.076,0.697 2.917,1.262 0.841,0.565 1.497,1.314 1.971,2.247 0.473,0.933 0.709,2.056 0.709,3.37 V 35.813 H 7.411 V 7.588 C 7.411,6.432 7.135,5.611 6.583,5.124 6.032,4.638 5.453,4.395 4.849,4.395 4.271,4.395 3.693,4.527 3.114,4.79 2.537,5.053 2.05,5.354 1.656,5.696 L -1.97,1.045 C -1.419,0.677 -0.761,0.329 0,0"/>
        </g>
        <g transform="translate(717.3979,193.8408)" id="g342">
          <path id="path344" style="fill:#ffffff;fill-opacity:1;fill-rule:nonzero;stroke:none" d="m 0,0 h -6.137 l 3.06,7.056 z m -7.482,-5.085 h 8.798 l 2.585,-5.322 h 7.568 L -3.077,18.921 -17.584,-10.407 h 7.53 z"/>
        </g>
        <g transform="translate(753.7403,211.0275)" id="g346">
          <path id="path348" style="fill:#ffffff;fill-opacity:1;fill-rule:nonzero;stroke:none" d="m 0,0 v -15.531 l -19.04,16.91 v -28.973 h 6.386 v 15.532 L 6.425,-28.974 V 0 Z"/>
        </g>
      </g>
    </g>
  </g>
</svg>