<svg xmlns="http://www.w3.org/2000/svg" xmlns:xlink="http://www.w3.org/1999/xlink" version="1.1" width="319.609" height="226" viewBox="0 0 319.609 226">
<defs>
<clipPath id="clip_19">
<path transform="matrix(1,0,0,-1,0,226)" d="M0 226H319.609V0H0Z"/>
</clipPath>
<clipPath id="clip_20">
<path transform="matrix(1,0,0,-1,0,226)" d="M0 226H319.609V0H0Z"/>
</clipPath>
<clipPath id="clip_21">
<path transform="matrix(1,0,0,-1,0,226)" d="M0 226H319.609V0H0Z"/>
</clipPath>
</defs>
<g>
<g id="layer_1" data-name="Background">
</g>
<g id="layer_1" data-name="Objects">
<text fill="#d92327" xml:space="preserve" transform="matrix(1 0 -0 1 0 226)" font-size="7" font-family="Montserrat" font-weight="bold"><tspan y="-203.8662" x="28.0449 32.573904 37.662904 42.360605 47.526605 49.899606 55.401605 59.671606 61.708604 64.081607 69.7236 75.1206 80.6226 86.012599 91.514598 96.694599 102.196598 106.46659 108.50359 114.42559 118.91959 123.4136 128.1176">SPECIAL INAUGURAL OFFER</tspan></text>
<text fill="#111112" xml:space="preserve" transform="matrix(1 0 -0 1 0 226)" font-size="7" font-family="Montserrat" font-weight="bold"><tspan y="-187.0662" x="56.107904 61.287904 65.991909 71.6339 75.833209 81.335208 85.6052 87.642208 92.09421 98.016208 103.196208">RENTAL FOR </tspan><tspan y="-178.6662" x="41.701906 46.958906 49.331907 53.601907 57.926507 63.428506 65.46551 70.72951 72.76651 78.26851 83.11181 88.61381 93.72451 98.16951 104.84751 109.55151 115.19351">VILLA &#x0026; APARTMENT</tspan></text>
<text fill="#030505" xml:space="preserve" transform="matrix(1 0 -0 1 0 226)" font-size="3.7392" font-family="Montserrat" font-weight="bold"><tspan y="-158.7441" x="17.6826 20.449608 23.612973 26.776337">ROOM</tspan><tspan y="-154.25705" x="11.303525 14.018185 16.825949 19.20034 21.708971 24.588156 27.751519 30.518527 31.786116 34.29886">CATEGORIES</tspan></text>
<text fill="#030505" xml:space="preserve" transform="matrix(1 0 -0 1 0 226)" font-size="3" font-family="Montserrat" font-weight="bold"><tspan y="-157.0039" x="126.0332 126.906208 129.3842 131.4002 133.3412 135.5552 137.7752 138.7922 140.92221 142.82721 143.84421 146.3822"> DESCRIPTION</tspan></text>
<text fill="#030505" xml:space="preserve" transform="matrix(1 0 -0 1 0 226)" font-size="3" font-family="Montserrat"><tspan y="-138.0679" x="19.983208 21.933209 22.719208 24.267209 25.815209">VILLA</tspan></text>
<text fill="#030505" xml:space="preserve" transform="matrix(1 0 -0 1 0 226)" font-size="3" font-family="Montserrat"><tspan y="-138.6559" x="65.016208">&#x20b9;</tspan></text>
<text fill="#030505" xml:space="preserve" transform="matrix(1 0 -0 1 0 226)" font-size="2.9655" font-family="Montserrat"><tspan y="-138.6553" x="67.1768 68.89383 70.9341 72.974369 74.94316 76.68391">5000/-</tspan></text>
<text fill="#030505" xml:space="preserve" transform="matrix(1 0 -0 1 0 226)" font-size="3" font-family="Montserrat"><tspan y="-138.6553" x="85.3398">&#x20b9;</tspan></text>
<text fill="#030505" xml:space="preserve" transform="matrix(1 0 -0 1 0 226)" font-size="2.9655" font-family="Montserrat"><tspan y="-138.6553" x="87.5 89.196269 90.91329 91.7466 93.786869 95.82713 97.79593 99.536678">45,000/-</tspan></text>
<text fill="#030505" xml:space="preserve" transform="matrix(1 0 -0 1 0 226)" font-size="1.5749" font-family="Montserrat"><tspan y="-143.354" x="125.9463 127.17787 128.38739 129.46462 130.356 131.38599 132.44589 132.87741 133.97985 134.4712 135.3626 136.25319 137.42177 137.86432 138.29584 139.20613 140.31801 141.5417 142.65044 143.09299 143.5245 144.75608 145.24839 146.565 147.05637 148.37299 149.56519">DUPLEX VILLA, 3BHK, DINING </tspan><tspan y="-141.46413" x="128.59214 129.76071 130.90724 131.93643 133.10501 133.54756 133.97908 135.57776 136.74634 137.73853 138.96222 139.45359 140.7702 141.9624 142.39392 143.5625 144.70903 145.73902 146.9076">AREA, WASHING AREA,</tspan><tspan y="-139.57425" x="127.07393 128.09146 129.26004 130.57666 131.5279 132.65395 133.63669 134.07924 134.51076 135.50295 136.42473 137.74765 138.89513 140.0637 141.2559 142.28589 142.72844 143.15996 144.23719 145.5601 146.84917 147.7037">PANTRY, STORAGE, POOJA</tspan><tspan y="-137.68437" x="127.63302 128.77954 130.10247 131.42539 132.97351 133.41606 133.84758 135.01616 135.90755 136.79894 137.23046 138.37699 139.6999 141.02204 142.57016 143.56235 143.99387 145.64437 146.13573 147.08696">ROOM, ALL ROOMS WITH</tspan><tspan y="-135.7945" x="129.21579 130.32767 131.35686 132.58843 133.58061 134.02317 134.45468 136.05226 137.22084 138.36737 139.59894 140.74547 142.06839 143.18027 144.21025 145.20244 145.63396">BEDS, WARDROBES &#x0026;</tspan><tspan y="-133.90462" x="127.743259 128.82521 129.77645 130.64058 131.80916 132.96829 134.19199 135.22197 136.45354 136.88506 138.48358 139.65216 140.64435 141.86899 143.01552 144.33844 145.66136 147.20949">ATTACHED WASHROOMS</tspan><tspan y="-123.01418" x="128.55434 129.15438 129.58589 130.69777 131.92147 133.0302 133.47275 134.70432 135.19568 136.5123 137.00366 138.32028 139.51169 139.95424 140.38481 141.40235 142.57093 143.88755 144.83878 145.96468 146.94742">1 BHK,DINING, PANTRY,</tspan><tspan y="-121.124309" x="127.74326 128.82521 129.77645 130.64058 131.80916 132.96829 134.19199 135.22197 136.45354 136.88506 138.48358 139.65216 140.64435 141.86899 143.01552 144.33844 145.66136 147.20949">ATTACHED WASHROOMS</tspan><tspan y="-106.77224" x="128.38898 129.31659 129.74811 130.85999 132.08368 133.19242 133.63497 134.86653 135.3579 136.67452 137.16588 138.4825 139.6747 140.11725 140.54877 141.5663 142.73488 144.0515 145.00273 146.12863 147.11138">2 BHK,DINING, PANTRY,</tspan><tspan y="-104.88236" x="127.74327 128.82523 129.77646 130.6406 131.80918 132.9683 134.192 135.22199 136.45355 136.88507 138.4836 139.65218 140.64437 141.869 143.01554 144.33846 145.66138 147.2095">ATTACHED WASHROOMS</tspan><tspan y="-91.85636" x="128.94808 130.11666 130.54817 131.6947 133.01683 134.33975 135.88788 136.3194 137.9699 138.46126 139.41344 140.63713 141.06865 141.95925 142.4506 143.5521 144.04346 145.36008 146.55228">A ROOM WITH LIVING,</tspan><tspan y="-89.966487" x="128.73075 129.74828 130.91686 132.23348 133.18471 134.31076 135.2935 135.73606 136.96857 138.2907 139.50022 140.61209 141.50348 142.53347 142.96498 144.07686 145.10684 146.33841 146.78096">PANTRY,DOUBLE BED, </tspan><tspan y="-88.07661" x="127.760608 129.35929 130.52787 131.6744 132.90596 134.05249 135.37541 136.48729 137.51728 137.94879 139.04178 139.4733 140.55525 141.50649 142.37062 143.5392 144.69834 145.92203 146.95201">WARDROBE &#x0026; ATTACHED</tspan><tspan y="-86.18673" x="132.80974 134.40827 135.57685 136.56903 137.79273 138.93926 140.26139 141.5843">WASHROOM</tspan><tspan y="-74.50412" x="126.03137 127.19995 127.63148 128.778 130.10013 131.42305 132.97118 133.4027 135.05319 135.54456 136.49674 137.72043 138.15195 139.16854 140.33712 141.65373 142.60497 143.73087 144.71361 145.15616 145.58768 146.69956 147.72954 148.9611">A ROOM WITH PANTRY, BED,</tspan><tspan y="-72.61424" x="128.04724 129.64577 130.81435 131.96088 133.19245 134.33898 135.6619 136.77378 137.80376 138.2463 139.32826 140.2795 141.14363 142.31221 143.47135 144.69504 145.72502 146.95659">WARDROBE,ATTACHED </tspan><tspan y="-70.724369" x="132.55619 134.15471 135.32329 136.31548 137.53917 138.6857 140.00783 141.33075">WASHROOM</tspan><tspan y="-58.273206" x="130.7167 131.88529 132.87747 133.30899 134.38622 135.4162 136.56273 136.99425 137.98644 139.01642 140.11885 141.14884 142.29537 142.78673 143.73796">AS PER SEVERITY</tspan><tspan y="-56.383325" x="126.54952 127.87244 128.82367 129.25519 130.20642 131.43012 132.4601 132.89067 133.9082 134.99033 135.94156 136.43292 137.4629 138.77953 139.7317 140.09708 141.08927 141.52079 142.75235 143.24372 144.2359 145.26589 146.43447 147.42665 148.45664">OF THE PATIENT'S DISEASE </tspan></text>
<text fill="#030505" xml:space="preserve" transform="matrix(1 0 -0 1 0 226)" font-size="3" font-family="Montserrat"><tspan y="-121.2559" x="16.3828 17.3758 19.3438 21.5248 23.4868 24.1588 25.0048 27.080801 28.982802 30.644803">1BHK (APT)</tspan></text>
<text fill="#030505" xml:space="preserve" transform="matrix(1 0 -0 1 0 226)" font-size="3" font-family="Montserrat"><tspan y="-122.2159" x="65.0278">&#x20b9;</tspan></text>
<text fill="#030505" xml:space="preserve" transform="matrix(1 0 -0 1 0 226)" font-size="2.9655" font-family="Montserrat"><tspan y="-122.2158" x="67.1865 68.88277 70.923038 72.9633 74.93299 76.67374">4000/-</tspan></text>
<text fill="#030505" xml:space="preserve" transform="matrix(1 0 -0 1 0 226)" font-size="3" font-family="Montserrat"><tspan y="-122.2158" x="85.3398">&#x20b9;</tspan></text>
<text fill="#030505" xml:space="preserve" transform="matrix(1 0 -0 1 0 226)" font-size="2.9655" font-family="Montserrat"><tspan y="-122.2158" x="87.5 89.196269 90.91329 91.7466 93.786869 95.82713 97.79593 99.536678">45,000/-</tspan></text>
<text fill="#030505" xml:space="preserve" transform="matrix(1 0 -0 1 0 226)" font-size="3" font-family="Montserrat"><tspan y="-105.3369" x="15.7344 17.3514 18.023402 19.991402 22.172402 24.134402 24.806403 25.652403 27.728404 29.630404 31.292405">2 BHK (APT)</tspan></text>
<text fill="#030505" xml:space="preserve" transform="matrix(1 0 -0 1 0 226)" font-size="3" font-family="Montserrat"><tspan y="-105.3369" x="65.31239">&#x20b9;</tspan></text>
<text fill="#030505" xml:space="preserve" transform="matrix(1 0 -0 1 0 226)" font-size="2.9655" font-family="Montserrat"><tspan y="-105.3369" x="67.4727 69.16897 71.007579 72.84618 74.64713 76.38788">4666/-</tspan></text>
<text fill="#030505" xml:space="preserve" transform="matrix(1 0 -0 1 0 226)" font-size="3" font-family="Montserrat"><tspan y="-105.3369" x="85.3398">&#x20b9;</tspan></text>
<text fill="#030505" xml:space="preserve" transform="matrix(1 0 -0 1 0 226)" font-size="2.9655" font-family="Montserrat"><tspan y="-105.3369" x="87.5 89.196269 90.91329 91.7466 93.786869 95.82713 97.79593 99.536678">45,000/-</tspan></text>
<text fill="#030505" xml:space="preserve" transform="matrix(1 0 -0 1 0 226)" font-size="3" font-family="Montserrat"><tspan y="-90.9287" x="11.0039 12.905899 14.939899 16.7519 19.5509 20.336899 22.490899 25.289898 25.961899 27.701899 29.3639 31.517899 33.713899 34.499898">PREMIUM STUDIO</tspan><tspan y="-87.328708" x="14.8169 16.8929 18.6809 20.7569 22.760601 24.422602 27.221602 29.033602 31.391602">APARTMENT</tspan><tspan y="-73.9307" x="18.4799 20.2199 21.8819 24.0359 26.2319 27.017899">STUDIO</tspan><tspan y="-70.3307" x="14.8169 16.8929 18.6809 20.7569 22.760601 24.422602 27.221602 29.033602 31.391602">APARTMENT</tspan></text>
<text fill="#030505" xml:space="preserve" transform="matrix(1 0 -0 1 0 226)" font-size="3" font-family="Montserrat"><tspan y="-89.0957" x="65.0159">&#x20b9;</tspan></text>
<text fill="#030505" xml:space="preserve" transform="matrix(1 0 -0 1 0 226)" font-size="2.9655" font-family="Montserrat"><tspan y="-89.0957" x="67.1787 68.89276 70.93303 72.9733 74.94209 76.68284">3000/-</tspan></text>
<text fill="#030505" xml:space="preserve" transform="matrix(1 0 -0 1 0 226)" font-size="3" font-family="Montserrat"><tspan y="-89.0957" x="85.3301">&#x20b9;</tspan></text>
<text fill="#030505" xml:space="preserve" transform="matrix(1 0 -0 1 0 226)" font-size="2.9655" font-family="Montserrat"><tspan y="-89.0957" x="87.4902 89.204257 90.92128 91.754589 93.794849 95.83511 97.80391 99.544658">35,000/-</tspan></text>
<text fill="#030505" xml:space="preserve" transform="matrix(1 0 -0 1 0 226)" font-size="3" font-family="Montserrat"><tspan y="-72.0967" x="85.3301">&#x20b9;</tspan></text>
<text fill="#030505" xml:space="preserve" transform="matrix(1 0 -0 1 0 226)" font-size="2.9655" font-family="Montserrat"><tspan y="-72.0967" x="87.4902 89.204257 90.92128 91.754589 93.794849 95.83511 97.80391 99.544658">35,000/-</tspan></text>
<text fill="#030505" xml:space="preserve" transform="matrix(1 0 -0 1 0 226)" font-size="3" font-family="Montserrat"><tspan y="-72.0967" x="65.4717">&#x20b9;</tspan></text>
<text fill="#030505" xml:space="preserve" transform="matrix(1 0 -0 1 0 226)" font-size="2.9655" font-family="Montserrat"><tspan y="-72.0967" x="67.6318 68.76165 70.478679 72.518939 74.488628 76.22937">1500/-</tspan></text>
<text fill="#030505" xml:space="preserve" transform="matrix(1 0 -0 1 0 226)" font-size="3" font-family="Montserrat"><tspan y="-57.3232" x="16.4971 18.509802 20.879803 23.678803 25.340804 27.710804 29.714505">COMFORT</tspan><tspan y="-53.7232" x="16.131102 18.189103 20.265103 22.299103 24.111104 24.783104 26.937104 29.295104 30.081103">CARE UNIT</tspan></text>
<text fill="#030505" xml:space="preserve" transform="matrix(1 0 -0 1 0 226)" font-size="3" font-family="Montserrat"><tspan y="-55.9342" x="65.0251">&#x20b9;</tspan></text>
<text fill="#030505" xml:space="preserve" transform="matrix(1 0 -0 1 0 226)" font-size="2.9655" font-family="Montserrat"><tspan y="-55.9346" x="67.1865 68.88277 70.923038 72.9633 74.93299 76.67374">4000/-</tspan></text>
<text fill="#030505" xml:space="preserve" transform="matrix(1 0 -0 1 0 226)" font-size="3" font-family="Montserrat"><tspan y="-41.1479" x="13.6494 15.3894 17.291399 19.1034 21.1614 21.9474 24.0234 25.5714 26.2434 28.301402 30.377402 32.4114">SPECIAL CARE</tspan><tspan y="-37.5479" x="12.0174 14.8164 16.628399 18.824398 19.610398 21.668398 23.744399 25.292399 25.9644 27.7044 29.858399 30.644398 32.306398 34.118398">MEDICAL SUITES</tspan></text>
<text fill="#030505" xml:space="preserve" transform="matrix(1 0 -0 1 0 226)" font-size="3" font-family="Montserrat"><tspan y="-39.044904" x="65.027408">&#x20b9;</tspan></text>
<text fill="#030505" xml:space="preserve" transform="matrix(1 0 -0 1 0 226)" font-size="2.9655" font-family="Montserrat"><tspan y="-39.0454" x="67.1865 68.88277 70.923038 72.9633 74.93299 76.67374">4000/-</tspan></text>
<text fill="#030505" xml:space="preserve" transform="matrix(1 0 -0 1 0 226)" font-size="3" font-family="Montserrat"><tspan y="-138.6553" x="41.0107">&#x20b9;</tspan></text>
<text fill="#030505" xml:space="preserve" transform="matrix(1 0 -0 1 0 226)" font-size="2.9655" font-family="Montserrat"><tspan y="-138.6553" x="43.1709 44.300756 45.13406 46.851087 48.89135 49.724657 51.76492 53.805185 55.774869 57.515619">1,50,000/-</tspan></text>
<text fill="#030505" xml:space="preserve" transform="matrix(1 0 -0 1 0 226)" font-size="3" font-family="Montserrat"><tspan y="-122.2158" x="40.9961">&#x20b9;</tspan></text>
<text fill="#030505" xml:space="preserve" transform="matrix(1 0 -0 1 0 226)" font-size="2.9655" font-family="Montserrat"><tspan y="-122.2158" x="43.1563 44.286157 45.11946 46.866144 48.906408 49.73971 51.779977 53.82024 55.789037 57.529787">1,20,000/-</tspan></text>
<text fill="#030505" xml:space="preserve" transform="matrix(1 0 -0 1 0 226)" font-size="3" font-family="Montserrat"><tspan y="-105.3369" x="41.0215">&#x20b9;</tspan></text>
<text fill="#030505" xml:space="preserve" transform="matrix(1 0 -0 1 0 226)" font-size="2.9655" font-family="Montserrat"><tspan y="-105.3369" x="43.1816 44.311456 45.14476 46.841028 48.88129 49.714597 51.75486 53.795125 55.76481 57.505559">1,40,000/-</tspan></text>
<text fill="#030505" xml:space="preserve" transform="matrix(1 0 -0 1 0 226)" font-size="3" font-family="Montserrat"><tspan y="-89.0957" x="41.9346">&#x20b9;</tspan></text>
<text fill="#030505" xml:space="preserve" transform="matrix(1 0 -0 1 0 226)" font-size="2.9655" font-family="Montserrat"><tspan y="-89.0957" x="44.0947 45.930345 47.970609 48.803915 50.844179 52.88444 54.853239 56.593988">90,000/-</tspan></text>
<text fill="#030505" xml:space="preserve" transform="matrix(1 0 -0 1 0 226)" font-size="3" font-family="Montserrat"><tspan y="-72.0967" x="42.1641">&#x20b9;</tspan></text>
<text fill="#030505" xml:space="preserve" transform="matrix(1 0 -0 1 0 226)" font-size="2.9655" font-family="Montserrat"><tspan y="-72.0967" x="44.3242 46.020467 47.73749 48.570798 50.61106 52.651327 54.62012 56.36087">45,000/-</tspan></text>
<text fill="#030505" xml:space="preserve" transform="matrix(1 0 -0 1 0 226)" font-size="3" font-family="Montserrat"><tspan y="-55.9346" x="40.9961">&#x20b9;</tspan></text>
<text fill="#030505" xml:space="preserve" transform="matrix(1 0 -0 1 0 226)" font-size="2.9655" font-family="Montserrat"><tspan y="-55.9346" x="43.1563 44.286157 45.11946 46.866144 48.906408 49.73971 51.779977 53.82024 55.789037 57.529787">1,20,000/-</tspan></text>
<text fill="#030505" xml:space="preserve" transform="matrix(1 0 -0 1 0 226)" font-size="3" font-family="Montserrat"><tspan y="-39.0454" x="40.9961">&#x20b9;</tspan></text>
<text fill="#030505" xml:space="preserve" transform="matrix(1 0 -0 1 0 226)" font-size="2.9655" font-family="Montserrat"><tspan y="-39.0454" x="43.1563 44.286157 45.11946 46.866144 48.906408 49.73971 51.779977 53.82024 55.789037 57.529787">1,20,000/-</tspan></text>
<text fill="#030505" xml:space="preserve" transform="matrix(1 0 -0 1 0 226)" font-size="3" font-family="Montserrat"><tspan y="-39.0449" x="85.3398">&#x20b9;</tspan></text>
<text fill="#030505" xml:space="preserve" transform="matrix(1 0 -0 1 0 226)" font-size="2.9655" font-family="Montserrat"><tspan y="-39.0449" x="87.5 89.196269 90.91329 91.7466 93.786869 95.82713 97.79593 99.536678">45,000/-</tspan></text>
<text fill="#030505" xml:space="preserve" transform="matrix(1 0 -0 1 0 226)" font-size="3" font-family="Montserrat"><tspan y="-138.6553" x="107.9053">&#x20b9;</tspan></text>
<text fill="#030505" xml:space="preserve" transform="matrix(1 0 -0 1 0 226)" font-size="2.9655" font-family="Montserrat"><tspan y="-138.6553" x="110.0654 111.19525 112.91228 114.952548 116.92223 118.66298">1500/-</tspan></text>
<text fill="#030505" xml:space="preserve" transform="matrix(1 0 -0 1 0 226)" font-size="3" font-family="Montserrat"><tspan y="-122.2158" x="107.9053">&#x20b9;</tspan></text>
<text fill="#030505" xml:space="preserve" transform="matrix(1 0 -0 1 0 226)" font-size="2.9655" font-family="Montserrat"><tspan y="-122.2158" x="110.0654 111.19525 112.91228 114.952548 116.92223 118.66298">1500/-</tspan></text>
<text fill="#030505" xml:space="preserve" transform="matrix(1 0 -0 1 0 226)" font-size="3" font-family="Montserrat"><tspan y="-105.3369" x="107.9053">&#x20b9;</tspan></text>
<text fill="#030505" xml:space="preserve" transform="matrix(1 0 -0 1 0 226)" font-size="2.9655" font-family="Montserrat"><tspan y="-105.3369" x="110.0654 111.19525 112.91228 114.952548 116.92223 118.66298">1500/-</tspan></text>
<text fill="#030505" xml:space="preserve" transform="matrix(1 0 -0 1 0 226)" font-size="3" font-family="Montserrat"><tspan y="-89.0957" x="108.3828">&#x20b9;</tspan></text>
<text fill="#030505" xml:space="preserve" transform="matrix(1 0 -0 1 0 226)" font-size="2.9655" font-family="Montserrat"><tspan y="-89.0957" x="110.543 111.67285 112.802707 114.64131 116.44107 118.181819">1166/-</tspan></text>
<text fill="#030505" xml:space="preserve" transform="matrix(1 0 -0 1 0 226)" font-size="3" font-family="Montserrat"><tspan y="-72.4282" x="108.3828">&#x20b9;</tspan></text>
<text fill="#030505" xml:space="preserve" transform="matrix(1 0 -0 1 0 226)" font-size="2.9655" font-family="Montserrat"><tspan y="-72.4282" x="110.543 111.67285 112.802707 114.64131 116.44107 118.181819">1166/-</tspan></text>
<text fill="#030505" xml:space="preserve" transform="matrix(1 0 -0 1 0 226)" font-size="3" font-family="Montserrat"><tspan y="-39.0449" x="107.9053">&#x20b9;</tspan></text>
<text fill="#030505" xml:space="preserve" transform="matrix(1 0 -0 1 0 226)" font-size="2.9655" font-family="Montserrat"><tspan y="-39.0449" x="110.0654 111.19525 112.91228 114.952548 116.92223 118.66298">1500/-</tspan><tspan y="-55.933423" x="92.71129 113.472759">--</tspan><tspan y="-39.0449" x="136.94766">-</tspan></text>
<text fill="#030505" xml:space="preserve" transform="matrix(1 0 -0 1 0 226)" font-size="2.5" font-family="Montserrat" font-weight="bold"><tspan y="-158.8838" x="64.7217">1</tspan></text>
<text fill="#030505" xml:space="preserve" transform="matrix(1 0 -0 1 0 226)" font-size="1.4575" font-family="Montserrat" font-weight="bold"><tspan y="-159.7163" x="65.7344 66.66283">ST</tspan></text>
<text fill="#030505" xml:space="preserve" transform="matrix(1 0 -0 1 0 226)" font-size="2.5" font-family="Montserrat" font-weight="bold"><tspan y="-158.8838" x="67.5879 68.3154 70.1329 71.8129 73.662899 75.280399 77.39539 79.41039"> PERSON/</tspan><tspan y="-155.8838" x="67.9454 69.9854 71.8399 73.56564 74.488147 76.30315">DAY(&#x20b9;)</tspan><tspan y="-158.8838" x="42.225397">1</tspan></text>
<text fill="#030505" xml:space="preserve" transform="matrix(1 0 -0 1 0 226)" font-size="1.4575" font-family="Montserrat" font-weight="bold"><tspan y="-159.7163" x="43.2373 44.16573">ST</tspan></text>
<text fill="#030505" xml:space="preserve" transform="matrix(1 0 -0 1 0 226)" font-size="2.5" font-family="Montserrat" font-weight="bold"><tspan y="-158.8838" x="45.0908 45.818304 47.6358 49.3158 51.1658 52.7833 54.8983 56.9133"> PERSON/</tspan><tspan y="-155.8838" x="43.1983 45.583299 47.6983 49.7133 51.3008 53.3158 54.2383 56.0533">MONTH(&#x20b9;)</tspan><tspan y="-159.5213" x="84.3058 86.2708 88.3358 90.4008 91.24831 92.83581 93.68331 95.79831 97.81331 99.778308">ADDITIONAL</tspan><tspan y="-156.5213" x="84.4358">2</tspan></text>
<text fill="#030505" xml:space="preserve" transform="matrix(1 0 -0 1 0 226)" font-size="1.4575" font-family="Montserrat" font-weight="bold"><tspan y="-157.354" x="85.9346 87.109348">ND</tspan></text>
<text fill="#030505" xml:space="preserve" transform="matrix(1 0 -0 1 0 226)" font-size="2.5" font-family="Montserrat" font-weight="bold"><tspan y="-156.5215" x="88.3135 89.041 90.8585 92.5385 94.3885 96.006 98.120998 100.135997"> PERSON/</tspan><tspan y="-153.5215" x="85.916 88.301 90.416 92.431 94.0185 96.0335 96.956 98.771">MONTH(&#x20b9;)</tspan><tspan y="-159.5215" x="105.701007 107.666 109.731 111.796009 112.64351 114.23101 115.078517 117.19351 119.20851 121.17351">ADDITIONAL</tspan><tspan y="-156.5215" x="105.831">2</tspan></text>
<text fill="#030505" xml:space="preserve" transform="matrix(1 0 -0 1 0 226)" font-size="1.4575" font-family="Montserrat" font-weight="bold"><tspan y="-157.354" x="107.3311 108.505847">ND</tspan></text>
<text fill="#030505" xml:space="preserve" transform="matrix(1 0 -0 1 0 226)" font-size="2.5" font-family="Montserrat" font-weight="bold"><tspan y="-156.5215" x="109.71 110.4375 112.255 113.935 115.784999 117.4025 119.517498 121.53249"> PERSON/</tspan><tspan y="-153.5215" x="109.5625 111.6025 113.457 115.182498 116.104999 117.92">DAY(&#x20b9;)</tspan></text>
<g clip-path="url(#clip_19)">
<path transform="matrix(1,0,0,-1,146.9421,57.621599)" d="M0 0H-133.334C-135.999 0-138.159-2.16-138.159-4.825V-132.123C-138.159-134.788-135.999-136.948-133.334-136.948H0C2.665-136.948 4.825-134.788 4.825-132.123V-4.825C4.825-2.16 2.665 0 0 0M0-1C2.109-1 3.825-2.716 3.825-4.825V-132.123C3.825-134.232 2.109-135.948 0-135.948H-133.334C-135.443-135.948-137.159-134.232-137.159-132.123V-4.825C-137.159-2.716-135.443-1-133.334-1Z" fill="#030505"/>
<path transform="matrix(1,0,0,-1,9.4818,78.1295)" stroke-width="1" stroke-linecap="butt" stroke-miterlimit="10" stroke-linejoin="miter" fill="none" stroke="#030505" d="M0 0H141.587"/>
<path transform="matrix(1,0,0,-1,9.4818,94.701007)" stroke-width="1" stroke-linecap="butt" stroke-miterlimit="10" stroke-linejoin="miter" fill="none" stroke="#030505" d="M0 0H141.587"/>
<path transform="matrix(1,0,0,-1,9.4818,111.2724)" stroke-width="1" stroke-linecap="butt" stroke-miterlimit="10" stroke-linejoin="miter" fill="none" stroke="#030505" d="M0 0H141.587"/>
<path transform="matrix(1,0,0,-1,9.4818,127.8438)" stroke-width="1" stroke-linecap="butt" stroke-miterlimit="10" stroke-linejoin="miter" fill="none" stroke="#030505" d="M0 0H141.587"/>
<path transform="matrix(1,0,0,-1,9.4818,144.4153)" stroke-width="1" stroke-linecap="butt" stroke-miterlimit="10" stroke-linejoin="miter" fill="none" stroke="#030505" d="M0 0H141.587"/>
<path transform="matrix(1,0,0,-1,9.4818,160.9867)" stroke-width="1" stroke-linecap="butt" stroke-miterlimit="10" stroke-linejoin="miter" fill="none" stroke="#030505" d="M0 0H141.587"/>
<path transform="matrix(1,0,0,-1,9.4818,177.5581)" stroke-width="1" stroke-linecap="butt" stroke-miterlimit="10" stroke-linejoin="miter" fill="none" stroke="#030505" d="M0 0H141.587"/>
<path transform="matrix(1,0,0,-1,60.7629,57.621706)" stroke-width="1" stroke-linecap="butt" stroke-miterlimit="10" stroke-linejoin="miter" fill="none" stroke="#030505" d="M0 0V-136.508"/>
<path transform="matrix(1,0,0,-1,82.3502,57.621706)" stroke-width="1" stroke-linecap="butt" stroke-miterlimit="10" stroke-linejoin="miter" fill="none" stroke="#030505" d="M0 0V-136.508"/>
<path transform="matrix(1,0,0,-1,124.0404,57.621706)" stroke-width="1" stroke-linecap="butt" stroke-miterlimit="10" stroke-linejoin="miter" fill="none" stroke="#030505" d="M0 0V-136.508"/>
<path transform="matrix(1,0,0,-1,39.1756,57.621706)" stroke-width="1" stroke-linecap="butt" stroke-miterlimit="10" stroke-linejoin="miter" fill="none" stroke="#030505" d="M0 0V-136.508"/>
</g>
<text fill="#d92327" xml:space="preserve" transform="matrix(1 0 -0 1 0 226)" font-size="7" font-family="Montserrat" font-weight="bold"><tspan y="-203.9644" x="168.9888 171.3618 177.0038 182.1698 186.39081 191.8928 196.42182 198.79482 204.71681 210.35881">INCLUSIONS</tspan></text>
<text fill="#030505" xml:space="preserve" transform="matrix(1 0 -0 1 0 226)" font-size="3" font-family="Montserrat"><tspan y="-189.1357" x="173.4551 175.3451 177.3071 179.8151 180.7511 183.2711 185.45511 186.27712 188.4851 189.42111 191.23311 192.16912 194.1941 196.15612 198.66411 199.48612 201.44812 203.95612 206.18212 208.30011 209.99811 211.96012 214.3061 215.12812 216.94011 219.24411 220.94211 222.44211 224.3141">SENIOR CITIZEN ENABLED FULLY </tspan><tspan y="-184.7347" x="173.4551 175.26709 177.57109 179.7551 182.26309 183.1991 185.0891 187.42009 189.3821 191.72809 192.5501 194.7761 195.7121 197.8961 198.71811 200.88112 203.40113 205.90912 208.25511 209.19112 211.00312 211.93912 214.45912 216.96712 218.92913 221.27512 222.09712 224.19713 225.13314 226.83113 228.52913 230.75513 232.64513 233.46714 235.54914">FURNISHED AIR CONDITIONED VILLAS &#x0026; </tspan><tspan y="-180.3337" x="173.4551 175.68109 177.6194 179.8454 181.99971 183.8117 186.76071 188.72272 191.23072 193.04271 194.93271 195.77571 196.59772 199.74172 202.07271 204.03472 205.99672 207.69472 208.51673 210.72473 213.05573 215.28173 216.21773 218.40174 219.22374 221.40775 223.63375 226.58275 228.63475 230.52475 231.36775">APARTMENTS, WHEEL CHAIR RAMPS, </tspan><tspan y="-175.9357" x="173.4551 176.50009 178.72609 180.61609 182.94709 185.13109 187.6511 190.1711 193.1201 193.94211 195.90412 198.41211 200.6381 202.7561 204.4541 206.4161 208.7621 209.5841 212.7281 213.66411 215.4761 217.8071 218.6291 220.8551 223.3631 225.1751 226.1111 226.9331 228.8231 230.9351 231.87111 234.2171">WASHROOM ENABLED WITH ANTI SKID </tspan><tspan y="-171.5347" x="173.4551 175.26709 176.90599 179.426 181.946 184.13 185.06601 187.574 189.845 190.688 191.51001 193.69402 195.92002 196.85602 198.55402 199.49002 201.99802 204.26902 206.15901 207.00202 207.82402 209.91802 212.14402 214.32802 216.21802 217.06102 217.88303 219.84503 221.54303 223.50504 225.48564 227.54604 229.30103 231.82103">FLOORING, RAILINGS, BARS, ELEVATOR</tspan><tspan y="-162.7357" x="173.4551 175.78609 178.30609 181.2551 183.2171 184.03911 186.2138 188.5178 190.2725 192.79251 195.74152 197.80222 199.61421 200.55022 203.07022 205.57822 206.42122 207.24323 209.20523 212.15424 214.11624 216.30025 218.57125 220.53325 223.04125 225.24924 227.12123">HOME AUTOMATION, EMERGENCY </tspan><tspan y="-158.3347" x="173.4551 175.66309 177.88909 179.58708 181.28508 182.10709 183.97908 185.82378 187.71378 189.52577 191.48778 194.43679 195.25879 197.2208 199.72879 201.95479 204.07279 205.77079 207.73279">CALL SYSTEM ENABLED</tspan><tspan y="-149.5357" x="173.4551 175.22209 176.9381 178.2341 179.9321 180.7541 182.6441 184.60611 186.81412 189.11812 191.30213 192.23813 194.05013 195.92212 196.76512 197.58713 199.47713 201.78113 203.93814 206.03815 208.00016 208.93616 210.63416 212.33216 214.55815 217.06615 219.27414 221.23615 222.07915">24*7 SECURITY, SURVEILLANCE, </tspan><tspan y="-145.13771" x="173.4551 175.61809 178.13809 180.64609 182.8541 184.8161 185.7521 187.93611 190.2071 192.16912 192.99112 194.88112 196.84313 199.00043 201.10044 202.03644 204.24445 206.20645">CONCEIRGE SERVICES</tspan><tspan y="-136.33571" x="173.4551 175.26709 177.4511 178.3871 180.7331 183.00409 184.9661 185.7881 187.8701 188.69211 190.5041">FRIDGE &#x0026; TV</tspan><tspan y="-127.53671" x="173.4551 175.4171 177.1151 179.0771 181.2851 183.09709 185.2811 186.2171 188.42511 189.36112 191.17311 193.0451 193.86711 195.94911 196.77112 199.81612 201.87682 203.68881 205.65082 207.83483 208.65683 210.77483 211.71083 213.40883">ELECTRICITY &#x0026; WATER BILL</tspan><tspan y="-118.73772" x="173.4551 175.3451 177.3071 179.1191 179.9411 182.2871 183.2231 185.1851 186.9971 187.8191 189.7091 191.67111 193.82842 195.92842 196.86443 199.07242 201.03443 202.92443 203.74643 206.45844 207.28044 209.46445 211.42646 213.31645 214.96285 217.13785 219.44185 221.62586 223.85186 226.35985">SET DIET SERVICES @ RESTAURANT</tspan><tspan y="-109.93872" x="173.4551 175.5071 177.6911 178.6271 180.5171 182.3291 183.2651 185.7731 187.7351 188.55712 190.8881 193.40811 195.71212 197.60211 199.56412 200.38613 202.49813 204.46013 206.42214 208.47414 209.41014 211.91814">PRISTINE HOUSE KEEPING</tspan><tspan y="-101.139728" x="173.4551 175.66309 177.31069 179.61469 181.73268 182.55469 184.88568 187.40569 189.70969 191.59969">CLUB HOUSE</tspan><tspan y="-92.33772" x="173.4551 175.5551 176.4911 178.6091 180.7931 183.0191 185.5271 187.3391 188.1611 190.36911 192.67311 194.15572 195.96772 198.27172 200.45572 202.68172 204.37972 205.20172 207.25373 209.43773 211.95774 214.22873 216.41274 218.63874 221.58774 224.53675 226.49875 228.38875">VIBRANT CULTURAL PROGRAMMES </tspan><tspan y="-83.53873" x="173.4551 175.61809 178.13809 181.0871 184.0361 186.3401 188.8481 189.7841 191.5961 193.4681 194.2901 196.6211 198.84709 200.54509">COMMUNITY HALL</tspan><tspan y="-74.73973" x="173.4551 175.68109 178.6301 180.6821 183.01309 183.9491 185.7611 188.09209 190.0541 192.11539 193.92739 196.11139">AMPHITHEATRE</tspan><tspan y="-65.940738" x="173.4551 175.15309 177.37909 179.88709 182.23308 184.12308 186.33109 188.55709 190.60909 191.54509 194.05309 196.32408 198.08509 200.33509 202.56108 204.74509 207.09108 209.05309">LANDSCAPING/GARDEN</tspan><tspan y="-57.141736" x="173.4551 175.25778 177.77779 180.02779 182.25379 183.07579 184.96579 186.9278 188.8178 190.7078 191.6438 194.1638 196.6718 198.5294 200.2904 203.23941 205.20142 207.54741 208.48342 210.1298 212.1914 214.0034 214.9394 217.45941">YOGA SESSIONS/MEDITATION</tspan><tspan y="-48.339738" x="173.4551 175.54878 177.77478 179.66478 180.60079 182.80878 183.63079 185.68279 188.01378 189.85938 191.74938 192.68538 195.14809 196.96009 199.29108 201.25308 203.43709 205.66309 207.69139">BASIC PHYSIOTHERAPY</tspan><tspan y="-39.540739" x="173.4551 175.6931 177.56511">GYM</tspan><tspan y="-30.741738" x="173.4551 175.3451 178.48909 179.4251 182.3741 185.3231 186.25911 188.7671 191.0381 191.8601 193.91211 196.43212 198.95212 200.65012 201.49312 202.31513 203.94113 206.16713 208.37512 210.67913 212.70412 214.72911">SWIMMING POOL, JACUZZI</tspan><tspan y="-21.942738" x="173.4551 175.15309 176.0891 178.20709 180.3911 182.6171 184.7618">LIBRARY</tspan></text>
<g clip-path="url(#clip_20)">
<path transform="matrix(1,0,0,-1,0,226)" d="M218.743 197.375H168.989V198.149H218.743Z" fill="#030505"/>
<path transform="matrix(1,0,0,-1,168.9884,35.781999)" d="M0 0C0-.476 .386-.861 .861-.861 1.337-.861 1.723-.476 1.723 0 1.723 .476 1.337 .861 .861 .861 .386 .861 0 .476 0 0" fill="#030505"/>
<path transform="matrix(1,0,0,-1,168.9884,62.2677)" d="M0 0C0-.476 .386-.861 .861-.861 1.337-.861 1.723-.476 1.723 0 1.723 .476 1.337 .861 .861 .861 .386 .861 0 .476 0 0" fill="#030505"/>
<path transform="matrix(1,0,0,-1,168.9884,75.450199)" d="M0 0C0-.476 .386-.861 .861-.861 1.337-.861 1.723-.476 1.723 0 1.723 .476 1.337 .861 .861 .861 .386 .861 0 .476 0 0" fill="#030505"/>
<path transform="matrix(1,0,0,-1,168.9884,88.443698)" d="M0 0C0-.476 .386-.861 .861-.861 1.337-.861 1.723-.476 1.723 0 1.723 .476 1.337 .861 .861 .861 .386 .861 0 .476 0 0" fill="#030505"/>
<path transform="matrix(1,0,0,-1,168.9884,97.348499)" d="M0 0C0-.476 .386-.861 .861-.861 1.337-.861 1.723-.476 1.723 0 1.723 .476 1.337 .861 .861 .861 .386 .861 0 .476 0 0" fill="#030505"/>
<path transform="matrix(1,0,0,-1,168.9884,106.2532)" d="M0 0C0-.476 .386-.861 .861-.861 1.337-.861 1.723-.476 1.723 0 1.723 .476 1.337 .861 .861 .861 .386 .861 0 .476 0 0" fill="#030505"/>
<path transform="matrix(1,0,0,-1,168.9884,114.9516)" d="M0 0C0-.476 .386-.861 .861-.861 1.337-.861 1.723-.476 1.723 0 1.723 .476 1.337 .861 .861 .861 .386 .861 0 .476 0 0" fill="#030505"/>
<path transform="matrix(1,0,0,-1,168.9884,123.6501)" d="M0 0C0-.476 .386-.861 .861-.861 1.337-.861 1.723-.476 1.723 0 1.723 .476 1.337 .861 .861 .861 .386 .861 0 .476 0 0" fill="#030505"/>
<path transform="matrix(1,0,0,-1,168.9884,132.55481)" d="M0 0C0-.476 .386-.861 .861-.861 1.337-.861 1.723-.476 1.723 0 1.723 .476 1.337 .861 .861 .861 .386 .861 0 .476 0 0" fill="#030505"/>
<path transform="matrix(1,0,0,-1,168.9884,141.4596)" d="M0 0C0-.476 .386-.861 .861-.861 1.337-.861 1.723-.476 1.723 0 1.723 .476 1.337 .861 .861 .861 .386 .861 0 .476 0 0" fill="#030505"/>
<path transform="matrix(1,0,0,-1,168.9884,150.15799)" d="M0 0C0-.476 .386-.861 .861-.861 1.337-.861 1.723-.476 1.723 0 1.723 .476 1.337 .861 .861 .861 .386 .861 0 .476 0 0" fill="#030505"/>
<path transform="matrix(1,0,0,-1,168.9884,158.9437)" d="M0 0C0-.476 .386-.861 .861-.861 1.337-.861 1.723-.476 1.723 0 1.723 .476 1.337 .861 .861 .861 .386 .861 0 .476 0 0" fill="#030505"/>
<path transform="matrix(1,0,0,-1,168.9884,167.7294)" d="M0 0C0-.476 .386-.861 .861-.861 1.337-.861 1.723-.476 1.723 0 1.723 .476 1.337 .861 .861 .861 .386 .861 0 .476 0 0" fill="#030505"/>
<path transform="matrix(1,0,0,-1,168.9884,176.5151)" d="M0 0C0-.476 .386-.861 .861-.861 1.337-.861 1.723-.476 1.723 0 1.723 .476 1.337 .861 .861 .861 .386 .861 0 .476 0 0" fill="#030505"/>
<path transform="matrix(1,0,0,-1,168.9884,185.3008)" d="M0 0C0-.476 .386-.861 .861-.861 1.337-.861 1.723-.476 1.723 0 1.723 .476 1.337 .861 .861 .861 .386 .861 0 .476 0 0" fill="#030505"/>
<path transform="matrix(1,0,0,-1,168.9884,194.0866)" d="M0 0C0-.476 .386-.861 .861-.861 1.337-.861 1.723-.476 1.723 0 1.723 .476 1.337 .861 .861 .861 .386 .861 0 .476 0 0" fill="#030505"/>
<path transform="matrix(1,0,0,-1,168.9884,203.0627)" d="M0 0C0-.476 .386-.861 .861-.861 1.337-.861 1.723-.476 1.723 0 1.723 .476 1.337 .861 .861 .861 .386 .861 0 .476 0 0" fill="#030505"/>
</g>
<text fill="#030505" xml:space="preserve" transform="matrix(1 0 -0 1 0 226)" font-size="3" font-family="Montserrat"><tspan y="-189.1357" x="249.0947 251.2577 253.77771 256.7267 259.67573 261.9797 264.4877 265.4237 267.23573 269.10774 269.92973 271.61244 273.83845 276.02244 278.97145 279.90745 282.41545">COMMUNITY FARMING</tspan><tspan y="-180.3337" x="249.0947 251.6147 254.1227 256.3307 258.2927 259.1147 261.3407 262.1627 265.1117 267.63169 270.13969 271.9517 274.28269 275.10469 278.05369 280.0157 282.3617 283.2977 285.5057 287.73173 289.42973 290.2517 292.45973 294.7907 296.75273 298.96073 301.07273 303.3767">ONCE A MONTH MEDICAL CHECKUP</tspan><tspan y="-171.5347" x="249.0947 251.21269 252.85039 255.37039 257.89039 260.2364 261.05839 261.9944 264.50239 266.6024 268.5644 270.4544 272.26643 273.20243 275.45243 277.51313 279.32514 280.26115 282.78114 285.28913 286.1111 287.9711 288.7931 291.7421 294.2621 296.77009 298.5821 300.9131 302.4131">BLOOD INVESTIGATION 6 MONTHLY</tspan><tspan y="-167.1367" x="249.0947 250.0907 252.43669 253.3727 255.5987 257.7167 259.6787 261.49073 262.42674 264.63475 265.47773 266.2997 268.4837 270.4457 272.9537 275.17973 276.87773 277.6997 279.7517 281.9357 284.4557 286.2677 287.2037 288.9017 290.8637 291.7067 292.5287 294.7367 296.8547 299.0627 299.9057 300.7277 302.6897 304.8977 307.139">(DIABETIC, RENAL PROFILE, CBC, ECG)</tspan><tspan y="-158.3347" x="249.0947 251.0567 253.5647 255.3767 257.33869 259.49269 261.13938 263.3654 264.3014 266.8094 269.7584 271.7204 274.2284 276.0404 276.8624 279.0884 281.2724 283.2344">ENTERTAINMENT AREA</tspan><tspan y="-149.5357" x="249.0947 250.0307 252.5387 254.88469 257.4047 259.92469 262.10868 262.93067 265.01268 265.83467 268.35466 270.65864 272.47065 274.81666 277.33665 279.85664 282.04063 282.8626 285.1126 287.33863 290.28764 292.24964 294.13966 294.96165 295.95765 297.76966 299.73167 302.23966 304.74766 305.68367 307.57368">INDOOR &#x0026; OUTDOOR GAMES (TENNIS </tspan><tspan y="-145.13771" x="249.0947 251.2577 253.77771 256.0817 258.23509 260.0471 260.89009 261.71208 263.76408 264.70008 266.90809 269.02009 270.71809 272.68009 274.7738 276.99983 278.6978 280.3958">COURT, PICKLEBALL)</tspan><tspan y="-136.33571" x="249.0947 250.9067 253.0907 255.3167 257.8247 259.71473 261.76673 264.2867 266.4401 268.0874 270.1481 271.9601 272.89613 275.4161 277.9241 278.7461 281.8901 282.8261 284.63813 286.96913 287.90513 290.41313 291.2351 293.04713 295.3781 297.34013 298.1621 300.37013 302.59614 305.54515 307.59715 309.90113">TRANSPORTATION WITHIN THE CAMPUS</tspan><tspan y="-127.53671" x="249.0947 251.36569 253.3277 255.8357 257.7977 259.9817 262.0433 263.798 266.318 268.50199 269.32398 271.41889 273.6449 275.8529 277.9649 278.7869 281.09089">GENERATOR BACK UP</tspan></text>
<g clip-path="url(#clip_21)">
<path transform="matrix(1,0,0,-1,244.4926,35.972398)" d="M0 0C0-.476 .386-.861 .861-.861 1.337-.861 1.723-.476 1.723 0 1.723 .476 1.337 .861 .861 .861 .386 .861 0 .476 0 0" fill="#030505"/>
<path transform="matrix(1,0,0,-1,244.4926,44.662904)" d="M0 0C0-.476 .386-.861 .861-.861 1.337-.861 1.723-.476 1.723 0 1.723 .476 1.337 .861 .861 .861 .386 .861 0 .476 0 0" fill="#030505"/>
<path transform="matrix(1,0,0,-1,244.4926,53.353395)" d="M0 0C0-.476 .386-.861 .861-.861 1.337-.861 1.723-.476 1.723 0 1.723 .476 1.337 .861 .861 .861 .386 .861 0 .476 0 0" fill="#030505"/>
<path transform="matrix(1,0,0,-1,244.4926,66.710498)" d="M0 0C0-.476 .386-.861 .861-.861 1.337-.861 1.723-.476 1.723 0 1.723 .476 1.337 .861 .861 .861 .386 .861 0 .476 0 0" fill="#030505"/>
<path transform="matrix(1,0,0,-1,244.4926,75.3772)" d="M0 0C0-.476 .386-.861 .861-.861 1.337-.861 1.723-.476 1.723 0 1.723 .476 1.337 .861 .861 .861 .386 .861 0 .476 0 0" fill="#030505"/>
<path transform="matrix(1,0,0,-1,244.4926,88.504199)" d="M0 0C0-.476 .386-.861 .861-.861 1.337-.861 1.723-.476 1.723 0 1.723 .476 1.337 .861 .861 .861 .386 .861 0 .476 0 0" fill="#030505"/>
<path transform="matrix(1,0,0,-1,244.4926,97.1709)" d="M0 0C0-.476 .386-.861 .861-.861 1.337-.861 1.723-.476 1.723 0 1.723 .476 1.337 .861 .861 .861 .386 .861 0 .476 0 0" fill="#030505"/>
<path transform="matrix(1,0,0,-1,103.9375,57.621706)" stroke-width="1" stroke-linecap="butt" stroke-miterlimit="10" stroke-linejoin="miter" fill="none" stroke="#030505" d="M0 0V-136.508"/>
</g>
</g>
</g>
</svg>
