<svg width="183" height="34" viewBox="0 0 183 34" fill="none" xmlns="http://www.w3.org/2000/svg">
<path d="M-0.00663095 22.7128L6.16973 22.1123C6.54146 24.1854 7.29206 25.708 8.42153 26.6802C9.5653 27.6524 11.1022 28.1385 13.0324 28.1385C15.0768 28.1385 16.6138 27.7096 17.6432 26.8518C18.6869 25.9797 19.2087 24.9646 19.2087 23.8065C19.2087 23.0631 18.9871 22.434 18.5439 21.9193C18.115 21.3903 17.3572 20.9328 16.2707 20.5468C15.5272 20.2894 13.833 19.8319 11.188 19.1742C7.78531 18.3307 5.39769 17.2942 4.02516 16.0646C2.09505 14.3347 1.12999 12.2258 1.12999 9.73814C1.12999 8.13686 1.58035 6.64281 2.48107 5.25599C3.39609 3.85487 4.70427 2.78973 6.40563 2.06058C8.12129 1.33142 10.1872 0.966846 12.6034 0.966846C16.5494 0.966846 19.5161 1.83182 21.5034 3.56178C23.505 5.29173 24.5558 7.60072 24.6559 10.4887L18.308 10.7675C18.0364 9.15195 17.4502 7.99389 16.5494 7.29333C15.663 6.57847 14.3262 6.22104 12.5391 6.22104C10.6948 6.22104 9.25076 6.59992 8.20707 7.35766C7.53511 7.84377 7.19912 8.49429 7.19912 9.30922C7.19912 10.0527 7.51366 10.6889 8.14273 11.2179C8.94337 11.8899 10.8878 12.5904 13.976 13.3196C17.0641 14.0487 19.3445 14.8065 20.8171 15.5928C22.304 16.3649 23.4621 17.43 24.2913 18.7882C25.1349 20.1322 25.5566 21.7978 25.5566 23.7851C25.5566 25.5865 25.0562 27.2736 24.0554 28.8463C23.0546 30.4189 21.6392 31.5913 19.8092 32.3633C17.9792 33.1211 15.6988 33.5 12.968 33.5C8.99341 33.5 5.94098 32.585 3.8107 30.7549C1.68043 28.9106 0.407986 26.2299 -0.00663095 22.7128ZM35.3573 32.9424L27.8513 1.50299L34.3494 1.50299L39.0889 23.0988L44.8363 1.50299L52.3852 1.50299L57.8968 23.4634L62.722 1.50299L69.1129 1.50299L61.4782 32.9424L54.7442 32.9424L48.4821 9.4379L42.2414 32.9424L35.3573 32.9424ZM98.279 32.9424L91.3735 32.9424L88.6284 25.801L76.0613 25.801L73.4663 32.9424L66.7324 32.9424L78.9779 1.50299L85.6904 1.50299L98.279 32.9424ZM86.5911 20.5039L82.2591 8.83742L78.0128 20.5039L86.5911 20.5039ZM113.012 1.50299L119.339 1.50299L119.339 21.4046C119.339 24.0067 119.11 26.0083 118.652 27.4094C118.038 29.2394 116.922 30.712 115.307 31.8272C113.691 32.9281 111.561 33.4785 108.916 33.4785C105.814 33.4785 103.426 32.6135 101.753 30.8836C100.08 29.1393 99.2369 26.5873 99.2226 23.2275L105.206 22.5412C105.277 24.3427 105.542 25.6151 105.999 26.3586C106.686 27.488 107.729 28.0528 109.131 28.0528C110.546 28.0528 111.547 27.6524 112.133 26.8518C112.719 26.0369 113.012 24.357 113.012 21.8121L113.012 1.50299ZM154.467 32.9424L147.561 32.9424L144.816 25.801L132.249 25.801L129.654 32.9424L122.92 32.9424L135.166 1.50299L141.878 1.50299L154.467 32.9424ZM142.779 20.5039L138.447 8.83742L134.201 20.5039L142.779 20.5039ZM157.92 32.9424L157.92 1.50299L164.096 1.50299L176.963 22.4983L176.963 1.50299L182.861 1.50299L182.861 32.9424L176.491 32.9424L163.817 12.4403L163.817 32.9424L157.92 32.9424Z" fill="#C2161C"/>
</svg>
