<?xml version="1.0" standalone="no"?>
<!DOCTYPE svg PUBLIC "-//W3C//DTD SVG 20010904//EN"
 "http://www.w3.org/TR/2001/REC-SVG-20010904/DTD/svg10.dtd">
<svg version="1.0" xmlns="http://www.w3.org/2000/svg"
 width="632.000000pt" height="632.000000pt" viewBox="0 0 632.000000 632.000000"
 preserveAspectRatio="xMidYMid meet">
<metadata>
Created by potrace 1.14, written by Peter Selinger 2001-2017
</metadata>
<g transform="translate(0.000000,632.000000) scale(0.100000,-0.100000)"
fill="#000000" stroke="none">
<path d="M2800 6290 c-30 -4 -71 -10 -90 -13 -19 -3 -57 -9 -85 -13 -27 -5
-52 -9 -55 -9 -3 -1 -25 -5 -50 -10 -53 -10 -59 -12 -62 -15 -2 -1 -12 -3 -23
-4 -81 -12 -348 -96 -476 -152 -46 -19 -88 -37 -94 -38 -17 -5 -190 -89 -195
-95 -3 -3 -30 -19 -60 -35 -81 -42 -234 -138 -243 -153 -4 -7 -13 -13 -18 -13
-10 0 -130 -87 -181 -132 -15 -12 -42 -34 -60 -48 -53 -40 -311 -299 -369
-371 -124 -151 -205 -265 -295 -414 -75 -124 -230 -441 -222 -455 1 -3 -5 -18
-15 -35 -19 -34 -90 -257 -113 -355 -20 -85 -21 -91 -39 -185 -8 -44 -18 -93
-21 -110 -11 -48 -13 -844 -2 -905 13 -74 17 -99 22 -140 8 -58 82 -339 114
-430 35 -102 113 -294 143 -353 12 -23 22 -44 22 -47 -1 -3 7 -16 16 -30 9
-14 23 -36 29 -50 66 -133 251 -405 372 -545 32 -36 315 -320 340 -340 14 -11
59 -47 100 -80 41 -33 77 -62 80 -65 12 -13 270 -180 325 -210 33 -18 79 -44
103 -57 23 -13 42 -20 42 -16 0 4 4 3 8 -3 25 -35 382 -171 627 -238 10 -3 64
-14 95 -20 8 -2 27 -6 41 -10 14 -4 41 -9 60 -11 19 -2 34 -4 34 -5 0 -3 26
-7 120 -20 125 -17 167 -19 353 -25 89 -2 167 -7 172 -10 5 -3 11 -1 14 4 3 5
23 9 43 9 21 0 70 3 108 6 62 5 94 9 185 20 14 2 39 6 55 10 17 3 44 8 60 11
70 10 102 17 130 25 17 5 41 11 55 14 41 7 272 76 310 93 19 8 42 16 50 18 69
15 391 174 529 262 51 32 101 62 112 68 10 5 19 13 19 17 0 5 5 8 11 8 9 0 57
34 170 122 115 89 247 212 359 335 94 103 121 135 202 243 43 58 81 110 86
115 4 6 17 26 28 45 10 19 24 40 30 47 7 7 28 41 48 75 20 35 41 70 46 78 6 8
17 31 25 50 9 19 26 53 38 75 12 22 38 76 56 120 19 44 38 84 43 90 4 5 8 16
8 25 0 8 7 28 15 44 8 15 15 33 15 38 0 6 6 24 14 41 28 63 104 341 121 447 3
19 8 42 10 50 2 8 6 35 9 60 3 25 8 56 11 70 7 30 16 141 17 193 1 56 14 44
17 -15 3 -79 11 -71 12 13 0 41 1 109 2 151 1 43 -1 78 -5 78 -4 0 -5 7 -2 15
9 23 10 226 2 232 -8 4 -11 -26 -11 -95 0 -47 -12 -28 -13 21 -2 85 -21 249
-40 357 -3 19 -7 44 -9 55 -9 57 -59 258 -73 295 -3 8 -7 20 -7 25 -1 6 -4 17
-7 25 -3 8 -16 44 -28 80 -25 75 -69 190 -78 205 -4 6 -7 12 -7 15 -1 3 -12
28 -25 55 -13 28 -24 52 -25 55 -7 25 -108 211 -136 252 -11 14 -19 29 -19 33
0 3 -33 55 -72 113 -68 100 -87 126 -113 156 -5 6 -23 29 -40 51 -16 22 -39
49 -50 61 -11 11 -33 36 -48 55 -71 87 -258 267 -377 363 -25 20 -50 40 -56
45 -6 5 -35 26 -65 47 -30 21 -59 43 -66 49 -31 26 -39 31 -53 38 -8 4 -27 15
-42 25 -83 54 -177 107 -288 162 -69 34 -133 66 -142 71 -34 17 -206 82 -289
109 -115 38 -169 53 -221 63 -15 3 -31 8 -35 10 -5 3 -26 8 -48 11 -22 4 -48
9 -58 12 -11 3 -29 7 -40 9 -12 1 -38 5 -57 9 -19 4 -53 9 -75 12 -22 2 -53 7
-70 10 -47 9 -663 13 -725 4z m3491 -3263 c-10 -9 -11 -8 -5 6 3 10 9 15 12
12 3 -3 0 -11 -7 -18z"/>
</g>
</svg>
